<?xml version="1.0" encoding="utf-8"?>
<!-- Generator: Adobe Illustrator 23.0.3, SVG Export Plug-In . SVG Version: 6.00 Build 0)  -->
<svg version="1.1"
	 id="svg2" xmlns:cc="http://creativecommons.org/ns#" xmlns:dc="http://purl.org/dc/elements/1.1/" xmlns:inkscape="http://www.inkscape.org/namespaces/inkscape" xmlns:rdf="http://www.w3.org/1999/02/22-rdf-syntax-ns#" xmlns:sodipodi="http://sodipodi.sourceforge.net/DTD/sodipodi-0.dtd" xmlns:svg="http://www.w3.org/2000/svg"
	 xmlns="http://www.w3.org/2000/svg" xmlns:xlink="http://www.w3.org/1999/xlink" x="0px" y="0px" viewBox="0 0 512 512"
	 style="enable-background:new 0 0 512 512;" xml:space="preserve">
<style type="text/css">
	.st0{fill:#FF6900;}
</style>
<g id="layer1" transform="translate(0,-540.3622)">
	<path id="path3766-1" class="st0" d="M127.4,657.8c-5,0.1-9.9,2.2-13.4,5.7l-55,55c-3.6,3.6-5.7,8.7-5.7,13.8s2.1,10.2,5.7,13.8
		l183.3,183.3c3.6,3.6,8.7,5.7,13.8,5.7c5.1,0,10.2-2.1,13.8-5.7L453,746c3.6-3.6,5.7-8.7,5.7-13.8s-2.1-10.2-5.7-13.8l-55-55
		c-3.6-3.6-8.7-5.7-13.7-5.7c-5.1,0-10.1,2.1-13.7,5.7L256,778L141.4,663.5C137.8,659.8,132.6,657.7,127.4,657.8z"/>
</g>
</svg>
