<svg xmlns="http://www.w3.org/2000/svg" viewBox="0 0 174.59 38.31"><defs><style>.cls-1{fill:#ff7900;}</style></defs><g id="Layer_2" data-name="Layer 2"><g id="Warstwa_1" data-name="Warstwa 1"><path class="cls-1" d="M4.08,2.48V25.32h7.84v3.84H0V2.48Z"/><path class="cls-1" d="M32.16,20.76a8.74,8.74,0,0,1-9,8.91,8.74,8.74,0,0,1-9-8.91,8.69,8.69,0,0,1,9-8.88A8.69,8.69,0,0,1,32.16,20.76Zm-4,0c0-3.84-2.52-5.4-5-5.4s-5,1.56-5,5.4c0,3.24,1.92,5.36,5,5.36S28.16,24,28.16,20.8Z"/><path class="cls-1" d="M40.16,0V18l5.48-5.64h5.2l-7.24,7,7.76,9.84h-5L40.88,22l-.72.72v6.48H36.24V0Z"/><path class="cls-1" d="M66.24,12.32h3.92V29.16H66.24V27.4a6.45,6.45,0,0,1-5,2.27c-5.2,0-8.16-4.31-8.16-9,0-5.48,3.76-8.84,8.2-8.84a6.14,6.14,0,0,1,5,2.4ZM57,20.8c0,2.92,1.84,5.36,4.68,5.36,2.48,0,4.76-1.8,4.76-5.32,0-3.68-2.28-5.44-4.76-5.44C58.88,15.4,57,17.8,57,20.8Z"/><path class="cls-1" d="M79,0V29.16H75.12V0Z"/><path class="cls-1" d="M86,2.84a2.46,2.46,0,0,1,2.52,2.52,2.52,2.52,0,0,1-5,0A2.46,2.46,0,0,1,86,2.84Zm2,9.48V29.16H84V12.32Z"/><path class="cls-1" d="M98.44,25.56h10v3.6H90.72l10.92-13.24H93v-3.6h16.24Z"/><path class="cls-1" d="M123.8,12.32h3.92V29.16H123.8V27.4a6.45,6.45,0,0,1-5,2.27c-5.2,0-8.16-4.31-8.16-9,0-5.48,3.76-8.84,8.2-8.84a6.14,6.14,0,0,1,5,2.4Zm-9.2,8.48c0,2.92,1.84,5.36,4.68,5.36,2.48,0,4.76-1.8,4.76-5.32,0-3.68-2.28-5.44-4.76-5.44C116.44,15.4,114.6,17.8,114.6,20.8Z"/><path class="cls-1" d="M145.72,17.48A6.61,6.61,0,0,0,141,15.4a5,5,0,0,0-3.72,1.48,5.38,5.38,0,0,0-1.44,3.88,5.58,5.58,0,0,0,1.52,4,5.09,5.09,0,0,0,3.56,1.36A6.56,6.56,0,0,0,145.72,24v4.36a9.23,9.23,0,0,1-5.12,1.31,8.2,8.2,0,0,1-6.4-2.47,8.75,8.75,0,0,1-2.4-6.32,9,9,0,0,1,2.56-6.52,9.14,9.14,0,0,1,6.76-2.48,9,9,0,0,1,4.6,1.2Z"/><path class="cls-1" d="M151.44,2.84A2.46,2.46,0,0,1,154,5.36a2.52,2.52,0,0,1-5,0A2.46,2.46,0,0,1,151.44,2.84Zm2,9.48v26h-3.92v-26Z"/><path class="cls-1" d="M170.68,12.32h3.91V29.16h-3.91V27.4a6.45,6.45,0,0,1-5,2.27c-5.2,0-8.16-4.31-8.16-9,0-5.48,3.76-8.84,8.2-8.84a6.14,6.14,0,0,1,5,2.4Zm-9.2,8.48c0,2.92,1.84,5.36,4.68,5.36,2.48,0,4.76-1.8,4.76-5.32,0-3.68-2.28-5.44-4.76-5.44C163.32,15.4,161.48,17.8,161.48,20.8Z"/></g></g></svg>