<svg xmlns="http://www.w3.org/2000/svg" viewBox="0 0 113.04 27.67"><defs><style>.cls-1{fill:#ff7900;}</style></defs><g id="Layer_2" data-name="Layer 2"><g id="Warstwa_1" data-name="Warstwa 1"><path class="cls-1" d="M27.75,13.84A13.52,13.52,0,0,1,13.88,27.67,13.53,13.53,0,0,1,0,13.84,13.53,13.53,0,0,1,13.88,0,13.53,13.53,0,0,1,27.75,13.84Zm-4.07,0c0-5.92-4.08-10.08-9.8-10.08s-9.8,4.16-9.8,10.08,4.08,10.08,9.8,10.08S23.68,19.76,23.68,13.84Z"/><path class="cls-1" d="M41.48,10.32H45.4v1.56a5.19,5.19,0,0,1,4.16-2,5,5,0,0,1,4.36,2.48,6,6,0,0,1,5-2.48,5.38,5.38,0,0,1,4.79,2.64,8.3,8.3,0,0,1,.88,4.24v10.4H60.68V17.88a7.81,7.81,0,0,0-.36-3,2.22,2.22,0,0,0-2.24-1.48,2.9,2.9,0,0,0-2.32,1.24A6.83,6.83,0,0,0,55,18.48v8.68H51.08V17.88a7.81,7.81,0,0,0-.36-3,2.22,2.22,0,0,0-2.24-1.48,2.9,2.9,0,0,0-2.32,1.24,6.83,6.83,0,0,0-.76,3.84v8.68H41.48Z"/><path class="cls-1" d="M69.52,10.32h3.92v1.56a5.8,5.8,0,0,1,4.56-2,5.63,5.63,0,0,1,5,2.28c.64.92,1,2.08,1,4.68V27.16H80.08V17.8c0-4.28-1.6-4.4-3.08-4.4-1.76,0-3.56.24-3.56,5.68v8.08H69.52Z"/><path class="cls-1" d="M90.92.84a2.46,2.46,0,0,1,2.52,2.52,2.52,2.52,0,0,1-5,0A2.46,2.46,0,0,1,90.92.84Zm2,9.48V27.16H89V10.32Z"/><path class="cls-1" d="M112.92,23.32a8.83,8.83,0,0,1-2.84,3.08,9.26,9.26,0,0,1-5,1.27,7.46,7.46,0,0,1-5.68-2.15A9,9,0,0,1,97,19.08a9.87,9.87,0,0,1,2.68-6.92,7.67,7.67,0,0,1,5.64-2.28,7.25,7.25,0,0,1,5.4,2.2c2.15,2.24,2.36,5.36,2.36,7.12v.48H101a5.57,5.57,0,0,0,1.44,3.4,4,4,0,0,0,3,1.08,4.13,4.13,0,0,0,2.68-.84,6.08,6.08,0,0,0,1.56-1.84ZM109,16.48a4.07,4.07,0,0,0-1.2-2.28,4.09,4.09,0,0,0-5.4.12,4.41,4.41,0,0,0-1.2,2.16Z"/></g></g></svg>