<svg xmlns="http://www.w3.org/2000/svg" viewBox="0 0 358.62 151.05"><defs><style>.cls-1{font-size:60px;}.cls-1,.cls-2,.cls-3{fill:#f1853e;}.cls-1,.cls-3{font-family:Tornac-Regular, Tornac;}.cls-3{font-size:22px;}.cls-4,.cls-5,.cls-6,.cls-7,.cls-8,.cls-9{font-size:23.98px;font-family:Modish-Regular, Modish;}.cls-4{letter-spacing:0.02em;}.cls-6{letter-spacing:0.03em;}.cls-7{letter-spacing:0em;}.cls-8{letter-spacing:0.01em;}.cls-9{letter-spacing:-0.02em;}</style></defs><title>Asset 3</title><g id="Layer_2" data-name="Layer 2"><g id="Layer_1-2" data-name="Layer 1"><text class="cls-1" transform="translate(0 52.41)">No i Gitara!</text><path class="cls-2" d="M288.73,121.88Z"/><path class="cls-2" d="M302.31,96.43a.94.94,0,0,1-.1-.1l.08.1Z"/><path class="cls-2" d="M288.73,121.88Z"/><path class="cls-2" d="M273.88,103.58v0l0,0Z"/><polygon class="cls-2" points="285.21 122.38 285.22 122.38 285.23 122.38 285.21 122.38"/><path class="cls-2" d="M287.11,122.51h0v0Z"/><path class="cls-2" d="M287.43,122.41v0h0Z"/><path class="cls-2" d="M288.72,121.89h0Z"/><path class="cls-2" d="M296.18,116.58a24.94,24.94,0,0,0,1.4-3.33,27.32,27.32,0,0,1,1.62-4,7.42,7.42,0,0,1,1.9-2.34c.95-.76,2-1.44,2.89-2.26a7.55,7.55,0,0,0,1.53-1.85,4.62,4.62,0,0,0,.63-2.87,6.24,6.24,0,0,0-1-2.53,18.88,18.88,0,0,0-2.27-2.92c-.09-.1-.17-.21-.24-.3.35-.63.79-1.19.56-2l-.7.7.06.3-.28-.1-.61.61.05.33-.26-.12-.58.58.07.37-.59-.59-.61.61.5.58-.07.07-.54-.55-.59.59.52.6-.06.06L299,95.7l-.55.54.5.62c-.21-.11-.33-.33-.51-.43S298.24,96,298,96l-.48.49.95,1.06-.33-.09c-.16.19-.44.31-.41.63-.07,0-.15,0-.18,0s-.41.26-.31.56l-.21,0-.4.4a3.76,3.76,0,0,1,0,1.94,3.45,3.45,0,0,1-2.78,2.72,2.9,2.9,0,0,1-3.16-1.42,3.43,3.43,0,0,1-.27-3,3.51,3.51,0,0,1,3.36-2.48c.22,0,.44,0,.66,0a.78.78,0,0,0,.41-.48,3.75,3.75,0,0,0-4,1.1,4.31,4.31,0,0,0-.82,4.92,2,2,0,0,0,.19.28l.33-.27-.28.35a3.08,3.08,0,0,0,1.44,1.44l-.48.74a2.85,2.85,0,0,0-.51,2.12,3.94,3.94,0,0,0,3.16,3.07,1.74,1.74,0,0,0,1.52-.5,6.84,6.84,0,0,0,1-1.12,13,13,0,0,0,2-4.94,5.32,5.32,0,0,0,0-1.78,4.06,4.06,0,0,0-.92-2l-.12-.83a49.61,49.61,0,0,1,3.78-3.78c.19.18.38.36.56.56s.4.44.59.66c-.18-.25-.35-.5-.54-.75s-.33-.45-.49-.67a.26.26,0,0,1,.22.1,12.75,12.75,0,0,1,2.34,3.25,4.66,4.66,0,0,1,.52,2.46,5.11,5.11,0,0,1-1.46,3.18,21,21,0,0,1-3.39,2.7,8,8,0,0,0-2.4,2.54,25.62,25.62,0,0,0-1.41,2.94c-.61,1.49-1.2,3-1.87,4.44a12.18,12.18,0,0,1-3.52,4.5,4.14,4.14,0,0,1-.5.3l-.06,0,0,0a1.09,1.09,0,0,1-.54.33l-.05,0-.26.12h0l0,0,.26-.12h.05l.54-.33,0,0,.06,0c.23-.2.47-.39.69-.59a12.49,12.49,0,0,0,3.05-4.09c.6-1.32,1.14-2.68,1.69-4a22.09,22.09,0,0,1,1.8-3.77c.25-.39.55-.76.83-1.13,0,0-.07,0-.08,0a9.82,9.82,0,0,0-.71.86,17.39,17.39,0,0,0-1.72,3.42c-.39,1-.76,1.9-1.16,2.85a16.75,16.75,0,0,1-2.52,4.4,9.52,9.52,0,0,1-3.3,2.58,6.9,6.9,0,0,1-2.28.58,5.09,5.09,0,0,1-.78,0,1.07,1.07,0,0,1-.75-.11l.23-.06-.52-.52a1.91,1.91,0,0,1,.07.24c0,.1,0,.2.06.37l-.67-.17.07.07-.07-.07h0v0l-.22-.22.09.13a4.46,4.46,0,0,1-1.77-.84h0a5.46,5.46,0,0,1-.72-.51c-.53-.5-1-1-1.56-1.53l-.24-.29.24-.57-.13-.58-.47-.16-.62.23a3.63,3.63,0,0,1-.34-.34c-.49-.59-1-1.19-1.45-1.8a26.23,26.23,0,0,1-2.55-3.71,8.16,8.16,0,0,1-1-3.6,8.67,8.67,0,0,1,.9-4.33,2.29,2.29,0,0,0,.12-.37,1.54,1.54,0,0,0-.21.29c-.2.48-.42,1-.58,1.44a8.27,8.27,0,0,0,.69,6.7c.49.88,1.07,1.71,1.64,2.55.39.56.81,1.1,1.24,1.64s.85,1,1.29,1.54c.63.72,1.26,1.43,1.92,2.12a12.53,12.53,0,0,0,1.32,1.2,6.65,6.65,0,0,0,4.82,1.54c.37,0,.75-.09,1.13-.13h0v0l.32,0h0v0l0,0h0a.44.44,0,0,0,.16,0c.93-.18,1.87-.35,2.8-.57a6.91,6.91,0,0,0,3-1.63A12.45,12.45,0,0,0,296.18,116.58Zm-5.41-13.47h0l.16-.19,0,0Zm-2.59,19,0,0v0Zm.21-.1.05,0,0,0Z"/><polygon class="cls-2" points="288.73 121.88 288.73 121.88 288.73 121.88 288.73 121.88 288.73 121.88"/><path class="cls-2" d="M288.72,121.88h0Z"/><path class="cls-2" d="M288.76,121.85l0,0h0l.26-.12.05,0H289Z"/><path class="cls-2" d="M289.61,121.39l0,0,.06,0-.06,0Z"/><polygon class="cls-2" points="288.73 121.88 288.73 121.88 288.73 121.88 288.73 121.88 288.73 121.88"/><path class="cls-2" d="M316.86,75.43l-1,.74a1.69,1.69,0,0,1-.34.23L317,74.21c-.1-.19-.31-.43-.2-.73a1.07,1.07,0,0,1,.26-.4c.28-.26.56-.22,1.1.17l.68-.68-.11-.25a.75.75,0,0,1,.15-.9.71.71,0,0,1,.9,0l.18.14.78-.67c-.27-.4-.41-.78-.06-1.17s.77-.17,1.11.13c.4-.18.58-.63,1-.72a6,6,0,0,1,3,3.32l-.7.6a5.07,5.07,0,0,0-.44.37.59.59,0,0,0-.14.42l.69-.24c.21.31.36.59.15.93a.72.72,0,0,1-.9.29l-.35-.35.27-.43-.22-.23-1.61,1.26.05.28.57-.23c.41.37.44.77.11,1.08s-.77.27-1.12-.19l.25-.42-.2-.25-1.6,1.25V77l.64-.27a.64.64,0,0,1,.32.71A.69.69,0,0,1,321,78a.72.72,0,0,1-.8-.35l.28-.47L320.2,77c-.18.14-.37.26-.54.4a2,2,0,0,1-1,.44,3.33,3.33,0,0,0-1.42.52l-1.44-1.44a18.91,18.91,0,0,1,2.39-2.19l-.35.46h0l1-1v0l-.51.45c0-.43.35-.57.55-.8a2.79,2.79,0,0,1,.71-.61l-.22.32,0,0,1.13-1.14,0,0-.25.17-.36-.24-.48.1c-.24.36-.24.36,0,.74l-1,1a3.24,3.24,0,0,0-.71-.11c-.18,0-.3.17-.37.38l.14.41-.62.62Zm1.19,1-.23.1,0,0,.21-.16.18-.08,0,0Zm5.2-6,.26.26-.21.16-.22-.22-.19.11a.41.41,0,0,0,.51.25c.11-.08.19-.16.1-.3s-.09-.24-.25-.25h-.13c-.41,0-.51,0-.59.54l.27.14h0l0,0-.15-.43.47-.28Zm0,1.16a.57.57,0,0,1-.14-.42l-.13.31.27.09h0Zm.39,1.75c.23,0,.28-.12.29-.3a.34.34,0,0,0-.29-.34.67.67,0,0,0-.58.15l-.24.36.62.33h0l.07-.21Zm-4.19,3.3.15.07.38-.38c0-.34,0-.42-.23-.47a.59.59,0,0,0-.75.3l.1.4.36.08Zm2-5.18c.28.07.37-.18.52-.29a.35.35,0,0,0-.2-.49.65.65,0,0,0-.63.12c-.22.23-.09.45,0,.67l-.22.27.5-.28Zm0,3.68.39-.33c0-.48,0-.51-.59-.62l-.44.29.17.48Zm-.29-1.93-.05-.06-.65.46-.22-.32-.23.24.33.25-.46,0c.12.23.23.45.51.52,0-.16-.07-.32.16-.34l.09.21.27-.07-.29-.37Zm2.36-1.1.05.06.77-.33s0,0,0-.1l-.38,0-.58-.44,0,0,.49.5Zm-6.12,3.56,0,0-1.14,1.15,0,0Zm1.59.08,0,0-.14.14,0,0Zm-.39.22v0l-.14.14,0,0Zm-1.29.89h0l.14-.14v0Zm-.24.13h0l-.13.13h0Zm-.47.32,0,0,.09-.09,0,0Zm3.15-2.1h0l-.09.08h0Zm.28-.18h0l.09-.08h0Zm.48-.32h0l-.08.08h0Zm1-.7v0l.09-.09h0Zm.38-.25h0l.08-.08h0Zm.38-.25h0l.09-.08,0,0Zm-3,2,0,0,0,0ZM317.72,77h0l0,0Z"/><path class="cls-2" d="M288.19,108.44,286.91,107l.31-.31,2.82,3.4c-.3.48-.79.73-1.16,1.16a1.45,1.45,0,0,1-.39-.21,11.23,11.23,0,0,0-1.16-.9,9.93,9.93,0,0,1-2.16-2.18c-.33-.48-.65-1-1-1.45a3.84,3.84,0,0,1-.5-1,5.92,5.92,0,0,0-.44-.87c-.08-.14-.16-.28-.23-.42l1.12-1.12c.62.61,1.1,1.3,1.66,2l-.27.31-.42-.21c0,.5.44.61.57,1l-.15.28-.36-.08c-.05.15-.11.26-.09.33s.23.2.38.13l.27-.58c.23.16.42.27.38.52.08,0,.18,0,.23.09.19.2.38.41.56.62l.42.46c.14.15.29.29.43.45S287.92,108.56,288.19,108.44Zm-1.78-.29h0c0,.19.09.21.23.25l.26-.26-.29-.26a2.3,2.3,0,0,0-.2.16S286.41,108.11,286.41,108.15Zm-.93-.89c.43.07.43.07.54-.33l-.38-.09Zm.49.58.4,0c.06-.43,0-.47-.4-.34Zm-1-1.48.25-.48-.4-.06-.21.28Zm2.46,2.42-.3-.37c-.26.09-.36.21-.21.5Z"/><path class="cls-2" d="M296.22,97.72l.75.75-.45.49-.28-.2a.28.28,0,0,0,0,.13,3.45,3.45,0,0,1-.29,2.92,3.07,3.07,0,0,1-2,1.56,2.47,2.47,0,0,1-2.15-.41l-.42-.27a.32.32,0,0,1,0-.08v0a.22.22,0,0,1,.05-.08L296,97.92A2.3,2.3,0,0,1,296.22,97.72Zm-4.07,4.89h0l-.15.14h0Z"/><path class="cls-2" d="M293.94,97.32l.37-.22.22,0a2.15,2.15,0,0,1,.24.11L292,100l.06.07c.85-.86,1.71-1.71,2.56-2.56.12-.12.23-.3.46-.17l-.07-.19.4-.4.36.37-1.29,1.29,0,.06,1.31-1.31.35.43-4.9,4.9-.38-.43a2.72,2.72,0,0,1,.63-.71,5.35,5.35,0,0,0,.58-.68L290.83,102l-.21-.56.92-.92-.05-.06-.91.91-.1-.58.25-.25,2.64-2.61c.17-.17.34-.35.52-.52h0l.08-.07Z"/><path class="cls-2" d="M312.39,83.09l-.45-.45,1.31-1.31.44.45.08-.07-.38-.54.55-.56,0,0-.61.53-.6-.61,1.11-1.11-.06-.06-1.11,1.11-.22-.2c.45-.51,1-.94,1.43-1.42l1.34,1.43A26.73,26.73,0,0,1,312.39,83.09Zm2.18-3.23v0l0,0-.13.14,0,0Zm-.28.29h-.08l0,.13.05,0Zm-1.87,2.57-.05,0Z"/><path class="cls-2" d="M295.35,89.09c.42.08.84.17,1.27.22a4.37,4.37,0,0,1,2.18,1c.39.31.78.64,1.19,1l.38-.29h0l-1.31,1.31c-.49-.49-1-1-1.44-1.45a8.47,8.47,0,0,0-2.05-1.57,2.23,2.23,0,0,1-.24-.19Z"/><path class="cls-2" d="M293.89,97.38a3.86,3.86,0,0,0-.38.3l-2.71,2.65c-.08.08-.17.14-.32.27a3.49,3.49,0,0,1,1.18-2.87,2.77,2.77,0,0,1,2.48-.69l-.2.28h0l-.08.07Z"/><path class="cls-2" d="M315.7,77.47l-.73.73,0,0,.72-.73,1.09,1.09-1.49,1.5L314,78.75a3.57,3.57,0,0,1,.72-.78c.23-.25.48-.49.74-.75Zm.05,1.14v0l.25-.25,0,0Zm.71,0v0l-.25.25h0Zm-.95-.21h0l-.07.08h0Zm-.42.93.05-.05Z"/><path class="cls-2" d="M311.5,82.23l-.25-.28c.42-.47.86-.9,1.31-1.32l.58.57a2.6,2.6,0,0,1-.6.71c-.2.22-.42.42-.64.64l-.3-.2.35-.44,0,0a1.48,1.48,0,0,0-.21.13C311.65,82.07,311.6,82.13,311.5,82.23Zm.64-.86h-.08s0,.07,0,.1.05,0,.07,0Z"/><path class="cls-2" d="M303.69,88.74l.62.72a5.63,5.63,0,0,1-.88.88l-.33-.51-.29-.2Zm.15.52h0Z"/><path class="cls-2" d="M306.1,89.09l-.23-.27.09-.28c-.18.15-.33.15-.43-.12.26-.33.59-.62.92-1l.28.25-.46.51,0,0,.22-.19.28-.24.3.29Z"/><path class="cls-2" d="M308.82,86.4l-.47.41-.31-.25,1.12-1.12.49.54-1.09,1.1-.14-.19.44-.45Zm.48-.44v0l-.14.14h0Z"/><path class="cls-2" d="M305.39,88.56l.62.62-.9.9-.24-.24.14-.24c-.25.16-.39.08-.5-.16Z"/><path class="cls-2" d="M310.44,84.13l.26.29-1.07,1.06.06,0,1-1c.17.07.17.17.08.26-.33.34-.66.67-1,1l-.48-.47A9.85,9.85,0,0,1,310.44,84.13Z"/><path class="cls-2" d="M305.24,90.53l-.8.8-.16-.13.14-.24-.23.12-.29-.29.86-.86Z"/><path class="cls-2" d="M303.24,102.83a2.59,2.59,0,0,1-.14.29,4.84,4.84,0,0,1-1.06,1.2c-.51.39-1,.82-1.51,1.23l-1,.77L298,107.46a3.44,3.44,0,0,1,.88-.86c.84-.61,1.68-1.23,2.5-1.87a8,8,0,0,0,1.74-1.78.68.68,0,0,1,.12-.12Z"/><path class="cls-2" d="M309.86,83.35l1.3-1.3.25.34a11.67,11.67,0,0,1-1.25,1.19Z"/><path class="cls-2" d="M313.88,78.61l-.22-.19,1.5-1.51.22.2Z"/><path class="cls-2" d="M296.89,97l.47-.48.33.37h0l.41.42-.48.48-.37-.42,0,0Z"/><path class="cls-2" d="M312.37,80.34l.14.18-1.34,1.34-.2-.18A4.82,4.82,0,0,1,312.37,80.34Z"/><path class="cls-2" d="M310.67,81.33A5.32,5.32,0,0,1,312.05,80l.15.17-1.34,1.34Z"/><path class="cls-2" d="M296.35,97.6l.43-.44.3.3-.18.27.26-.19.34.4-.46.46Z"/><path class="cls-2" d="M307.2,88l-.23-.27c0-.2.43-.65,1-1.06l.26.26A14.06,14.06,0,0,1,307.2,88Z"/><path class="cls-2" d="M309.79,83.23l-.24-.23.62-.64.65-.64.24.24Z"/><path class="cls-2" d="M306.9,85.53l.29.29-1,1-.28-.21A8,8,0,0,1,306.9,85.53Z"/><path class="cls-2" d="M307.37,85.83l1.12-1.12.24.24-1,1.16Z"/><path class="cls-2" d="M308.59,84.61l1.17-1.17.28.27-.42.46-.24-.06a3.13,3.13,0,0,1-.2.41,2.58,2.58,0,0,1-.33.34Z"/><path class="cls-2" d="M310.47,83.93l-.24-.24c.38-.44.8-.82,1.22-1.24l.25.25Z"/><path class="cls-2" d="M311.79,82.79,312,83l-1.24,1.24-.22-.25Z"/><path class="cls-2" d="M310.53,81.4l.22.22-1.24,1.24-.23-.22C309.67,82.21,310.09,81.83,310.53,81.4Z"/><path class="cls-2" d="M304.77,87.65c.38-.35.66-.69,1-1l.25.29-1,1Z"/><path class="cls-2" d="M302.2,90.86a4.58,4.58,0,0,1,.81-.78l.32.33a3.91,3.91,0,0,1-.77.81Z"/><path class="cls-2" d="M305.15,88l1-1,.22.35-.92.93Z"/><path class="cls-2" d="M313.59,78.49l.16.19c-.14.34-.48.48-.71.72s-.45.46-.7.71l-.18-.16A6.74,6.74,0,0,1,313.59,78.49Z"/><path class="cls-2" d="M307.24,85.91l.29.32-1,1-.31-.24A14.25,14.25,0,0,1,307.24,85.91Zm-.36.71.07,0s0,0,0-.06l-.1,0Z"/><path class="cls-2" d="M308.18,84.17l-.19-.26,1.15-1.15.23.22Z"/><path class="cls-2" d="M308.51,84.51l-.19-.19a4.73,4.73,0,0,1,1.14-1.19,1,1,0,0,1,.13.09s.05.07.09.12Z"/><path class="cls-2" d="M310.13,83.8l.23.24a12.49,12.49,0,0,1-1.13,1.18L309,85Z"/><path class="cls-2" d="M301.34,91.72l.74-.73.35.34-.77.77Z"/><path class="cls-2" d="M308.16,84.36l.25.25c-.18.18-.35.37-.53.56l-.56.56-.28-.26Z"/><path class="cls-2" d="M304.05,88.91l-.25-.25.92-.92.21.25C304.92,88.18,304.48,88.62,304.05,88.91Z"/><path class="cls-2" d="M309.08,85.36,308,86.45l-.26-.24,1.13-1.13Z"/><path class="cls-2" d="M302.73,89.51l-.26-.28.85-.85.28.26Z"/><path class="cls-2" d="M304.4,89.54l.26.33-.84.83-.29-.29Z"/><path class="cls-2" d="M300.81,92.89l-.28-.33.69-.7.33.33A2,2,0,0,1,300.81,92.89Z"/><path class="cls-2" d="M303.27,92l-.29-.29a5.11,5.11,0,0,1,.82-.86l.28.33Z"/><path class="cls-2" d="M305.05,88.11l.27.34a9.06,9.06,0,0,1-.87.89l-.33-.29Zm-.23.7,0-.06-.1-.06,0,.08Z"/><path class="cls-2" d="M307.83,84l.23.22-1.14,1.14-.17-.28Z"/><path class="cls-2" d="M306.61,85.2l.22.23-1.06,1-.17-.27Z"/><path class="cls-2" d="M307.62,86.33l.23.23-1,1-.23-.23Z"/><path class="cls-2" d="M302.6,91.34l.82-.83.29.26a5.37,5.37,0,0,1-.75.84Z"/><path class="cls-2" d="M304.38,87.4l.26.23a12.25,12.25,0,0,1-1,.94l-.24-.34Z"/><path class="cls-2" d="M300.06,93.7l-.3-.38.64-.64.34.34Z"/><path class="cls-2" d="M273.89,103.59a4.6,4.6,0,0,1,.32-.67,10.41,10.41,0,0,1,1.77-2,8.78,8.78,0,0,1,1.26-.91,2.89,2.89,0,0,1-.32.29,10.09,10.09,0,0,0-2.54,2.59l-.5.72Z"/><path class="cls-2" d="M304.51,87.28l.93-.94.27.2-1,1Z"/><path class="cls-2" d="M301.65,92.3l.29.23a3.06,3.06,0,0,1-.71.77l-.29-.29Z"/><path class="cls-2" d="M302.43,92.87l-.3-.3.72-.72.3.3Z"/><path class="cls-2" d="M311,84.56c-.05-.15-.09-.21-.07-.22.37-.42.75-.83,1.16-1.28l.15.25C311.82,83.71,311.45,84.13,311,84.56Z"/><path class="cls-2" d="M300.19,92.15l.72-.72.25.31-.69.69Z"/><path class="cls-2" d="M302.08,92.51l-.3-.3a3.14,3.14,0,0,1,.7-.76l.32.32-.42.31Z"/><path class="cls-2" d="M316.84,75.43l.61-.41c-.52.63-1.12,1.18-1.71,1.79l-.15-.25,1.27-1.13Z"/><path class="cls-2" d="M299.34,94.45,299,94l.59-.59.31.31C299.84,94.05,299.59,94.2,299.34,94.45Zm.21-.5s0,0,0-.07,0,0-.07,0l0,.1Z"/><path class="cls-2" d="M301.61,93.69l-.31-.3.72-.71.27.33Z"/><path class="cls-2" d="M299.06,92.51l.65-.65.27.27-.67.67Z"/><path class="cls-2" d="M302.74,89.7l.2.27-.82.82-.21-.26A3.44,3.44,0,0,1,302.74,89.7Z"/><path class="cls-2" d="M301.57,90.11l.8-.8.23.27-.78.78Z"/><path class="cls-2" d="M298.92,94.17l.32.36-.56.55-.33-.34Z"/><path class="cls-2" d="M300.85,93.11l.26.31-.64.64-.31-.26Z"/><path class="cls-2" d="M301.76,90.61l.26.27-.73.73-.28-.28.28-.32.26.14,0-.3Z"/><path class="cls-2" d="M300.08,93.87l.25.34-.6.61-.3-.3Z"/><path class="cls-2" d="M301.21,93.48l.26.37-.62.63-.32-.32Z"/><path class="cls-2" d="M298.94,92.62l.27.24a2.84,2.84,0,0,1-.65.7l-.23-.34Z"/><path class="cls-2" d="M300.84,91.3l-.74.74-.28-.28.74-.67Z"/><path class="cls-2" d="M299.43,92.9l.61-.62.29.27-.65.65Z"/><path class="cls-2" d="M298.25,94.82l.29.41-.55.55-.29-.41Zm-.15.53.06,0a.31.31,0,0,0,0-.1l-.07,0Z"/><path class="cls-2" d="M299.58,93.32l-.62.61-.28-.28.6-.6Z"/><path class="cls-2" d="M299.32,94.62l.29.31-.57.57-.3-.3Z"/><path class="cls-2" d="M298.58,93.73l.26.32-.58.57-.29-.29Z"/><path class="cls-2" d="M308.28,87l.15.17-1,1-.08,0c0-.08,0-.19,0-.24C307.68,87.63,308,87.34,308.28,87Z"/><path class="cls-2" d="M297.42,96.35l-.34-.34.48-.48.34.34Z"/><path class="cls-2" d="M301.44,90.26l.22.22-.74.73L300.7,91A2.61,2.61,0,0,1,301.44,90.26Z"/><path class="cls-2" d="M296.53,95.63l.36.36-.47.46-.32-.32Z"/><path class="cls-2" d="M306.35,89.31l-.14-.16a8.66,8.66,0,0,1,.93-1l.12.24Z"/><path class="cls-2" d="M297,96.1l.3.38-.49.49-.3-.39Z"/><path class="cls-2" d="M306.07,89.25l.13.24-.79.86-.24-.15A7.3,7.3,0,0,1,306.07,89.25Z"/><path class="cls-2" d="M298.42,96.18l-.33-.32.53-.53.3.3Z"/><path class="cls-2" d="M297.3,95l.56-.56.29.3c-.09.11-.16.2-.24.28l-.29.26Z"/><path class="cls-2" d="M297.89,94.21l-.23-.32.53-.53.28.27Z"/><path class="cls-2" d="M297.23,95.05l.27.34-.5.5-.3-.31Z"/><path class="cls-2" d="M296,96.22l.32.35-.49.48-.26-.4Z"/><path class="cls-2" d="M295.93,97.13l.42-.42.36.36-.42.41Z"/><path class="cls-2" d="M297.53,94l.27.33-.6.51-.19-.31Z"/><path class="cls-2" d="M297.11,94.92l-.5.5-.27-.3.47-.47Z"/><path class="cls-2" d="M295.08,96.34l.29.28-.49.49-.25-.32Z"/><path class="cls-2" d="M295.76,95.68l.46-.45.27.3L296,96Z"/><path class="cls-2" d="M303.51,92.26l-.17-.13a4.84,4.84,0,0,1,.77-.8l.17.15Z"/><path class="cls-2" d="M295.61,95.84l.28.28-.41.41-.28-.28Z"/><path class="cls-2" d="M286.67,106.11l-.31.3-.37-.47c.08-.08.12-.14.17-.18a.47.47,0,0,1,.19-.06Z"/><path class="cls-2" d="M286.45,106.5l.3-.31.4.43-.27.31Z"/><path class="cls-2" d="M285.94,105.87l-.37-.37.3-.3.35.34Z"/><path class="cls-2" d="M313.62,78.24c0-.07,0-.11,0-.12.46-.44.92-.87,1.41-1.27Z"/><path class="cls-2" d="M313.42,78.44,312,79.72a10,10,0,0,1,1.32-1.36Z"/><path class="cls-2" d="M303.32,98a1.86,1.86,0,0,1-.23-.26c-.25-.36-.49-.73-.74-1.1a.38.38,0,0,1,0-.16h0a5.55,5.55,0,0,1,1,1.52Z"/><path class="cls-2" d="M310.59,81.08l1.22-1.21,0,0-1.21,1.21Z"/><path class="cls-2" d="M306.47,85.17l-.92.82-.05-.06.9-.82Z"/><path class="cls-2" d="M307.86,83.7l1.05-1,0,0-1.05,1Z"/><path class="cls-2" d="M307.69,83.93l-1,1,0,0,1-1Z"/><path class="cls-2" d="M305.24,86.27l-.85.84,0,0,.87-.88Z"/><path class="cls-2" d="M304,100.86v-1h0a1.36,1.36,0,0,1,0,1Z"/><path class="cls-2" d="M303.4,88l.78-.78,0,0-.79.79Z"/><path class="cls-2" d="M298.77,92.37l-.74-.75,0,0,.75.75Z"/><path class="cls-2" d="M302.46,89l.68-.69,0,0-.68.69Z"/><path class="cls-2" d="M309.18,82.43l.47-.48,0,0-.5.45Z"/><path class="cls-2" d="M309.91,81.75l.42-.42,0,0-.42.41Z"/><path class="cls-2" d="M303.82,99.22a.78.78,0,0,1,.12.63h0l-.13-.63Z"/><path class="cls-2" d="M301.76,89.68l.37-.37h0l-.37.37Z"/><path class="cls-2" d="M303.5,98.39a.46.46,0,0,1-.18-.44h0l.18.45Z"/><path class="cls-2" d="M303.62,102.07l-.17.44h0l.17-.44Z"/><path class="cls-2" d="M303.63,102.07l.12-.38h0c.08.16,0,.28-.12.38Z"/><path class="cls-2" d="M317.88,74.4l-.13,0s0-.07,0-.1.07,0,.07,0A.83.83,0,0,1,317.88,74.4Z"/><path class="cls-2" d="M303.25,102.83l.21-.32h0l-.21.32Z"/><path class="cls-2" d="M319.71,72.69h-.11V72.6l.12,0Z"/><path class="cls-2" d="M296.63,90.22l-.12-.11,0,0,.12.11Z"/><path class="cls-2" d="M296.14,89.81l.12.12v0l-.13-.12Z"/><path class="cls-2" d="M303.49,98.4l.13.25h0l-.14-.26Z"/><path class="cls-2" d="M277.89,99.56l-.11.1,0,0,.11-.11Z"/><path class="cls-2" d="M277.56,99.78l-.1.07,0,0,.11-.1Z"/><polygon class="cls-2" points="295.75 89.58 295.73 89.55 295.76 89.57 295.75 89.58"/><path class="cls-2" d="M282.44,97.58l0,0s0,0,0,0Z"/><path class="cls-2" d="M303.89,101.18,304,101h0l-.06.19Z"/><polygon class="cls-2" points="286.41 95.57 286.38 95.6 286.38 95.58 286.41 95.57"/><path class="cls-2" d="M303.84,101.5l.06-.19h0l-.06.18Z"/><path class="cls-2" d="M303.82,101.49l-.08.2h0l.09-.19Z"/><polygon class="cls-2" points="300.71 90.64 300.69 90.66 300.68 90.65 300.71 90.64"/><path class="cls-2" d="M281.11,98.07l.05,0Z"/><path class="cls-2" d="M280.4,98.32l0,0h0Z"/><path class="cls-2" d="M280,98.52l0,0h0Z"/><path class="cls-2" d="M280,98.5l0,0h0Z"/><path class="cls-2" d="M279.64,98.66l-.05,0Z"/><path class="cls-2" d="M279.27,98.84l0,0h0Z"/><path class="cls-2" d="M303.7,98.84l-.06-.19h0l.06.19Z"/><path class="cls-2" d="M279.27,98.82l0,0h0Z"/><path class="cls-2" d="M278.83,99s.08,0,0,0,0,0,0,0Z"/><path class="cls-2" d="M278.83,99s-.06.06,0,0h0Z"/><path class="cls-2" d="M303.76,99l-.06-.19h0l.07.19Z"/><path class="cls-2" d="M278.12,99.4l.07-.05s0,0,0,0Z"/><path class="cls-2" d="M295,89.2l-.18,0h0l.18.06Z"/><path class="cls-2" d="M295,89.22h0l0,0Z"/><path class="cls-2" d="M278.45,99.22Z"/><path class="cls-2" d="M303.83,99.22l-.07-.19h0l.07.19Z"/><polygon class="cls-2" points="295.51 89.44 295.5 89.46 295.48 89.42 295.51 89.44"/><path class="cls-2" d="M298.75,92.59l0,0Z"/><path class="cls-2" d="M295.35,89.08h0Z"/><polygon class="cls-2" points="282.44 97.56 282.42 97.57 282.44 97.58 282.44 97.56"/><path class="cls-2" d="M280.4,98.34h0Z"/><polygon class="cls-2" points="294.78 89.15 294.75 89.16 294.78 89.16 294.78 89.15"/><path class="cls-2" d="M303.94,100.86V101h0v-.13Z"/><path class="cls-2" d="M303.9,101.31v-.13h0v.13Z"/><path class="cls-2" d="M285.21,122.34v0"/><path class="cls-2" d="M289.65,121.35a1.06,1.06,0,0,1-.63.38v0l.63-.39Z"/><path class="cls-2" d="M291,102.93l-.18.18h0l.16-.19Z"/><path class="cls-2" d="M288.76,121.87l.26-.12v0l-.26.12Z"/><path class="cls-2" d="M288.76,121.85l0,0h0Z"/><path class="cls-2" d="M288.44,122l0,0v0Z"/><polygon class="cls-2" points="288.2 122.13 288.18 122.13 288.2 122.11 288.2 122.13"/><path class="cls-2" d="M287.45,122.45l0,0v0Z"/><path class="cls-2" d="M287.13,122.51l0,0v0Z"/><ellipse class="cls-2" cx="316.89" cy="76.22" rx="1.14" ry="0.02" transform="translate(38.92 246.4) rotate(-45)"/><path class="cls-2" d="M318.23,76.3l-.18.08v0"/><polygon class="cls-2" points="317.72 77.04 317.69 77.06 317.71 77.03 317.72 77.04"/><path class="cls-2" d="M323.12,70.44h0Z"/><path class="cls-2" d="M322.8,71.14l0,0h0Z"/><path class="cls-2" d="M323.24,71.58h0Z"/><path class="cls-2" d="M323.43,73.54h0Z"/><path class="cls-2" d="M323.63,73.33h-.13v0h.13Z"/><path class="cls-2" d="M285.48,107.26l.16-.42.38.09C285.91,107.33,285.91,107.33,285.48,107.26Z"/><path class="cls-2" d="M286,107.84v-.36c.41-.13.46-.09.4.34Zm.15-.22h0l0,0Z"/><path class="cls-2" d="M285,106.36l-.36-.26.21-.28.4.06Z"/><path class="cls-2" d="M287.43,108.78l-.51.13c-.15-.29-.05-.41.21-.5Z"/><path class="cls-2" d="M286.41,108.15s0-.1,0-.12a2.3,2.3,0,0,1,.2-.16l.29.26-.26.26c-.14,0-.27-.06-.23-.25h0Z"/><path class="cls-2" d="M292.15,102.61l-.15.15h0l.15-.14Z"/><path class="cls-2" d="M293.88,97.39l.08-.07Z"/><path class="cls-2" d="M312.42,82.72l-.05,0Z"/><path class="cls-2" d="M314.59,79.86l0,0v0Z"/><path class="cls-2" d="M312.14,81.37v.1s-.07,0-.07,0,0-.07,0-.1Z"/><path class="cls-2" d="M303.84,89.26v0h0Z"/><path class="cls-2" d="M309.3,86l-.13.13h0l.14-.14Z"/><path class="cls-2" d="M306.88,86.62v-.07l.1,0s0,0,0,.06Z"/><path class="cls-2" d="M304.82,88.81l-.1,0,0-.08.1.06Z"/><path class="cls-2" d="M299.55,94h-.07l0-.1s.06,0,.07,0S299.56,93.93,299.55,94Z"/><path class="cls-2" d="M298.1,95.35l0-.11.07,0a.31.31,0,0,1,0,.1Z"/><path class="cls-2" d="M321.68,71.19l.05.06h0Z"/><path class="cls-2" d="M321.46,71l.09,0v0l-.08,0Z"/><polygon class="cls-2" points="321.49 71.45 321.48 71.42 321.47 71.44 321.49 71.45"/><path class="cls-2" d="M321.35,74.73l0-.23c.28,0,.29.18.31.36l-.16-.21-.13.08Z"/><path class="cls-2" d="M321.33,74.73l.09.11-.05,0,0-.13Z"/><path class="cls-2" d="M319.39,76.18V76c.16.06.26.14.25.31l-.28-.16Z"/><path class="cls-2" d="M319.51,76.55l-.07.08h0v-.07h.07Z"/><path class="cls-2" d="M319.51,76.57h.05l-.05,0Z"/><path class="cls-2" d="M319.37,76.18l0,0v0Z"/><path class="cls-2" d="M323.63,73.35h-.13l-.06-.08v0l.11-.16Z"/><path class="cls-2" d="M323.44,73.27h0Z"/><path class="cls-2" d="M323.44,73l-.05.08,0,0,.06-.08Z"/><polygon class="cls-2" points="286.12 107.62 286.11 107.65 286.09 107.63 286.12 107.62"/><polygon class="cls-2" points="286.41 108.15 286.44 108.14 286.41 108.14 286.41 108.15"/><text class="cls-3" transform="translate(85.5 104.14)">Ż<tspan class="cls-4" x="15.25" y="0">y</tspan><tspan class="cls-5" x="23.3" y="0">j </tspan><tspan class="cls-6" x="31.1" y="0">p</tspan><tspan class="cls-7" x="39.47" y="0">a</tspan><tspan class="cls-6" x="47.62" y="0">sj</tspan><tspan class="cls-8" x="56.81" y="0">ą</tspan><tspan class="cls-5" x="65.2" y="0">, </tspan><tspan class="cls-4" x="73.88" y="0">o</tspan><tspan class="cls-5" x="81.25" y="0">dkr</tspan><tspan class="cls-4" x="105.97" y="0">y</tspan><tspan class="cls-5" x="114.03" y="0">j m</tspan><tspan class="cls-9" x="134.34" y="0">u</tspan><tspan class="cls-5" x="142.47" y="0">z</tspan><tspan class="cls-8" x="149.33" y="0">y</tspan><tspan class="cls-5" x="157.15" y="0">kę</tspan></text></g></g></svg>