<svg xmlns="http://www.w3.org/2000/svg" viewBox="0 0 112.98 288.48"><defs><style>.cls-1{fill:#f47920;}</style></defs><title>Asset 4</title><g id="Layer_2" data-name="Layer 2"><g id="Layer_1-2" data-name="Layer 1"><path class="cls-1" d="M103.56,267.32h0C103.55,267.41,103.55,267.46,103.56,267.32Z"/><path class="cls-1" d="M67.14,147.68l-.59,0,.55.09Z"/><path class="cls-1" d="M103.56,267.32h0C103.48,267.45,103.51,267.41,103.56,267.32Z"/><path class="cls-1" d="M1.92,256.78a.75.75,0,0,0,.07.12s0-.11,0-.16Z"/><path class="cls-1" d="M94.29,279.66l0,0v0Z"/><path class="cls-1" d="M100.51,274.22l0-.05-.15,0Z"/><path class="cls-1" d="M101.19,273l.11.1,0,0,0,0Z"/><path class="cls-1" d="M103.55,267.38v-.06h0Z"/><path class="cls-1" d="M110.16,228.25a111,111,0,0,0-6-14.51A120.86,120.86,0,0,1,97,196.6a32.53,32.53,0,0,1-1.32-13c.56-5.26,1.64-10.46,1.9-15.77a32.08,32.08,0,0,0-1-10.35,20.09,20.09,0,0,0-6.88-10.75,26.5,26.5,0,0,0-10.69-4.82,84,84,0,0,0-16-2c-.55,0-1.11-.12-1.64-.18-.83-3-1.21-6.09-4.36-7.84v4.32l1.12.72-1.18.56v3.75l1.14.83L57,142.5v3.55l1.34.95h-3.6v3.73l3.31.27,0,.39H54.75V155l3.42.24v.4H54.73v3.32l3.41.4c-1,.28-2-.05-2.9.22s-1.92-.77-2.78.13v2.95l6.15.35-1.27.71c.1,1.11-.39,2.33.68,3.23-.22.19-.56.34-.57.51-.06,1-.49,2.06.74,2.68l-.78.48v2.47a16,16,0,0,1,6,5.86c3.15,5.63,3.59,11.36-.19,16.83-3.47,5-8.48,6.67-14.07,5.34-4.6-1.09-7.9-4.12-10-8.4-3.07-6.18-2-13.37,2.68-17.9.69-.67,1.47-1.25,2.19-1.86a3.26,3.26,0,0,0-.23-2.75c-5,2.22-9.3,8.38-8.9,15.67.48,8.5,4.59,14.43,12.55,17.6a8.62,8.62,0,0,0,1.48.29c.06-.68.11-1.19.16-1.87.09.79.15,1.4.21,2,2.27,1,4.85,1,8.85,0,.26,1.26.51,2.51.78,3.76a12.5,12.5,0,0,0,4.93,8c5.66,4,14,3.54,19.13-.28a7.59,7.59,0,0,0,3.13-6.19,30.06,30.06,0,0,0-.49-6.36,56.93,56.93,0,0,0-9.12-21.21,23.73,23.73,0,0,0-5.4-5.51,17.66,17.66,0,0,0-8.91-3.27l-2.93-2.2c-.41-4-.4-21.69,0-23.17,1.12,0,2.26,0,3.41,0s2.56.13,3.85.21L62.6,147,59,146.46a1.3,1.3,0,0,1,1-.38,55.39,55.39,0,0,1,17.14,2.8,20.34,20.34,0,0,1,9.15,6,22,22,0,0,1,5.26,14.24c.18,6.31-1,12.47-2.1,18.64a34.83,34.83,0,0,0,.42,15.17,106.5,106.5,0,0,0,4.71,13.33c2.68,6.43,5.44,12.84,7.89,19.36a52.85,52.85,0,0,1,3,24.58,14.33,14.33,0,0,1-.63,2.46l0,.32,0,.2a4.57,4.57,0,0,1-.65,2.68l-.06.25-.41,1.14-.06.12h0v.06h0v-.06l0,.06s0,0,0,0l0-.06h0v-.17L104,266c0-.06.07-.13.11-.2.22-.89.43-1.78.65-2.68,0-.08,0-.16,0-.24s.06-.19.08-.28c.12-1.31.27-2.61.33-3.92A54.43,54.43,0,0,0,102,236.81c-2.23-5.91-4.75-11.72-7.2-17.54-2.35-5.58-4.74-11.15-6-17.1-.43-2-.63-4-.94-6-.09.08-.26.16-.26.22.13,1.61.17,3.23.45,4.8A76.83,76.83,0,0,0,93.2,217c1.72,4.11,3.51,8.18,5.22,12.3a72.3,72.3,0,0,1,5.71,21.21,40.91,40.91,0,0,1-2.18,18,30.67,30.67,0,0,1-5.2,8.73,28.62,28.62,0,0,1-2.42,2.38,4.44,4.44,0,0,1-2.66,1.94l.55-.88H89c.41.21.71.36,1,.53s.69.52,1.29,1l-2.59,1.5h0l-.1.06-.06-.06H87.19l.7.12a19.9,19.9,0,0,1-8,2.85l.06,0a25.46,25.46,0,0,1-3.74.65c-3.16.11-6.33.07-9.49.08-.56,0-1.13-.09-1.62-.13l-1-2.51-2.2-1.36-1.91.94-1.19,2.62c-.79,0-1.44.06-2.08,0-3.32-.34-6.65-.68-10-1.06a119.81,119.81,0,0,1-19.18-3.58,35.7,35.7,0,0,1-14.29-7.82,37.93,37.93,0,0,1-10.49-16A9.65,9.65,0,0,0,2,256.9a5.76,5.76,0,0,0,.26,1.52,65.68,65.68,0,0,0,2.66,6.22,35.75,35.75,0,0,0,22.63,18.42c4.21,1.2,8.55,2,12.85,2.78,2.92.55,5.87.91,8.82,1.25s5.79.58,8.69.76c4.12.27,8.25.53,12.38.62a57.25,57.25,0,0,0,7.74-.38c7.71-.92,14.38-4,19.48-10,1.06-1.25,2-2.58,3-3.88h0l0,.05-.12-.09.15,0,.79-1.14,0,0-.11-.1.16.06,0,0a1.76,1.76,0,0,0,.57-.42c2.29-3.43,4.65-6.83,6.83-10.35a29.81,29.81,0,0,0,4.16-14.16A54.32,54.32,0,0,0,110.16,228.25ZM52.25,203.53h-.08l-.05-1.08h.13Zm50.37,66.25v-.11l.08.06Zm.34-.95c0-.06,0-.12.06-.24l0,.29Z"/><rect class="cls-1" x="103.56" y="267.32"/><path class="cls-1" d="M103.52,267.38l0-.06h0Z"/><path class="cls-1" d="M103.57,267.15v.17h0l.06-.12.41-1.14.06-.25c0,.07-.07.14-.11.2Z"/><path class="cls-1" d="M104.74,263.13l0-.2,0-.32c0,.09,0,.19-.08.28S104.73,263.05,104.74,263.13Z"/><rect class="cls-1" x="103.56" y="267.32"/><path class="cls-1" d="M47.37,38.66c-.25,1.76-.51,3.52-.74,5.29a6.36,6.36,0,0,1-.33,1.73L44,34.6c-.9-.31-2.27-.39-2.86-1.62a4.48,4.48,0,0,1-.42-2c.06-1.68,1-2.37,3.89-2.86V23.94l-1.1-.45a3.23,3.23,0,0,1-2.3-3.21,3.08,3.08,0,0,1,2.91-2.61l1-.14.32-4.43c-2-.41-3.62-1.15-3.73-3.42.23-2.27,1.84-2.87,3.78-3,.69-1.77-.16-3.72.87-5.31,6.58-2,13-2,19.37,1-.11,1.41-.19,2.68-.3,4a23.89,23.89,0,0,0-.23,2.51,2.63,2.63,0,0,0,.86,1.7l1.4-2.85c1.6.3,2.92.72,3.31,2.39s-.47,2.82-1.87,3.66H66.68c-.17-.77-.31-1.44-.47-2.17H64.82c-.37,2.91-.73,5.83-1.09,8.79l1,.72c.38-.92.72-1.73,1-2.48,2.41-.1,3.71,1,3.67,3s-1.54,3.19-4,2.86l-.52-2.07-1.4-.17c-.35,3-.69,5.84-1,8.75l1.06,1.16,1.15-2.81a2.79,2.79,0,0,1,3.17,1.19,3,3,0,0,1,0,3.47c-.75,1.25-1.92,1.61-3.53,1.38l-.56-2.3H62.3c-.15,1-.34,1.93-.43,2.87a9,9,0,0,1-1.76,4.44,14,14,0,0,0-2.74,6H48.53c0-4.81-.24-9.43.6-14.06l.35,2.5h.07V28.68h-.12l-.14,2.93c-1.24-1.38-.69-2.83-.78-4.14a12.83,12.83,0,0,1,.31-4l.3,1.65h.23V18.12h-.26l-.24,1.31L47,19.77l-1.16,1.78c.35,1.85.37,1.86,2.27,2.28V30a15.23,15.23,0,0,0-2.51,1.83,2,2,0,0,0,0,2.3l1.68.85v3.79ZM54,38l-.37,1,.16.05L54,37.92l.29-.78-.17,0ZM51.59,3.71h1.63l-.16,1.15H51.71l-.26.9A1.78,1.78,0,0,0,53.79,5c.08-.6.07-1.09-.61-1.23a1,1,0,0,0-1.53,0l-.38.42c-1.41,1.11-1.46,1.65-.17,3.45l1.27-.38.1-.08,0,.12-1.74-.86.54-2.29Zm3.54,3.58a2.53,2.53,0,0,1-1.7-.84L54,7.79l1.09-.56.16-.12Zm6.58,4.18c.79-.62.49-1.24-.05-1.79a1.47,1.47,0,0,0-1.95-.17,2.94,2.94,0,0,0-1.3,2.21l.38,1.85,2.9-.9.11-.08a.84.84,0,0,0-.06.13l-.45-.83ZM59,34.45l.68-.29V31.85c-1.07-1-1.41-1.14-2.17-.73a2.6,2.6,0,0,0-1.36,3.24l1.54.93L59,34.4ZM49.3,12.31c1.08-.64.6-1.68.72-2.46A1.55,1.55,0,0,0,47.87,9a2.83,2.83,0,0,0-1.54,2.28c0,1.41,1.13,1.67,2.2,2l.13,1.51.68-2.43ZM60.76,23.46l.14-2.21c-1.29-1.62-1.49-1.62-3.69-.1l-.43,2.25,2,1Zm-6.82-5.05-.35,0L53,21.79l-1.69-.29.07,1.44,1.77-.25-1.35,1.47c1.08.34,2.08.68,3.15,0-.55-.44-1.2-.77-.52-1.53l.88.35L56,22l-2-.25ZM57.8,7.8l.35.06c.45-1.14.91-2.27,1.34-3.4,0,0-.12-.17-.27-.34l-1,1.29-3.13.46V6h3ZM50,37.48h-.14v7H50Zm5.12-4.6-.22-.09v.85H55Zm-.51,1.85h-.09v.85h.09Zm-1.24,6.68h.09v-.9h-.09ZM53,42.55h-.09v.81H53ZM52.54,45h.09l0-.54h-.13Zm3.22-16.08h-.07l0,.49h.1Zm.29-1.44h.06v-.51H56Zm.5-2.41-.12,0v.49h.07Zm1-5.33h.09v-.52h-.09ZM58,17.76h.08v-.51H58Zm.38-1.93h.08l0-.51h-.12Zm-3,15.1,0-.19,0,.18ZM55,41H54.9v.15Z"/><path class="cls-1" d="M60.68,227.79l-8.25-.4v-1.92l19.06,1.79c.55,2.39-.15,4.67,0,7.12a6.85,6.85,0,0,1-1.83.55,47.66,47.66,0,0,0-6.32.79A43.49,43.49,0,0,1,50,235.66c-2.47-.43-4.93-1-7.39-1.49a17.91,17.91,0,0,1-4.72-1.65,22.63,22.63,0,0,0-4-1.32l-2-.59v-6.87c3.78,0,7.38.62,11.11.92l.11,1.8-1.92.62c1.42,1.66,3.21.54,4.7,1.18l.4,1.32-1.38.86c.34.61.45,1.14.76,1.31.84.45,1.31-.08,1.55-.76-.32-.89-.6-1.7-.94-2.65,1.2-.2,2.12-.42,2.76.43a2.77,2.77,0,0,1,1-.41c1.21,0,2.41.11,3.62.18.9.05,1.8.11,2.7.14s1.79,0,2.69,0C59.62,228.73,60.23,229,60.68,227.79Zm-6.34,4.55,0,0c.43.7.91.39,1.48.06v-1.58l-1.73.08A6.29,6.29,0,0,0,54,232C54,232.1,54.22,232.22,54.34,232.34Zm-5.58.14c1.54-1.13,1.54-1.13.65-2.68l-1.44.88Zm3.29.27,1.16-1.27c-1.13-1.52-1.44-1.49-2.28.18Zm-7.62-1.45-.71-2.25-1.41,1,.22,1.49Zm15-.13-2.07-.24c-.51,1.09-.44,1.76.87,2.19Z"/><path class="cls-1" d="M52.44,170.27H57l.13,2.89-1.47.27a2.51,2.51,0,0,0,.41.36,15,15,0,0,1,8.08,9.81,13.47,13.47,0,0,1-1.39,11A10.8,10.8,0,0,1,55,199.94c-.76.12-1.49.33-2.14.48l-.27-.22a.43.43,0,0,1-.13-.14,1.24,1.24,0,0,1-.09-.38q0-14.06,0-28.1C52.35,171.2,52.4,170.82,52.44,170.27ZM55,197.78h0v.91h0Z"/><path class="cls-1" d="M44.22,176.05l.46-1.8a7.68,7.68,0,0,1,.8-.54,11.32,11.32,0,0,1,1.08-.42v17.07h.38c0-5.23,0-10.46,0-15.69,0-.75-.22-1.63.9-1.91l-.78-.39v-2.43h2.22v7.95h.35v-8.05l2.37.28v30L49.52,200c-.5-1.45-.2-2.81-.25-4.13A20.21,20.21,0,0,0,49,192v7.83l-2.37-1.07v-5.66h-.34v5.55l-2.08-1.45v-1.54q0-8.06.07-16.09c0-1.07,0-2.13,0-3.19l0,.06V176Z"/><path class="cls-1" d="M57.16,75.87H54.39v-8h2.74l0-.46-2.85-.48V63.5h-.23c-.08,1.12-.17,2.24-.26,3.45H50.15V60.13h-.36v6.8L48.48,67c-.2-2.94.06-5.81,0-8.73l8.51.29C57.45,60,57.57,73.75,57.16,75.87Zm-3.23-16.6-.09-.12.14.07L54,60l.19-.06ZM54,61l-.27.17.31.51.18-.09Zm2.14,13.6c0,.08,0,.17,0,.26C56.08,74.81,56.1,74.72,56.11,74.64Z"/><path class="cls-1" d="M23.3,146.51c1.54-1.07,3.13-2.06,4.59-3.23a18.52,18.52,0,0,1,9.65-3.7c2.17-.26,4.35-.43,6.64-.66l.27-2h.11v8c-3,0-5.93,0-8.87,0a36.53,36.53,0,0,0-11.1,1.43,7.44,7.44,0,0,1-1.34.17Z"/><path class="cls-1" d="M44.23,176.4c-.08.7-.22,1.39-.23,2.09-.07,5.48-.12,10.95-.19,16.43,0,.48-.08,1-.15,1.81a15.05,15.05,0,0,1-5.16-12.42A11.87,11.87,0,0,1,44,174.59l.24,1.46.05-.06v.47Z"/><path class="cls-1" d="M50.07,48.5v4.43l.3,0V48.51h6.69v9.16H48.72c-.47-1.53-.14-3.08-.19-4.59s0-3,0-4.58Zm3.65,3.34h.1V50.32h-.1Zm2.05-2.33h-.08V51h.08Zm-3.54,2.3h-.09v.48h.09Zm1.55,4.1a2.64,2.64,0,0,0,0-.29C53.79,55.72,53.79,55.82,53.78,55.91Z"/><path class="cls-1" d="M51.79,75.93l-1.62-.07c-.14-2.73-.13-5.38,0-8.08h3.51c.59,1.34.29,2.69.35,4s0,2.56,0,3.93L52.48,76l-.28-2.44-.18,0a7.26,7.26,0,0,0-.22,1C51.76,75,51.79,75.36,51.79,75.93Zm-.68-4.58-.23.23a3.27,3.27,0,0,0,.35.3s.14-.15.22-.22Z"/><path class="cls-1" d="M47.81,119.83l4.11.34a25,25,0,0,1,0,5.4L49.34,125l-1.53.27Zm2,1.18,0-.15-.15.1Z"/><path class="cls-1" d="M56.28,113.54l-1.53-.12-.61-1.15c-.08,1-.52,1.47-1.68,1a53.78,53.78,0,0,1-.11-5.75l1.62-.13c.05,1.09.1,2,.15,3h.13c0-.41,0-.83.07-1.25s.09-1,.14-1.59h1.82Z"/><path class="cls-1" d="M56.38,97c-.05.83-.11,1.66-.17,2.7l-1.75.19V93l3.18.14v6.71l-1-.16V96.93Zm.11-2.84H56.4V95h.09Z"/><path class="cls-1" d="M52.47,114.07h3.79v5.54H54.8l-.29-1.17c-.3,1.24-1,1.46-2,1Z"/><path class="cls-1" d="M54.37,85l1.67.11v6.54h.33V85.42c.73-.29,1,0,1,.54,0,2.05,0,4.1,0,6.23H54.48A45,45,0,0,1,54.37,85Z"/><path class="cls-1" d="M58,120.6v4.89l-.86.09-.31-1.13-.36,1H54.73v-5.29Z"/><path class="cls-1" d="M89.62,164.42a9.76,9.76,0,0,1,.48,1.34,21.31,21.31,0,0,1,.41,6.9c-.36,2.8-.54,5.62-.87,8.43-.21,1.84-.55,3.67-.8,5.51-.39,2.8-.74,5.6-1.07,8.06a15.22,15.22,0,0,1,.1-5.32c.67-4.46,1.34-8.92,1.92-13.39a33.39,33.39,0,0,0-.14-10.79,3.31,3.31,0,0,1,0-.77Z"/><path class="cls-1" d="M50.21,84.39V76.46l1.8.25c-.09,2.58.24,5-.18,7.5Z"/><path class="cls-1" d="M48,57.54l-1.28.11V48.42L48,48.34Z"/><path class="cls-1" d="M52.4,166.14v-2.9l2.14.13,0,.07h2.55v3l-2.44-.16v-.1Z"/><path class="cls-1" d="M48.66,67.46l1,.16v8.19l-1.14.08A20.43,20.43,0,0,1,48.66,67.46Z"/><path class="cls-1" d="M46.49,75.74c-.41-3-.34-6.75.17-8.3l1,.07v8.23Z"/><path class="cls-1" d="M52.45,169.53v-2.68h1.82l.28,1.37.23-1.37,2.27.19v2.83Z"/><path class="cls-1" d="M56.35,106.86l-1.55-.11c-.64-.63-.7-3.33-.26-6.26h1.61C56.45,102.52,56.24,104.56,56.35,106.86Z"/><path class="cls-1" d="M49.62,84.27H48.17c0-1.31,0-2.58,0-3.84s0-2.55,0-4h1.49Z"/><path class="cls-1" d="M47.8,100.15h1.8v6.21l-1.52.21C47.55,104.36,47.93,102.3,47.8,100.15Z"/><path class="cls-1" d="M50.16,99.66V92.77h1.49c.12,2.27.25,4.43.37,6.71Z"/><path class="cls-1" d="M50.16,92.19V85h1.68L52,87.65l-.94.59a11.18,11.18,0,0,1,.66,1.85,12.32,12.32,0,0,1,0,2Z"/><path class="cls-1" d="M53.86,84.31H52.4c-.2-2.48-.08-5-.09-7.55h1.55Z"/><path class="cls-1" d="M54.41,76.79h1.47v7.6l-1.47-.11Z"/><path class="cls-1" d="M46.3,76.37h1.32V84H46.25C46.14,81.5,46.24,79,46.3,76.37Z"/><path class="cls-1" d="M47.77,113.2c.09-2.24-.09-4.15.2-6.19l1.64.14V113Z"/><path class="cls-1" d="M49.75,130.91a18.69,18.69,0,0,1,.07-4.85h2a16.31,16.31,0,0,1,.14,4.85Z"/><path class="cls-1" d="M50.16,113.23V107l1.76.38v5.69Z"/><path class="cls-1" d="M46.74,58.1l1.06,0c.64,1.48,0,2.94.06,4.39s0,2.81,0,4.31l-1,.11C46.38,66.49,46.35,61.19,46.74,58.1Z"/><path class="cls-1" d="M50,100.29l1.88.09v6l-1.67.2C49.85,104.5,50.17,102.54,50,100.29Zm1.07,3.29c.11,0,.24-.07.3-.16s0-.18-.08-.27l-.4.16Z"/><path class="cls-1" d="M47.55,92.07l-1.37-.18V84.8h1.37Z"/><path class="cls-1" d="M49.61,92.11H48.43A21.43,21.43,0,0,1,48.29,85a3.3,3.3,0,0,1,.67-.14,3.49,3.49,0,0,1,.65.11Z"/><path class="cls-1" d="M52.42,85h1.42a52.13,52.13,0,0,1,.16,7.1l-1.58.15Z"/><path class="cls-1" d="M49.75,136.21v-4.53h2.14v4.67Z"/><path class="cls-1" d="M48.07,92.72h1.54c0,1.1.07,2.23.09,3.35s0,2.18,0,3.4l-1.63.1Z"/><path class="cls-1" d="M49.43,119.28H47.89v-5.66l1.43.12C49.86,114.37,49.87,117.07,49.43,119.28Z"/><path class="cls-1" d="M54,93v6.66l-1.51.09V92.8Z"/><path class="cls-1" d="M47.23,125.17l-1.66-.09v-5.2l1.66-.07Z"/><path class="cls-1" d="M52.42,120.11l1.82.22v5.14H52.42Z"/><path class="cls-1" d="M51.68,141.41l-1.87-.15V137h2A8.62,8.62,0,0,1,51.68,141.41Z"/><path class="cls-1" d="M56.59,131.22H54.82a24.35,24.35,0,0,1-.14-5.14l1.91.15Z"/><path class="cls-1" d="M50.07,113.75l1.85.23a38.6,38.6,0,0,1,0,5.4l-1.9.12Zm1.41,2.87-.09-.28-.48.12.12.33Z"/><path class="cls-1" d="M46,92.62h1.38v6.95L46,99.24Z"/><path class="cls-1" d="M45.9,100.07h1.38v6.48l-1.38-.31Z"/><path class="cls-1" d="M52.45,100.41h1.43v6.25H52.45Z"/><path class="cls-1" d="M52.43,131.18v-5.07l1.66-.1c.47,1.65.15,3.18.27,4.86Z"/><path class="cls-1" d="M45.81,113.63l1.5-.07a45.3,45.3,0,0,1-.07,5.8l-1.74-.31Z"/><path class="cls-1" d="M51.89,146.19l-2.1-.26V142h2.1Z"/><path class="cls-1" d="M2,256.74a21.13,21.13,0,0,1-1.06-3,45.25,45.25,0,0,1-.82-11.67,40.12,40.12,0,0,1,1.08-6.64,13,13,0,0,1-.1,1.87A43.54,43.54,0,0,0,1.23,253c.21,1.25.46,2.5.69,3.76Z"/><path class="cls-1" d="M45.84,112.86v-5.74l1.41-.18v6.13Z"/><path class="cls-1" d="M52.46,137l1.6-.16a12.36,12.36,0,0,1,.18,4.5H52.46Z"/><path class="cls-1" d="M56.61,136.38H54.75V132h1.86Z"/><path class="cls-1" d="M57.37,84.64c-.61-.29-.9-.36-.91-.45-.13-2.41-.23-4.83-.35-7.46l1.23.3C57.33,79.51,57.45,81.92,57.37,84.64Z"/><path class="cls-1" d="M47.52,141.05v-4.42l1.74.18v4.24Z"/><path class="cls-1" d="M54.45,136.35H52.57a13.65,13.65,0,0,1-.15-4.48h1.94L54,134.11Z"/><path class="cls-1" d="M47.32,38.73l.6-3.12c.34,3.51.21,7,.25,10.74L46.93,46c.15-2.5.3-4.93.44-7.36Z"/><path class="cls-1" d="M52,150.71l-2.2-.38v-3.62H51.7C52.31,147.94,52,149.18,52,150.71Zm-.87-2.18c-.06-.1-.09-.24-.17-.27s-.19.06-.29.09l.23.37Z"/><path class="cls-1" d="M56.62,141.43H54.75v-4.37l1.87.17Z"/><path class="cls-1" d="M45.17,145.59v-4h1.67v4.1Z"/><path class="cls-1" d="M47.83,125.7l1.45.24v5l-1.44-.12A16,16,0,0,1,47.83,125.7Z"/><path class="cls-1" d="M45.53,130.56v-4.91l1.51.13v4.78Z"/><path class="cls-1" d="M49.83,151.15l2.06.1v3.38H49.83Z"/><path class="cls-1" d="M52.49,142l1.77.15V146l-1.77.14Z"/><path class="cls-1" d="M47.6,131.51h1.65V136H47.53l-.13-1.87,1.25-.34-1-.79Z"/><path class="cls-1" d="M52.47,146.65l1.83.27v3.73H52.47Z"/><path class="cls-1" d="M54.75,142l1.93.35v3.82H54.75Z"/><path class="cls-1" d="M45.13,146.32l1.57-.12a11.71,11.71,0,0,1,.15,4.15L45.13,150Z"/><path class="cls-1" d="M46.91,136.44V141h-1.7c.06-1.49.12-2.85.19-4.32Z"/><path class="cls-1" d="M47.49,145.66v-3.75l1.7-.1v4Z"/><path class="cls-1" d="M49.78,155.18l2.14.38v3.34l-2.14-.36Zm1.15,2.06.25-.11a1.9,1.9,0,0,0-.15-.42s-.21.06-.32.1Z"/><path class="cls-1" d="M49.23,146.49v3.78H47.49v-3.68Z"/><path class="cls-1" d="M52.45,151.27l1.84.08v3.49H52.45Z"/><path class="cls-1" d="M47.44,150.84l1.76.16v3.53H47.44Z"/><path class="cls-1" d="M56.66,100.58l1,.07v6.08l-.34.14c-.22-.29-.6-.58-.61-.89C56.63,104.2,56.66,102.42,56.66,100.58Z"/><path class="cls-1" d="M51.92,162.41H49.83v-3h2.09Z"/><path class="cls-1" d="M45.57,131.4h1.34v4.53H45.57A11.9,11.9,0,0,1,45.57,131.4Z"/><path class="cls-1" d="M47,162.93h2.16v2.85h-2Z"/><path class="cls-1" d="M57.7,113.45l-.92-.07a37.12,37.12,0,0,1-.15-5.88l1.07.36Z"/><path class="cls-1" d="M49.81,163l2.11.24v3l-2.11-.28Z"/><path class="cls-1" d="M56.69,114.12l1.11.33c.07,1.65.14,3.3.22,5.09l-1.2.25A29.67,29.67,0,0,1,56.69,114.12Z"/><path class="cls-1" d="M54.45,158.85h-2v-3.24H54.3Z"/><path class="cls-1" d="M47.38,158.59v-3.4H49.2c0,.6.11,1.1.12,1.6s0,1-.09,1.69Z"/><path class="cls-1" d="M46.8,154.42l-1.7-.29v-3.25h1.7Z"/><path class="cls-1" d="M47.35,159l1.87.2v3.05H47.35Z"/><path class="cls-1" d="M47.15,166.36l2.05.11v2.95L47.15,169Z"/><path class="cls-1" d="M49.74,169.36v-2.57h2.19v2.57Z"/><path class="cls-1" d="M45.09,154.91l1.82.18-.27,3.41-1.55-.38Z"/><path class="cls-1" d="M46.58,159v3.09l-1.75-.11v-2.89Z"/><path class="cls-1" d="M44.71,169.55h1.76v3l-1.76-.17Z"/><path class="cls-1" d="M44.79,165.45v-2.79l1.75.09v3Z"/><path class="cls-1" d="M58,131.22l-.91.08a20.09,20.09,0,0,1-.08-4.79l1-.06Z"/><path class="cls-1" d="M44.81,166.39h1.72v2.51H44.81Z"/><path class="cls-1" d="M48.85,225.3v1.89l-2.57-.33a6.17,6.17,0,0,1,0-1.09,3.09,3.09,0,0,1,.39-.77Z"/><path class="cls-1" d="M49.37,227.17v-1.88l2.55.13.13,1.75Z"/><path class="cls-1" d="M45.93,226.8H43.65V225h2.1Z"/><path class="cls-1" d="M46.06,57.24c-.24-.19-.41-.27-.41-.33.06-2.75.13-5.5.41-8.24Z"/><path class="cls-1" d="M46.06,58.42l-.3,8.17a40.79,40.79,0,0,1-.12-8.19Z"/><path class="cls-1" d="M74.92,149.21a9.49,9.49,0,0,1-1.51-.06c-1.88-.35-3.75-.73-5.62-1.12a2.75,2.75,0,0,1-.65-.35l0,.06a23.05,23.05,0,0,1,7.78,1.53Z"/><path class="cls-1" d="M45.5,75.2V67.77h.19V75.2Z"/><path class="cls-1" d="M45.4,100.39l-.33,5.34-.33,0c.09-1.77.17-3.53.25-5.3Z"/><path class="cls-1" d="M45.15,91.61V85.17h.19v6.44Z"/><path class="cls-1" d="M45.32,92.82V98.9H45.1v-6Z"/><path class="cls-1" d="M45,107.53v5.19h-.16v-5.37Z"/><path class="cls-1" d="M85.78,156.22l-3.07-3.12,0,.05a6,6,0,0,1,3.08,3.11Z"/><path class="cls-1" d="M44.76,118.6v-4.77h.16v4.87Z"/><path class="cls-1" d="M43.85,146H39.28v-.17h4.61Z"/><path class="cls-1" d="M44.76,124.36v-4.21h.12v4.2Z"/><path class="cls-1" d="M45.27,83.68V80.75l.24,0-.15,2.92Z"/><path class="cls-1" d="M45.44,79.37V76.79h.17v2.56Z"/><path class="cls-1" d="M80.34,151.59a3.58,3.58,0,0,1,2.32,1.56l0-.05-2.33-1.56Z"/><path class="cls-1" d="M44.76,128.66V126.4h.09v2.26Z"/><path class="cls-1" d="M76.83,150a2,2,0,0,1-1.91-.82l0,.06,1.91.81Z"/><path class="cls-1" d="M88.45,160.94l.82,1.87,0,0-.82-1.87Z"/><path class="cls-1" d="M88.5,160.9l-.79-1.54,0,0c.74.27.83.87.79,1.54Z"/><path class="cls-1" d="M47.35,32.4l-.46.33a2.82,2.82,0,0,1-.24-.4s.16-.21.22-.2A2.06,2.06,0,0,1,47.35,32.4Z"/><path class="cls-1" d="M89.66,164.39l-.34-1.62,0,0,.35,1.61Z"/><path class="cls-1" d="M47.72,21.5l-.36.31-.21-.25.44-.27Z"/><path class="cls-1" d="M30.7,146l-.7.06V146l.7,0Z"/><path class="cls-1" d="M28,146.29h.74v.09l-.73,0Z"/><path class="cls-1" d="M76.79,150.08l1.2.35,0-.05-1.2-.35Z"/><path class="cls-1" d="M1.86,232.15v.64H1.7v-.64Z"/><path class="cls-1" d="M1.55,233.8l-.11.56H1.3v-.62Z"/><polygon class="cls-1" points="26.05 146.79 25.9 146.74 26.05 146.71 26.05 146.79"/><path class="cls-1" d="M9.74,212.11l.06-.18-.1.14Z"/><path class="cls-1" d="M86.56,157.38l-.36-.79,0,.06.36.77Z"/><polygon class="cls-1" points="15.76 193.8 15.76 193.95 15.7 193.93 15.76 193.8"/><path class="cls-1" d="M87.36,158.52l-.38-.76,0,.05.38.75Z"/><path class="cls-1" d="M87.31,158.56l.35.84,0,0-.35-.84Z"/><polygon class="cls-1" points="44.49 134.81 44.49 134.96 44.43 134.94 44.49 134.81"/><path class="cls-1" d="M7.18,217.68c0-.09,0-.18,0-.27A2.51,2.51,0,0,1,7.18,217.68Z"/><path class="cls-1" d="M5.79,220.63c0,.17,0,.34,0,.15l.06-.1Z"/><path class="cls-1" d="M5.06,222.57c.05-.15.11-.29.07-.18.07-.09,0,0-.12.13Z"/><path class="cls-1" d="M5,222.52c0,.17,0,.33,0,.21l.08-.16Z"/><path class="cls-1" d="M4.5,224l0,.26Z"/><path class="cls-1" d="M3.9,225.68c0-.17.08-.33,0-.17.1-.12,0,0-.09.12Z"/><path class="cls-1" d="M78.79,150.78l-.76-.4,0,.05.76.4Z"/><path class="cls-1" d="M3.85,225.63c0,.17-.05.34,0,.2l.08-.15Z"/><path class="cls-1" d="M3.11,227.61c.06-.18.11-.36.05-.15l-.1.11Z"/><path class="cls-1" d="M3.06,227.57v.15l0-.11Z"/><path class="cls-1" d="M79.57,151.17l-.78-.39,0,.05.78.39Z"/><path class="cls-1" d="M2.12,231l0-.38s.12.08.11.1S2.18,230.83,2.12,231Z"/><path class="cls-1" d="M22.45,148.05l-.72.37,0,0,.74-.36Z"/><path class="cls-1" d="M22.5,148.1l.16-.09-.21,0Z"/><path class="cls-1" d="M2.58,229.38c0,.1,0,.2,0,0Z"/><path class="cls-1" d="M80.38,151.54l-.81-.37,0,.05.81.37Z"/><polygon class="cls-1" points="24.9 147.09 24.89 147.18 24.73 147.13 24.9 147.09"/><path class="cls-1" d="M44.46,146.78l0,.26Z"/><path class="cls-1" d="M23.25,146.47l.05,0Z"/><polygon class="cls-1" points="9.7 212.06 9.66 212.17 9.74 212.11 9.7 212.06"/><path class="cls-1" d="M5.84,220.68l.08-.14-.13.09Z"/><polygon class="cls-1" points="21.73 148.43 21.68 148.54 21.76 148.46 21.73 148.43"/><path class="cls-1" d="M85.74,156.26l.41.39,0-.06-.42-.37Z"/><path class="cls-1" d="M87,157.76l-.42-.38,0,0,.42.39Z"/><path class="cls-1" d="M94.16,279.55l.13.11"/><path class="cls-1" d="M104.73,262.89A4.59,4.59,0,0,1,104,266l0,.05.75-3.13Z"/><path class="cls-1" d="M52.25,202.44v1.09h-.08l-.05-1.08Z"/><path class="cls-1" d="M103.62,267.2l.41-1.14,0-.05-.41,1.14Z"/><path class="cls-1" d="M103.57,267.15c0,.19,0,.38,0,.17-.1.18,0,0,.06-.12Z"/><path class="cls-1" d="M103,268.59l0,.29-.1-.05C103,268.77,103,268.71,103,268.59Z"/><polygon class="cls-1" points="102.71 269.74 102.62 269.78 102.63 269.67 102.71 269.74"/><path class="cls-1" d="M101.35,273l-.16-.06.11.1Z"/><path class="cls-1" d="M100.55,274.17l-.16,0,.12.09Z"/><ellipse class="cls-1" cx="49.88" cy="40.99" rx="0.1" ry="4.96"/><path class="cls-1" d="M54.24,37.14l-.29.78,0,0"/><polygon class="cls-1" points="54.95 40.97 54.91 41.11 54.9 40.96 54.95 40.97"/><path class="cls-1" d="M51.27,4.18l.38-.42-.06,0-.37.43Z"/><path class="cls-1" d="M52.42,7.29l0-.12-.1.08Z"/><path class="cls-1" d="M55.13,7.29l.11-.18-.16.12Z"/><path class="cls-1" d="M61.74,12.72a.84.84,0,0,1,.06-.13l-.11.08Z"/><path class="cls-1" d="M61.71,11.47l-.42.42.05,0,.41-.41Z"/><path class="cls-1" d="M48.76,232.48l-.79-1.8,1.44-.88C50.3,231.35,50.3,231.35,48.76,232.48Z"/><path class="cls-1" d="M52.05,232.75l-1.12-1.09c.84-1.67,1.15-1.7,2.28-.18Zm-.23-1.12-.07.1h.11Z"/><path class="cls-1" d="M44.43,231.3l-1.9.27-.22-1.49,1.41-1Z"/><path class="cls-1" d="M59.41,231.17l-1.2,2c-1.31-.43-1.38-1.1-.87-2.19Z"/><path class="cls-1" d="M54.34,232.34c-.12-.12-.34-.24-.36-.37a6.29,6.29,0,0,1,.09-1.1l1.73-.08v1.58c-.57.33-1,.64-1.48-.06l.09-.08Z"/><path class="cls-1" d="M55,197.78v.91h0v-.91Z"/><path class="cls-1" d="M44.27,176.46v0Z"/><path class="cls-1" d="M56.11,74.64c0,.08,0,.17,0,.26C56.08,74.81,56.1,74.72,56.11,74.64Z"/><path class="cls-1" d="M54,59.22l-.14-.07.09.12Z"/><path class="cls-1" d="M51.11,71.35l.34.31c-.08.07-.2.23-.22.22a3.27,3.27,0,0,1-.35-.3Z"/><path class="cls-1" d="M49.86,121l-.1-.05.15-.1Z"/><path class="cls-1" d="M56.49,94.11V95H56.4v-.84Z"/><path class="cls-1" d="M51.09,103.58l-.18-.27.4-.16c0,.09.12.23.08.27S51.2,103.53,51.09,103.58Z"/><path class="cls-1" d="M51.48,116.62l-.45.17-.12-.33.48-.12Z"/><path class="cls-1" d="M51.1,148.53l-.23.19-.23-.37c.1,0,.22-.12.29-.09S51,148.43,51.1,148.53Z"/><path class="cls-1" d="M50.93,157.24l-.22-.43c.11,0,.3-.13.32-.1a1.9,1.9,0,0,1,.15.42Z"/><path class="cls-1" d="M49.16,10.88l.34,0-.09.14Z"/><path class="cls-1" d="M47.8,10.85l.11-.38.14.06c0,.12,0,.24-.08.37Z"/><polygon class="cls-1" points="49.34 12.27 49.24 12.23 49.3 12.31 49.34 12.27"/><path class="cls-1" d="M59,22.76l-.79-.59c.8-.91,1.42-.36,2,.13l-1.11-.12-.18.63Z"/><path class="cls-1" d="M58.93,22.81l.61.06-.1.22L59,22.76Z"/><path class="cls-1" d="M57.43,33.22l-.41-.5c.69-.31,1.2-.38,1.72.18l-1.35.37Z"/><path class="cls-1" d="M59,34v.46l0-.05-.23-.17L59,34Z"/><path class="cls-1" d="M59,34l.13-.16L59,34Z"/><path class="cls-1" d="M57.39,33.27l.17,0-.13-.08Z"/><path class="cls-1" d="M61.75,11.52l-.41.41-.4-.06.05.06-.14-.84Z"/><path class="cls-1" d="M60.94,11.87c-.07.16-.14.31,0,.08l.08,0Z"/><path class="cls-1" d="M60,11l.1.39-.18,0-.06-.4Z"/><polygon class="cls-1" points="51.82 231.63 51.86 231.74 51.76 231.73 51.82 231.63"/><polygon class="cls-1" points="54.34 232.34 54.41 232.23 54.32 232.31 54.34 232.34"/></g></g></svg>