<svg id="Warstwa_1" data-name="Warstwa 1" xmlns="http://www.w3.org/2000/svg" viewBox="0 0 1694.44 2841.47"><defs><style>.cls-1{fill:#e6c67e;}.cls-2{fill:#baa66c;}.cls-3{fill:#f5d66a;}.cls-4{fill:#deac53;}.cls-5{fill:#b98e4c;}.cls-6{fill:#a8803e;}.cls-7{fill:#f2d549;}.cls-8{fill:none;stroke:#ef8019;stroke-width:4.5px;}.cls-16,.cls-21,.cls-8{stroke-miterlimit:10;}.cls-10,.cls-13,.cls-16,.cls-17,.cls-21,.cls-31,.cls-9{fill:#eaa039;}.cls-10{font-size:47px;font-family:PaneuropaNeueRegular;}.cls-11{letter-spacing:-0.01em;}.cls-12{letter-spacing:0.02em;}.cls-13{font-size:43px;font-family:FuturaPT-Book, FuturaPT Book;}.cls-14{letter-spacing:-0.01em;}.cls-15{letter-spacing:0.02em;}.cls-16,.cls-21{stroke:#eaa039;}.cls-16{stroke-width:1.5px;}.cls-17{font-size:40px;}.cls-17,.cls-24,.cls-31{font-family:FuturaPT-Medium, FuturaPT Medium;font-weight:500;}.cls-18{letter-spacing:-0.01em;}.cls-19{letter-spacing:0.02em;}.cls-20{letter-spacing:0em;}.cls-21{stroke-width:2px;}.cls-22{fill:#ff7900;}.cls-23{fill:#e4c47e;}.cls-24{font-size:114.26px;fill:#ef771b;letter-spacing:-0.01em;}.cls-25{letter-spacing:0.01em;}.cls-26{letter-spacing:-0.01em;}.cls-27{letter-spacing:-0.01em;}.cls-28{letter-spacing:-0.09em;}.cls-29{letter-spacing:-0.02em;}.cls-30{letter-spacing:0.01em;}.cls-31{font-size:81px;letter-spacing:0.01em;}.cls-32{fill:#58b031;}.cls-33{fill:#5cb130;}</style></defs><rect class="cls-1" x="126.89" y="48.7" width="163.03" height="37.67"/><rect class="cls-2" x="127.42" y="149.32" width="159.79" height="30.96"/><rect class="cls-3" x="127.9" width="159.79" height="35.08"/><rect class="cls-4" x="128.13" y="100.64" width="159.79" height="34.39"/><rect class="cls-5" x="327.04" width="139.41" height="35.08"/><rect class="cls-6" x="327.04" y="46.32" width="139.41" height="35.08"/><path class="cls-7" d="M412.59-1088.75" transform="translate(735.93 1799.92)"/><path class="cls-8" d="M365.08-1103" transform="translate(735.93 1799.92)"/><path class="cls-9" d="M222.76-1113.89v-55.81l37.93,44.8v-42.53h4.53v55.12l-37.88-44.88v43.3Z" transform="translate(735.93 1799.92)"/><path class="cls-9" d="M333.36-1140.55a27.33,27.33,0,0,1-2.16,10.77,28,28,0,0,1-6.22,9.09,28.94,28.94,0,0,1-9.34,6.13,29,29,0,0,1-11,2.1,28.86,28.86,0,0,1-11-2.1,28.47,28.47,0,0,1-9.28-6.13,28.42,28.42,0,0,1-6.24-9.12,27.28,27.28,0,0,1-2.14-10.74,27.66,27.66,0,0,1,2.14-10.84,28.16,28.16,0,0,1,6.24-9.16,27.2,27.2,0,0,1,9.18-6,29.83,29.83,0,0,1,11.06-2.05,29.61,29.61,0,0,1,11.1,2.07,27.72,27.72,0,0,1,9.21,6,28.16,28.16,0,0,1,6.24,9.16A27.84,27.84,0,0,1,333.36-1140.55Zm-28.69,23.74a23.33,23.33,0,0,0,9-1.76,23.75,23.75,0,0,0,7.65-5.12,23.86,23.86,0,0,0,5.1-7.73,23.73,23.73,0,0,0,1.78-9.13,23.85,23.85,0,0,0-1.76-9.12,23.9,23.9,0,0,0-5.12-7.74,22.82,22.82,0,0,0-7.6-5.12,23.53,23.53,0,0,0-9.05-1.75,23,23,0,0,0-9,1.75,23.8,23.8,0,0,0-7.61,5.12,24.42,24.42,0,0,0-5.13,7.74,23.7,23.7,0,0,0-1.75,9.12,23.94,23.94,0,0,0,1.75,9.13,23.84,23.84,0,0,0,5.13,7.73,22.85,22.85,0,0,0,7.54,5.14A23.23,23.23,0,0,0,304.67-1116.81Z" transform="translate(735.93 1799.92)"/><path class="cls-9" d="M452.34-1154a22.18,22.18,0,0,0-8-7.64,22,22,0,0,0-10.72-2.6q-9.94,0-16.2,6.73T411.16-1140a24.52,24.52,0,0,0,1.66,9,22.59,22.59,0,0,0,4.85,7.53,21.34,21.34,0,0,0,7.2,4.88,22.82,22.82,0,0,0,8.74,1.63q9,0,14.65-5.3a18.61,18.61,0,0,0,5.8-13.86H435.59v-4.21H459.4v.59q0,12.79-7,20t-19.24,7.24q-12.17,0-19.71-7.75t-7.53-20.34a31.1,31.1,0,0,1,1.9-10.91,26.14,26.14,0,0,1,5.49-9,25.55,25.55,0,0,1,8.75-6.18,28,28,0,0,1,10.88-2.05,30.7,30.7,0,0,1,14,3,20.67,20.67,0,0,1,9,8.65Z" transform="translate(735.93 1799.92)"/><path class="cls-9" d="M469.64-1113.89v-53.54h4.86v53.54Z" transform="translate(735.93 1799.92)"/><path class="cls-9" d="M497.36-1113.89v-49H482.62v-4.57H517v4.57H502.22v49Z" transform="translate(735.93 1799.92)"/><path class="cls-9" d="M512.32-1113.89l23.51-55.66,22.53,55.66h-5.3L546.22-1132H524.35l-7.1,18.14ZM526-1136.2h18.66l-9.15-23.29Z" transform="translate(735.93 1799.92)"/><path class="cls-9" d="M596.87-1113.89H591l-18.8-25.52h-2.93v25.52h-4.86v-53.54h9.83q8.71,0,13,3.62t4.34,11q0,6.25-3.71,9.84t-10.23,3.59Zm-27.65-49.3v19.79h4.9q6.81,0,9.49-2.18t2.69-7.4c0-3.68-.93-6.31-2.78-7.87s-5-2.34-9.4-2.34Z" transform="translate(735.93 1799.92)"/><path class="cls-9" d="M600.31-1113.89l23.52-55.66,22.52,55.66h-5.3L634.21-1132H612.34l-7.09,18.14ZM614-1136.2h18.65l-9.14-23.29Z" transform="translate(735.93 1799.92)"/><path class="cls-1" d="M381.92-1011c-2.24-2.36-4.42-7.47-2.48-9.46s4-.21,4.82,2.12c2-1.43,4.83-1.54,5.24,1.11S385.12-1011.63,381.92-1011Z" transform="translate(735.93 1799.92)"/><circle class="cls-9" cx="1101.03" cy="638" r="3.03"/><rect class="cls-9" x="1098.8" y="647.63" width="4.47" height="38.54"/><path class="cls-1" d="M378.61-1242.62c11.22.29,18.05,8.31,18.4,17.18.4,10-7.47,12-7.24,16.23.17,3,5,6.14.81,13.6a12.21,12.21,0,0,1-9.71,6.09l0,80.52s17.64,5.21,19.12,22.47c.75,12.17-7,12.59-5.43,20.23s18.45,13.77,15.73,38.9c-4,22.31-24.08,31.41-38,31.41-20.38,0-38.74-12.53-38.73-36.87l4.53.1c1.45,25.92,21.3,32,34,32.18,11.33.2,29.13-7.19,33.59-26.72,4.92-21.6-13.31-28.55-15.58-37.78-1.45-8.78,5.88-11.07,5.2-20.76-.84-16.64-18.77-19.32-18.77-19.32l-.12-89s6.67,1.78,9.76-3.14-.23-7.05-.91-12c.63-9,8.33-7,7.13-16.77-1.47-11.9-13.8-12-13.8-12Z" transform="translate(735.93 1799.92)"/><path class="cls-1" d="M367.41-1045.49a11.35,11.35,0,0,1-2.35.24,11.37,11.37,0,0,1-11.37-11.38A11.37,11.37,0,0,1,365.06-1068a11.35,11.35,0,0,1,2.35.24v-36.41h-4.66v31.54A16,16,0,0,0,349-1056.76a16,16,0,0,0,16,16,16.39,16.39,0,0,0,2.33-.19Z" transform="translate(735.93 1799.92)"/><path class="cls-1" d="M227.64-967.76H210v-2.14h21.76l-20.11,29.78h19.77V-938h-23.9Zm-6-9.33a2,2,0,0,1-2,2,1.93,1.93,0,0,1-1.94-2,1.92,1.92,0,0,1,1.94-1.94A2,2,0,0,1,221.62-977.09Z" transform="translate(735.93 1799.92)"/><path class="cls-1" d="M248-957.41h2.33l-11.27,28.76h-2.43l3.93-9.91-7.38-18.85h2.38l6.17,15.93Z" transform="translate(735.93 1799.92)"/><path class="cls-1" d="M257.13-964.94a2,2,0,0,1-2,1.94,2,2,0,0,1-1.95-1.94,2,2,0,0,1,1.95-1.95A2,2,0,0,1,257.13-964.94Zm-.83,36.34H254v-28.81h2.28Z" transform="translate(735.93 1799.92)"/><path class="cls-1" d="M273.16-957.36h2.23v3.3a9.16,9.16,0,0,1,7.19-3.64c5.49.19,9.53,5.15,9.48,10.64s-3.94,10.44-9.43,10.54a9.5,9.5,0,0,1-7.24-3.69v11.66h-2.23Zm16.66,10.3c.05-4.23-2.91-8.21-7.19-8.26-4.42.14-7.24,4.22-7.24,8.26.15,4.66,2.34,8.31,7.24,8.31C286.91-938.85,289.87-942.79,289.82-947.06Z" transform="translate(735.93 1799.92)"/><path class="cls-1" d="M311.63-954.25l-.09-3.11h2.23V-938h-2.23l.09-3.15a8.8,8.8,0,0,1-7.33,4c-5.49-.1-9.57-5.05-9.47-10.54-.1-5.49,4-10.45,9.47-10.55C307.07-958.09,310.37-956.73,311.63-954.25ZM304.3-956c-4.33.09-7.29,4-7.24,8.31s2.91,8.21,7.24,8.3,7.33-3.93,7.24-8.3a9.13,9.13,0,0,0-2.09-6.08A6.94,6.94,0,0,0,304.3-956Z" transform="translate(735.93 1799.92)"/><path class="cls-1" d="M320.52-953c0,2.67,2.14,3.3,5,3.84,3.06.53,6.51,1.75,6.51,6.22,0,2.57-2.29,5.83-7.29,5.83-3.74,0-6.66-2.33-7.19-5.2l1.75-.87a6,6,0,0,0,5.88,4c1.26,0,3.54-.83,4.27-2.53a4.75,4.75,0,0,0,.05-3c-.53-1.36-2.14-2-4.42-2.48-3-.68-6.61-1.94-6.61-5.88,0-2.87,2.19-5.1,6-5.1a7,7,0,0,1,6,3.11l-1.55,1.31c-1.07-1.31-2.43-2.57-4.23-2.57C322.13-956.29,320.52-954.74,320.52-953Z" transform="translate(735.93 1799.92)"/><path class="cls-1" d="M340.05-964.94a2,2,0,0,1-2,1.94,1.94,1.94,0,0,1-1.94-1.94,2,2,0,0,1,1.94-1.95A2,2,0,0,1,340.05-964.94Zm-.82,36.34h-2.29v-28.81h2.29Z" transform="translate(735.93 1799.92)"/><path class="cls-1" d="M360.46-954.59v-2.92h2.23v19.39c-1.8,1.5-2.72,2.91-2.72,4.27a2.06,2.06,0,0,0,.87,1.7,3.42,3.42,0,0,0,2.39.73c.43,0,.92-.05,1.55-.1l-.24,1.85a7.71,7.71,0,0,1-1.9.19,5.39,5.39,0,0,1-3.74-1.16,3.63,3.63,0,0,1-1.31-2.82,6.14,6.14,0,0,1,2.87-4.91V-941a9.32,9.32,0,0,1-7.24,3.74c-5.49-.09-9.57-5-9.48-10.54-.09-5.49,4-10.45,9.48-10.49A9.08,9.08,0,0,1,360.46-954.59Zm-7.24-1.51c-4.33.05-7.29,4-7.24,8.26s2.91,8.21,7.24,8.31,7.33-3.94,7.24-8.31a9.07,9.07,0,0,0-2.09-6A6.91,6.91,0,0,0,353.22-956.1Z" transform="translate(735.93 1799.92)"/><path class="cls-1" d="M370.66-939.44v.25a17.06,17.06,0,0,1-2,5.29l-1.41-.73a8.06,8.06,0,0,0,1.7-2.86h-.2a2,2,0,0,1-1.94-2,2,2,0,0,1,1.94-1.94A2,2,0,0,1,370.66-939.44Z" transform="translate(735.93 1799.92)"/><path class="cls-1" d="M404-947.69c.1,6-3.54,10.49-9.57,10.49s-9.52-4.57-9.47-10.49c.09-5.59,3.74-10.5,9.42-10.5S404.13-953.67,404-947.69Zm-16.81,0c0,4.66,2.48,8.21,7.24,8.25s7.39-3.44,7.34-8.25-2.82-8.17-7.39-8.26C389.8-955.81,387.22-951.87,387.22-947.69Z" transform="translate(735.93 1799.92)"/><path class="cls-1" d="M426.09-947.69V-938h-2.24v-2.67a9.84,9.84,0,0,1-7.24,3.65c-5.49-.2-9.52-5.15-9.47-10.64s3.89-10.45,9.47-10.55a9.53,9.53,0,0,1,6.9,3.31,3.19,3.19,0,0,0,.34.43v-18.65h2.24Zm-16.72,0c0,4.32,2.92,8.21,7.24,8.3,4.28-.14,7.29-4,7.24-8.3.29-4.47-2.72-8.46-7.24-8.31C412.29-955.91,409.33-952,409.37-947.69Z" transform="translate(735.93 1799.92)"/><path class="cls-1" d="M433.42-948.81l-.24-.2v11h-2.24v-35.12h2.24v22.88l.34-.24,9.08-6.9h3.7l-10.4,7.92L447.56-938h-3.21Z" transform="translate(735.93 1799.92)"/><path class="cls-1" d="M452.61-954.45c1.36-3.25,7.29-4,9.13-.58l-1.21,1.6c-2.33-4.32-7.63-1.26-7.92,3.5V-938h-2.23v-19.38h2.23Z" transform="translate(735.93 1799.92)"/><path class="cls-1" d="M477.29-957.41h2.33l-11.27,28.76h-2.43l3.94-9.91-7.39-18.85h2.38L471-941.48Z" transform="translate(735.93 1799.92)"/><path class="cls-1" d="M486.42-964.94a2,2,0,0,1-2,1.94,1.94,1.94,0,0,1-1.94-1.94,2,2,0,0,1,1.94-1.95A2,2,0,0,1,486.42-964.94Zm-.83,36.34h-2.28v-28.81h2.28Z" transform="translate(735.93 1799.92)"/><path class="cls-1" d="M504.69-954.35a7.2,7.2,0,0,1,6.36-3.84,5.91,5.91,0,0,1,6,3.84,8.06,8.06,0,0,1,6.8-3.89c4.18,0,6.46,2,6.46,7.39V-938h-2.24v-12.82c0-3.31-1.21-5.3-4.27-5.3-3.64,0-5.39,2.87-6.17,5.3V-938h-2.24v-12.82c0-4.13-1.89-5.4-4.56-5.4-3.16,0-5.35,3.07-6.12,6.13V-938h-2.24v-19.38h2.24Z" transform="translate(735.93 1799.92)"/><path class="cls-1" d="M537.38-944.54c0,3.31,3.21,5.35,5.78,5.35s5.83-2,5.83-5.35v-12.87h2.24v12.87c0,3.84-3.36,7.34-8.07,7.34s-8-3.5-8-7.34v-12.87h2.24Z" transform="translate(735.93 1799.92)"/><path class="cls-1" d="M571.68-940.26V-938H554.24l13.6-17.15h-11v-2.23h15.6l-13.61,17.15Z" transform="translate(735.93 1799.92)"/><path class="cls-1" d="M588.34-957.41h2.33L579.4-928.65H577l3.94-9.91-7.39-18.85h2.38l6.17,15.93Z" transform="translate(735.93 1799.92)"/><path class="cls-1" d="M596-948.81l-.24-.2v11h-2.23v-35.12h2.23v22.88l.34-.24,9.09-6.9h3.69l-10.4,7.92L610.15-938H607Z" transform="translate(735.93 1799.92)"/><path class="cls-1" d="M622.39-939.34a8,8,0,0,0,6-2.67l2,1.26c-2,2-5.63,4.23-5.63,6.9a2.3,2.3,0,0,0,.87,1.75,2.92,2.92,0,0,0,2.28.78c.49,0,.93-.1,1.61-.1l-.2,1.8a9.19,9.19,0,0,1-1.94.24,5.68,5.68,0,0,1-3.79-1.12,4.05,4.05,0,0,1-1.26-2.91,6.27,6.27,0,0,1,1.74-4,10.18,10.18,0,0,1-11.85-10.45c-.1-5.39,4-10.45,9.52-10.54,5,0,9.09,4.37,9.43,9.37v.25H614.47A8.07,8.07,0,0,0,622.39-939.34Zm-.68-16.76a7.32,7.32,0,0,0-6.65,5.05h13.31A7.24,7.24,0,0,0,621.71-956.1Z" transform="translate(735.93 1799.92)"/><text class="cls-10" transform="translate(940.61 962.6)">Zajęcia</text><text class="cls-10" transform="translate(940.61 1025.2)"><tspan class="cls-11">L</tspan><tspan x="21.53" y="0">o</tspan><tspan class="cls-12" x="47.33" y="0">k</tspan><tspan x="70.22" y="0">alizacja</tspan></text><text class="cls-10" transform="translate(940.61 1081.6)">O mnie</text><text class="cls-13" transform="translate(1224.83 959.76)">Zajęcia</text><text class="cls-13" transform="translate(1224.83 1022.36)"><tspan class="cls-14">L</tspan><tspan x="19.69" y="0">o</tspan><tspan class="cls-15" x="43.3" y="0">k</tspan><tspan x="64.24" y="0">alizacja</tspan></text><text class="cls-13" transform="translate(1231.91 1050.56)">O mnie</text><path class="cls-16" d="M-647.21,246.78V191l37.93,44.81V193.24h4.53v55.12l-37.88-44.88v43.3Z" transform="translate(735.93 1799.92)"/><path class="cls-16" d="M-536.61,220.12a27.33,27.33,0,0,1-2.16,10.77A28,28,0,0,1-545,240a29,29,0,0,1-9.33,6.13,29.07,29.07,0,0,1-11,2.1,28.86,28.86,0,0,1-11-2.1,28.47,28.47,0,0,1-9.28-6.13,28.42,28.42,0,0,1-6.24-9.12,27.28,27.28,0,0,1-2.14-10.74,27.66,27.66,0,0,1,2.14-10.84,28.16,28.16,0,0,1,6.24-9.16,27.2,27.2,0,0,1,9.18-6,29.82,29.82,0,0,1,11.06-2,29.6,29.6,0,0,1,11.1,2.06,27.62,27.62,0,0,1,9.21,6,28.16,28.16,0,0,1,6.24,9.16A27.84,27.84,0,0,1-536.61,220.12Zm-28.69,23.74a23.33,23.33,0,0,0,9-1.76,23.59,23.59,0,0,0,7.65-5.12,24.05,24.05,0,0,0,5.11-7.73,23.91,23.91,0,0,0,1.77-9.13,23.67,23.67,0,0,0-1.76-9.12,23.9,23.9,0,0,0-5.12-7.74,22.88,22.88,0,0,0-7.59-5.12,23.62,23.62,0,0,0-9.06-1.75,23,23,0,0,0-9,1.75,23.8,23.8,0,0,0-7.61,5.12A24.42,24.42,0,0,0-587,211a23.7,23.7,0,0,0-1.75,9.12,23.94,23.94,0,0,0,1.75,9.13,23.84,23.84,0,0,0,5.13,7.73,22.85,22.85,0,0,0,7.54,5.14A23.23,23.23,0,0,0-565.3,243.86Z" transform="translate(735.93 1799.92)"/><path class="cls-16" d="M-419.63,206.7a22.18,22.18,0,0,0-8-7.64,22,22,0,0,0-10.72-2.6q-9.94,0-16.2,6.73t-6.25,17.44a24.52,24.52,0,0,0,1.66,9,22.59,22.59,0,0,0,4.85,7.53,21.44,21.44,0,0,0,7.2,4.88,22.82,22.82,0,0,0,8.74,1.63q9,0,14.65-5.3a18.61,18.61,0,0,0,5.8-13.86h-18.47v-4.21h23.81v.59q0,12.8-7,20t-19.24,7.24q-12.17,0-19.71-7.75T-466,220.12a31.1,31.1,0,0,1,1.9-10.91,26.14,26.14,0,0,1,5.49-9,25.49,25.49,0,0,1,8.76-6.18A27.94,27.94,0,0,1-439,192,30.68,30.68,0,0,1-425,195a20.67,20.67,0,0,1,9,8.65Z" transform="translate(735.93 1799.92)"/><path class="cls-16" d="M-402.33,246.78V193.24h4.86v53.54Z" transform="translate(735.93 1799.92)"/><path class="cls-16" d="M-374.61,246.78v-49h-14.74v-4.57H-355v4.57h-14.78v49Z" transform="translate(735.93 1799.92)"/><path class="cls-16" d="M-359.65,246.78l23.51-55.66,22.53,55.66h-5.3l-6.84-18.14h-21.87l-7.1,18.14ZM-346,224.47h18.66l-9.15-23.29Z" transform="translate(735.93 1799.92)"/><path class="cls-16" d="M-275.1,246.78H-281l-18.8-25.52h-2.93v25.52h-4.86V193.24h9.84q8.7,0,13,3.62t4.34,11q0,6.25-3.71,9.84t-10.23,3.59Zm-27.65-49.3v19.79h4.9q6.81,0,9.49-2.18t2.69-7.4q0-5.52-2.78-7.87c-1.85-1.55-5-2.34-9.4-2.34Z" transform="translate(735.93 1799.92)"/><path class="cls-16" d="M-271.66,246.78l23.52-55.66,22.52,55.66h-5.3l-6.84-18.14h-21.87l-7.09,18.14ZM-258,224.47h18.65l-9.14-23.29Z" transform="translate(735.93 1799.92)"/><path class="cls-1" d="M-485.7,356.64c-2.25-2.36-4.43-7.47-2.48-9.46s4-.21,4.81,2.13c2-1.44,4.84-1.55,5.25,1.1S-482.51,356-485.7,356.64Z" transform="translate(735.93 1799.92)"/><path class="cls-1" d="M-489,125c11.22.29,18,8.31,18.41,17.18.4,10-7.47,12-7.24,16.23.16,3,5,6.14.81,13.6a12.21,12.21,0,0,1-9.71,6.09l0,80.52s17.64,5.21,19.13,22.47c.75,12.17-7,12.59-5.43,20.23s18.45,13.77,15.73,38.9c-4,22.31-24.09,31.41-38,31.41-20.38,0-38.75-12.53-38.73-36.87l4.52.1c1.46,25.92,21.31,32,34,32.18,11.33.2,29.13-7.19,33.58-26.72,4.93-21.6-13.3-28.55-15.57-37.78-1.45-8.78,5.88-11.07,5.19-20.76-.84-16.64-18.77-19.31-18.77-19.31l-.11-89s6.67,1.77,9.76-3.15-.23-7-.92-12c.63-9,8.33-7,7.13-16.77-1.47-11.9-13.8-12-13.8-12Z" transform="translate(735.93 1799.92)"/><path class="cls-1" d="M-500.22,322.17a11.26,11.26,0,0,1-2.34.24A11.38,11.38,0,0,1-513.94,311a11.38,11.38,0,0,1,11.38-11.37,11.26,11.26,0,0,1,2.34.24V263.49h-4.65V295a16,16,0,0,0-13.71,15.87,16,16,0,0,0,16,16,16.14,16.14,0,0,0,2.32-.19Z" transform="translate(735.93 1799.92)"/><path class="cls-1" d="M-640.36,397.94H-658V395.8h21.76l-20.11,29.78h19.77v2.14h-23.9Zm-6-9.33a1.94,1.94,0,0,1-1.94,1.94,1.92,1.92,0,0,1-1.95-1.94,1.93,1.93,0,0,1,1.95-1.95A2,2,0,0,1-646.38,388.61Z" transform="translate(735.93 1799.92)"/><path class="cls-1" d="M-620,408.28h2.33l-11.27,28.77h-2.43l3.94-9.92-7.39-18.85h2.38l6.17,15.94Z" transform="translate(735.93 1799.92)"/><path class="cls-1" d="M-610.87,400.75a2,2,0,0,1-2,1.95,2,2,0,0,1-1.94-1.95,2,2,0,0,1,1.94-1.94A2,2,0,0,1-610.87,400.75Zm-.83,36.34H-614V408.28h2.28Z" transform="translate(735.93 1799.92)"/><path class="cls-1" d="M-594.84,408.33h2.24v3.31a9.12,9.12,0,0,1,7.19-3.65c5.49.2,9.52,5.15,9.47,10.64s-3.93,10.45-9.42,10.55c-2.92-.2-5.79-1.51-7.24-3.7v11.66h-2.24Zm16.67,10.3c0-4.22-2.92-8.21-7.19-8.26-4.43.15-7.24,4.23-7.24,8.26.14,4.67,2.33,8.31,7.24,8.31C-581.09,426.84-578.13,422.91-578.17,418.63Z" transform="translate(735.93 1799.92)"/><path class="cls-1" d="M-556.36,411.44l-.1-3.11h2.24v19.34h-2.24l.1-3.16a8.79,8.79,0,0,1-7.34,4c-5.49-.09-9.57-5.05-9.47-10.54-.1-5.49,4-10.44,9.47-10.54C-560.93,407.6-557.63,409-556.36,411.44Zm-7.34-1.75c-4.32.1-7.29,4-7.24,8.31s2.92,8.21,7.24,8.31,7.34-3.94,7.24-8.31a9.11,9.11,0,0,0-2.09-6.07A6.91,6.91,0,0,0-563.7,409.69Z" transform="translate(735.93 1799.92)"/><path class="cls-1" d="M-547.47,412.66c0,2.67,2.13,3.3,5,3.84,3.06.53,6.51,1.74,6.51,6.21,0,2.58-2.28,5.83-7.29,5.83-3.74,0-6.65-2.33-7.19-5.19l1.75-.88a6,6,0,0,0,5.88,4c1.26,0,3.55-.82,4.27-2.52a4.64,4.64,0,0,0,0-3c-.53-1.36-2.13-1.94-4.42-2.47-3-.68-6.6-2-6.6-5.88,0-2.87,2.18-5.1,6-5.1a7.09,7.09,0,0,1,6,3.1l-1.56,1.32c-1.07-1.32-2.43-2.58-4.23-2.58C-545.87,409.4-547.47,411-547.47,412.66Z" transform="translate(735.93 1799.92)"/><path class="cls-1" d="M-527.95,400.75a2,2,0,0,1-2,1.95,2,2,0,0,1-1.94-1.95,2,2,0,0,1,1.94-1.94A2,2,0,0,1-527.95,400.75Zm-.82,36.34h-2.29V408.28h2.29Z" transform="translate(735.93 1799.92)"/><path class="cls-1" d="M-507.54,411.1v-2.91h2.23v19.38c-1.79,1.51-2.72,2.92-2.72,4.28a2,2,0,0,0,.88,1.7,3.42,3.42,0,0,0,2.38.73c.43,0,.92,0,1.55-.1l-.24,1.85a8.16,8.16,0,0,1-1.9.19,5.39,5.39,0,0,1-3.74-1.17,3.61,3.61,0,0,1-1.31-2.81,6.14,6.14,0,0,1,2.87-4.91v-2.67a9.34,9.34,0,0,1-7.24,3.74c-5.49-.1-9.57-5-9.47-10.54-.1-5.49,4-10.45,9.47-10.5A9.14,9.14,0,0,1-507.54,411.1Zm-7.24-1.5c-4.32,0-7.29,4-7.24,8.26s2.92,8.21,7.24,8.3,7.34-3.93,7.24-8.3a9.09,9.09,0,0,0-2.09-6A6.9,6.9,0,0,0-514.78,409.6Z" transform="translate(735.93 1799.92)"/><path class="cls-1" d="M-497.34,426.26v.24a17.21,17.21,0,0,1-2,5.3l-1.41-.73a8.19,8.19,0,0,0,1.7-2.87h-.19a2,2,0,0,1-2-1.94,2,2,0,0,1,2-1.94A2,2,0,0,1-497.34,426.26Z" transform="translate(735.93 1799.92)"/><path class="cls-1" d="M-464,418c.1,6-3.54,10.49-9.57,10.49s-9.52-4.56-9.47-10.49c.1-5.59,3.74-10.49,9.42-10.49S-463.87,412-464,418Zm-16.81,0c0,4.67,2.48,8.21,7.24,8.26s7.39-3.45,7.34-8.26-2.82-8.16-7.39-8.26C-478.2,409.89-480.78,413.82-480.78,418Z" transform="translate(735.93 1799.92)"/><path class="cls-1" d="M-441.91,418v9.67h-2.24V425a9.86,9.86,0,0,1-7.23,3.64c-5.49-.19-9.53-5.15-9.48-10.64s3.89-10.44,9.48-10.54a9.53,9.53,0,0,1,6.89,3.3,3.26,3.26,0,0,0,.34.44V392.54h2.24Zm-16.71,0c-.05,4.33,2.91,8.21,7.24,8.31,4.27-.15,7.28-4,7.23-8.31.3-4.47-2.72-8.45-7.23-8.31C-455.71,409.79-458.67,413.68-458.62,418Z" transform="translate(735.93 1799.92)"/><path class="cls-1" d="M-434.58,416.88l-.24-.19v11H-437V392.54h2.23v22.89l.34-.25,9.09-6.9h3.69l-10.4,7.92,11.66,11.47h-3.21Z" transform="translate(735.93 1799.92)"/><path class="cls-1" d="M-415.39,411.25c1.36-3.26,7.29-4,9.14-.59l-1.22,1.61c-2.33-4.33-7.63-1.27-7.92,3.5v11.9h-2.23V408.28h2.23Z" transform="translate(735.93 1799.92)"/><path class="cls-1" d="M-390.71,408.28h2.33l-11.27,28.77h-2.43l3.94-9.92-7.39-18.85h2.38l6.17,15.94Z" transform="translate(735.93 1799.92)"/><path class="cls-1" d="M-381.58,400.75a2,2,0,0,1-2,1.95,2,2,0,0,1-1.94-1.95,2,2,0,0,1,1.94-1.94A2,2,0,0,1-381.58,400.75Zm-.82,36.34h-2.29V408.28h2.29Z" transform="translate(735.93 1799.92)"/><path class="cls-1" d="M-363.31,411.34a7.21,7.21,0,0,1,6.36-3.83c2.72,0,5,1.16,6,3.83a8.07,8.07,0,0,1,6.8-3.88c4.18,0,6.46,2,6.46,7.38v12.83h-2.23V414.84c0-3.3-1.22-5.29-4.28-5.29-3.64,0-5.39,2.86-6.17,5.29v12.83h-2.23V414.84c0-4.13-1.9-5.39-4.57-5.39-3.16,0-5.35,3.06-6.12,6.12v12.1h-2.24V408.28h2.24Z" transform="translate(735.93 1799.92)"/><path class="cls-1" d="M-330.62,421.16c0,3.3,3.21,5.34,5.78,5.34s5.83-2,5.83-5.34V408.28h2.24v12.88c0,3.84-3.35,7.33-8.07,7.33s-8-3.49-8-7.33V408.28h2.23Z" transform="translate(735.93 1799.92)"/><path class="cls-1" d="M-296.32,425.43v2.24h-17.44l13.6-17.15h-11v-2.24h15.6l-13.61,17.15Z" transform="translate(735.93 1799.92)"/><path class="cls-1" d="M-279.66,408.28h2.33l-11.27,28.77H-291l3.94-9.92-7.39-18.85h2.38l6.18,15.94Z" transform="translate(735.93 1799.92)"/><path class="cls-1" d="M-272,416.88l-.25-.19v11h-2.23V392.54h2.23v22.89l.34-.25,9.09-6.9h3.69l-10.4,7.92,11.66,11.47H-261Z" transform="translate(735.93 1799.92)"/><path class="cls-1" d="M-245.6,426.36a8,8,0,0,0,6-2.67l2,1.26c-2,2-5.63,4.23-5.63,6.9a2.3,2.3,0,0,0,.87,1.75,2.92,2.92,0,0,0,2.29.77c.48,0,.92-.09,1.6-.09l-.2,1.79a8.6,8.6,0,0,1-1.94.25,5.68,5.68,0,0,1-3.79-1.12,4.13,4.13,0,0,1-1.26-2.91,6.3,6.3,0,0,1,1.75-4,10.17,10.17,0,0,1-11.86-10.44c-.09-5.4,4-10.45,9.53-10.55,4.95,0,9.08,4.37,9.42,9.38v.24h-16.66C-254.2,423-249.78,426.26-245.6,426.36Zm-.68-16.76a7.33,7.33,0,0,0-6.66,5h13.31A7.22,7.22,0,0,0-246.28,409.6Z" transform="translate(735.93 1799.92)"/><text class="cls-17" transform="translate(69.94 2316.94)">Zajęcia</text><text class="cls-17" transform="translate(69.94 2379.54)"><tspan class="cls-18">L</tspan><tspan x="18.32" y="0">o</tspan><tspan class="cls-19" x="40.28" y="0">k</tspan><tspan class="cls-20" x="59.76" y="0">alizacja</tspan></text><text class="cls-17" transform="translate(69.94 2435.94)">O mnie</text><path class="cls-16" d="M227.21-477.48v-55.81l37.92,44.8V-531h4.54v55.11l-37.89-44.87v43.3Z" transform="translate(735.93 1799.92)"/><path class="cls-16" d="M337.8-504.14a27.33,27.33,0,0,1-2.16,10.77,27.71,27.71,0,0,1-6.22,9.08,28.68,28.68,0,0,1-9.33,6.13,29.07,29.07,0,0,1-11,2.1,28.86,28.86,0,0,1-11-2.1,28.26,28.26,0,0,1-9.28-6.13,28.21,28.21,0,0,1-6.24-9.12,27.23,27.23,0,0,1-2.14-10.73A27.71,27.71,0,0,1,282.63-515a28.26,28.26,0,0,1,6.24-9.16,27.16,27.16,0,0,1,9.19-6,29.57,29.57,0,0,1,11.05-2.05,29.89,29.89,0,0,1,11.11,2.06,27.73,27.73,0,0,1,9.2,6,28.26,28.26,0,0,1,6.24,9.16A27.71,27.71,0,0,1,337.8-504.14Zm-28.69,23.73a23.32,23.32,0,0,0,9-1.75,23.91,23.91,0,0,0,7.65-5.12,24.1,24.1,0,0,0,5.11-7.74,23.89,23.89,0,0,0,1.77-9.12,23.94,23.94,0,0,0-1.75-9.13,24,24,0,0,0-5.13-7.73,22.73,22.73,0,0,0-7.59-5.12,23.63,23.63,0,0,0-9.06-1.76,23.1,23.1,0,0,0-9,1.76,23.75,23.75,0,0,0-7.61,5.12,24.44,24.44,0,0,0-5.13,7.73,23.72,23.72,0,0,0-1.75,9.13A23.88,23.88,0,0,0,287.4-495a24,24,0,0,0,5.13,7.74,22.92,22.92,0,0,0,7.54,5.13A23.23,23.23,0,0,0,309.11-480.41Z" transform="translate(735.93 1799.92)"/><path class="cls-16" d="M454.78-517.57a22.18,22.18,0,0,0-8-7.64,22,22,0,0,0-10.71-2.6q-10,0-16.21,6.73t-6.25,17.45a24.5,24.5,0,0,0,1.66,9,22.59,22.59,0,0,0,4.85,7.53,21.57,21.57,0,0,0,7.2,4.89,23.06,23.06,0,0,0,8.75,1.62q9,0,14.64-5.3t5.8-13.86H438v-4.2h23.81v.58q0,12.79-7,20t-19.23,7.24q-12.18,0-19.72-7.75t-7.53-20.33a31.11,31.11,0,0,1,1.9-10.92,26,26,0,0,1,5.49-8.94,25.22,25.22,0,0,1,8.76-6.18,27.76,27.76,0,0,1,10.88-2.05,30.68,30.68,0,0,1,14,2.94,20.78,20.78,0,0,1,9,8.65Z" transform="translate(735.93 1799.92)"/><path class="cls-16" d="M472.08-477.48V-531h4.86v53.54Z" transform="translate(735.93 1799.92)"/><path class="cls-16" d="M499.8-477.48v-49H485.06V-531h34.38v4.57H504.66v49Z" transform="translate(735.93 1799.92)"/><path class="cls-16" d="M514.76-477.48l23.52-55.67,22.52,55.67h-5.3l-6.84-18.14H526.79l-7.09,18.14Zm13.68-22.31h18.65L538-523.09Z" transform="translate(735.93 1799.92)"/><path class="cls-16" d="M599.31-477.48h-5.92L574.59-503h-2.93v25.53H566.8V-531h9.84q8.7,0,13,3.62t4.33,11q0,6.25-3.71,9.84T580.08-503Zm-27.65-49.3V-507h4.91q6.79,0,9.49-2.17t2.68-7.41c0-3.68-.92-6.3-2.78-7.86s-5-2.34-9.39-2.34Z" transform="translate(735.93 1799.92)"/><path class="cls-16" d="M602.75-477.48l23.52-55.67,22.53,55.67h-5.31l-6.84-18.14H614.78l-7.09,18.14Zm13.68-22.31h18.65l-9.14-23.3Z" transform="translate(735.93 1799.92)"/><circle class="cls-21" cx="1106.47" cy="1275.41" r="3.03"/><rect class="cls-21" x="1104.24" y="1285.16" width="4.47" height="39.41"/><path class="cls-1" d="M386.71-367.63c-2.25-2.36-4.42-7.47-2.48-9.46s4-.21,4.82,2.13c2-1.44,4.83-1.54,5.24,1.1S389.91-368.24,386.71-367.63Z" transform="translate(735.93 1799.92)"/><path class="cls-1" d="M383.4-599.22c11.22.28,18.05,8.3,18.4,17.17.4,10-7.47,12-7.24,16.23.16,3,5,6.15.81,13.6a12.21,12.21,0,0,1-9.71,6.09l0,80.52s17.63,5.21,19.12,22.47c.75,12.18-7,12.6-5.43,20.23s18.45,13.77,15.73,38.91c-4,22.31-24.09,31.4-38,31.4-20.38,0-38.74-12.53-38.73-36.87l4.53.11c1.45,25.91,21.3,31.94,34,32.17,11.33.21,29.13-7.19,33.58-26.71,4.93-21.61-13.3-28.55-15.57-37.79-1.45-8.78,5.88-11.07,5.19-20.76-.84-16.64-18.76-19.31-18.76-19.31l-.12-89s6.67,1.77,9.76-3.15-.23-7-.91-12c.63-9,8.33-7.05,7.12-16.78-1.47-11.9-13.79-12-13.79-12Z" transform="translate(735.93 1799.92)"/><path class="cls-1" d="M372.19-402.1a11.19,11.19,0,0,1-2.34.25,11.38,11.38,0,0,1-11.37-11.38,11.37,11.37,0,0,1,11.37-11.38,11.9,11.9,0,0,1,2.34.24v-36.4h-4.65v31.53a16,16,0,0,0-13.71,15.87,16,16,0,0,0,16,16,14.82,14.82,0,0,0,2.32-.19Z" transform="translate(735.93 1799.92)"/><path class="cls-1" d="M234.06-326.33H216.42v-2.14h21.77l-20.12,29.78h19.78v2.14H213.94Zm-6-9.33a1.94,1.94,0,0,1-1.94,1.94,1.91,1.91,0,0,1-1.94-1.94,1.91,1.91,0,0,1,1.94-1.94A1.94,1.94,0,0,1,228-335.66Z" transform="translate(735.93 1799.92)"/><path class="cls-1" d="M254.41-316h2.33l-11.27,28.76H243l3.94-9.91L239.59-316H242L248.14-300Z" transform="translate(735.93 1799.92)"/><path class="cls-1" d="M263.54-323.51a2,2,0,0,1-2,1.94,1.94,1.94,0,0,1-1.94-1.94,2,2,0,0,1,1.94-1.95A2,2,0,0,1,263.54-323.51Zm-.82,36.34h-2.29V-316h2.29Z" transform="translate(735.93 1799.92)"/><path class="cls-1" d="M279.57-315.93h2.24v3.3a9.11,9.11,0,0,1,7.19-3.64c5.49.19,9.52,5.15,9.47,10.64s-3.93,10.44-9.42,10.54a9.51,9.51,0,0,1-7.24-3.69v11.66h-2.24Zm16.67,10.3c.05-4.23-2.92-8.22-7.19-8.26-4.42.14-7.24,4.22-7.24,8.26.14,4.66,2.33,8.3,7.24,8.3C293.32-297.42,296.29-301.36,296.24-305.63Z" transform="translate(735.93 1799.92)"/><path class="cls-1" d="M318.05-312.82l-.1-3.11h2.24v19.33H318l.1-3.16a8.8,8.8,0,0,1-7.34,4c-5.49-.1-9.57-5.06-9.47-10.55-.1-5.49,4-10.44,9.47-10.54C313.48-316.66,316.79-315.3,318.05-312.82Zm-7.34-1.75c-4.32.09-7.28,4-7.24,8.3s2.92,8.21,7.24,8.31,7.34-3.93,7.24-8.31a9.13,9.13,0,0,0-2.09-6.07A6.88,6.88,0,0,0,310.71-314.57Z" transform="translate(735.93 1799.92)"/><path class="cls-1" d="M326.94-311.61c0,2.67,2.14,3.3,5,3.84,3.06.53,6.51,1.75,6.51,6.22,0,2.57-2.28,5.83-7.29,5.83-3.74,0-6.65-2.34-7.19-5.2l1.75-.88a6,6,0,0,0,5.88,4c1.26,0,3.55-.83,4.28-2.53a4.75,4.75,0,0,0,.05-3c-.54-1.36-2.14-1.95-4.43-2.48-3-.68-6.6-1.94-6.6-5.88,0-2.87,2.18-5.1,6-5.1a7.06,7.06,0,0,1,6,3.11l-1.56,1.31c-1.07-1.31-2.43-2.58-4.22-2.58C328.54-314.87,326.94-313.31,326.94-311.61Z" transform="translate(735.93 1799.92)"/><path class="cls-1" d="M346.47-323.51a2,2,0,0,1-2,1.94,2,2,0,0,1-1.94-1.94,2,2,0,0,1,1.94-1.95A2,2,0,0,1,346.47-323.51Zm-.83,36.34h-2.28V-316h2.28Z" transform="translate(735.93 1799.92)"/><path class="cls-1" d="M366.87-313.16v-2.92h2.24v19.39c-1.8,1.5-2.73,2.91-2.73,4.27a2.07,2.07,0,0,0,.88,1.7,3.37,3.37,0,0,0,2.38.73c.44,0,.92-.05,1.55-.1l-.24,1.85a8.07,8.07,0,0,1-1.89.19,5.4,5.4,0,0,1-3.74-1.16A3.61,3.61,0,0,1,364-292a6.14,6.14,0,0,1,2.87-4.91v-2.67a9.34,9.34,0,0,1-7.24,3.74c-5.49-.1-9.57-5-9.47-10.54-.1-5.49,4-10.45,9.47-10.5A9.09,9.09,0,0,1,366.87-313.16Zm-7.24-1.51c-4.32.05-7.29,4-7.24,8.26s2.92,8.21,7.24,8.31,7.34-3.94,7.24-8.31a9.11,9.11,0,0,0-2.09-6A6.94,6.94,0,0,0,359.63-314.67Z" transform="translate(735.93 1799.92)"/><path class="cls-1" d="M377.07-298v.25a16.58,16.58,0,0,1-2,5.29l-1.41-.73a8.06,8.06,0,0,0,1.7-2.86h-.19a2,2,0,0,1-1.95-1.95,2,2,0,0,1,1.95-1.94A1.94,1.94,0,0,1,377.07-298Z" transform="translate(735.93 1799.92)"/><path class="cls-1" d="M410.45-306.27c.09,6-3.55,10.5-9.57,10.5s-9.53-4.57-9.48-10.5c.1-5.58,3.74-10.49,9.43-10.49S410.54-312.24,410.45-306.27Zm-16.81,0c0,4.67,2.47,8.21,7.24,8.26s7.38-3.45,7.33-8.26c.1-4.76-2.82-8.16-7.38-8.26C396.21-314.38,393.64-310.44,393.64-306.27Z" transform="translate(735.93 1799.92)"/><path class="cls-1" d="M432.5-306.27v9.67h-2.23v-2.67a9.87,9.87,0,0,1-7.24,3.64c-5.49-.19-9.52-5.15-9.48-10.64s3.89-10.44,9.48-10.54a9.57,9.57,0,0,1,6.9,3.3,1.93,1.93,0,0,0,.34.44v-18.65h2.23Zm-16.71,0c-.05,4.33,2.91,8.21,7.24,8.31,4.27-.14,7.28-4,7.24-8.31.29-4.47-2.72-8.45-7.24-8.3C418.7-314.48,415.74-310.59,415.79-306.27Z" transform="translate(735.93 1799.92)"/><path class="cls-1" d="M439.84-307.38l-.25-.2v11h-2.23v-35.12h2.23v22.88l.34-.24L449-316h3.69l-10.4,7.92L454-296.6h-3.2Z" transform="translate(735.93 1799.92)"/><path class="cls-1" d="M459-313c1.36-3.25,7.29-4,9.14-.58l-1.22,1.6c-2.33-4.32-7.62-1.26-7.92,3.5v11.9h-2.23V-316H459Z" transform="translate(735.93 1799.92)"/><path class="cls-1" d="M483.7-316H486l-11.28,28.76h-2.43l3.94-9.91L468.89-316h2.38L477.44-300Z" transform="translate(735.93 1799.92)"/><path class="cls-1" d="M492.83-323.51a2,2,0,0,1-2,1.94,1.94,1.94,0,0,1-1.94-1.94,2,2,0,0,1,1.94-1.95A2,2,0,0,1,492.83-323.51ZM492-287.17h-2.29V-316H492Z" transform="translate(735.93 1799.92)"/><path class="cls-1" d="M511.1-312.92a7.2,7.2,0,0,1,6.36-3.84,5.9,5.9,0,0,1,6,3.84,8.06,8.06,0,0,1,6.8-3.89c4.18,0,6.46,2,6.46,7.39v12.82h-2.23v-12.82c0-3.31-1.22-5.3-4.28-5.3-3.64,0-5.39,2.87-6.17,5.3v12.82h-2.23v-12.82c0-4.13-1.9-5.4-4.57-5.4-3.16,0-5.34,3.06-6.12,6.13v12.09h-2.23V-316h2.23Z" transform="translate(735.93 1799.92)"/><path class="cls-1" d="M543.79-303.11c0,3.31,3.21,5.35,5.79,5.35s5.83-2,5.83-5.35V-316h2.23v12.87c0,3.84-3.35,7.34-8.06,7.34s-8-3.5-8-7.34V-316h2.23Z" transform="translate(735.93 1799.92)"/><path class="cls-1" d="M578.09-298.83v2.23H560.65l13.6-17.15h-11V-316h15.6l-13.6,17.15Z" transform="translate(735.93 1799.92)"/><path class="cls-1" d="M594.75-316h2.34l-11.28,28.76h-2.42l3.93-9.91L579.94-316h2.38L588.49-300Z" transform="translate(735.93 1799.92)"/><path class="cls-1" d="M602.43-307.38l-.24-.2v11H600v-35.12h2.24v22.88l.34-.24,9.08-6.9h3.69l-10.39,7.92,11.66,11.46h-3.21Z" transform="translate(735.93 1799.92)"/><path class="cls-1" d="M628.81-297.91a7.94,7.94,0,0,0,6-2.67l2,1.26c-2,2-5.64,4.23-5.64,6.9a2.3,2.3,0,0,0,.87,1.75,3,3,0,0,0,2.29.78c.48,0,.92-.1,1.6-.1l-.19,1.8a9.29,9.29,0,0,1-2,.24,5.69,5.69,0,0,1-3.79-1.12,4.09,4.09,0,0,1-1.26-2.91,6.33,6.33,0,0,1,1.75-4,10.17,10.17,0,0,1-11.86-10.44c-.09-5.39,4-10.45,9.53-10.54,5,0,9.08,4.37,9.42,9.37v.25H620.89C620.21-301.26,624.63-298,628.81-297.91Zm-.68-16.76a7.33,7.33,0,0,0-6.66,5.05h13.31A7.23,7.23,0,0,0,628.13-314.67Z" transform="translate(735.93 1799.92)"/><text class="cls-17" transform="translate(918.35 1592.67)">Zajęcia</text><text class="cls-17" transform="translate(918.35 1655.27)"><tspan class="cls-18">L</tspan><tspan x="18.32" y="0">o</tspan><tspan class="cls-19" x="40.28" y="0">k</tspan><tspan class="cls-20" x="59.76" y="0">alizacja</tspan></text><text class="cls-17" transform="translate(918.35 1711.68)">O mnie</text><path class="cls-22" d="M151.36,852.93h12.8v3.84H144.73l13.11-22.84h-11v-3.84h17.59Z" transform="translate(735.93 1799.92)"/><path class="cls-22" d="M179.64,839.93h3.92v16.84h-3.92V855a6.47,6.47,0,0,1-5,2.28c-5.2,0-8.16-4.32-8.16-9,0-5.48,3.76-8.84,8.2-8.84a6.14,6.14,0,0,1,5,2.4Zm-9.2,8.48c0,2.92,1.84,5.36,4.68,5.36,2.48,0,4.76-1.8,4.76-5.32,0-3.68-2.28-5.44-4.76-5.44C172.28,843,170.44,845.41,170.44,848.41Z" transform="translate(735.93 1799.92)"/><path class="cls-22" d="M190.48,830.45A2.52,2.52,0,1,1,188,833,2.46,2.46,0,0,1,190.48,830.45Zm2,9.48v26h-3.92v-26Z" transform="translate(735.93 1799.92)"/><path class="cls-22" d="M212.48,852.93a7.51,7.51,0,0,1-2.24,2.6c-2.4,1.84-3.24,1.72-4.32,2.88a2.75,2.75,0,0,0-.8,1.68,1.23,1.23,0,0,0,.44,1,1.65,1.65,0,0,0,1.2.36,5.5,5.5,0,0,0,2-.36l-.36,2.48a4.38,4.38,0,0,1-2.44.76,4.18,4.18,0,0,1-3.12-1.16A3.14,3.14,0,0,1,202,861a3.9,3.9,0,0,1,.8-2.24,5.86,5.86,0,0,1,1.52-1.44,7.84,7.84,0,0,1-5.32-2.16,9,9,0,0,1-2.48-6.44,9.87,9.87,0,0,1,2.68-6.92,7.67,7.67,0,0,1,5.64-2.28,7.25,7.25,0,0,1,5.4,2.2c2.16,2.24,2.36,5.36,2.36,7.12v.48H200.52a5.57,5.57,0,0,0,1.44,3.4,4,4,0,0,0,3,1.08,4.13,4.13,0,0,0,2.68-.84,6.08,6.08,0,0,0,1.56-1.84Zm-3.88-6.84a4.07,4.07,0,0,0-1.2-2.28,4.09,4.09,0,0,0-5.4.12,4.41,4.41,0,0,0-1.2,2.16Z" transform="translate(735.93 1799.92)"/><path class="cls-22" d="M229.72,845.09A6.61,6.61,0,0,0,225,843a5,5,0,0,0-3.72,1.48,5.38,5.38,0,0,0-1.44,3.88,5.58,5.58,0,0,0,1.52,4,5.09,5.09,0,0,0,3.56,1.36,6.56,6.56,0,0,0,4.84-2.16V856a9.22,9.22,0,0,1-5.12,1.32,8.2,8.2,0,0,1-6.4-2.48,8.75,8.75,0,0,1-2.4-6.32,9,9,0,0,1,2.56-6.52,9.14,9.14,0,0,1,6.76-2.48,9,9,0,0,1,4.6,1.2Z" transform="translate(735.93 1799.92)"/><path class="cls-22" d="M235.44,830.45a2.52,2.52,0,1,1-2.52,2.52A2.46,2.46,0,0,1,235.44,830.45Zm2,9.48v16.84h-3.92V839.93Z" transform="translate(735.93 1799.92)"/><path class="cls-22" d="M254.68,839.93h3.92v16.84h-3.92V855a6.47,6.47,0,0,1-5,2.28c-5.2,0-8.16-4.32-8.16-9,0-5.48,3.76-8.84,8.2-8.84a6.14,6.14,0,0,1,5,2.4Zm-9.2,8.48c0,2.92,1.84,5.36,4.68,5.36,2.48,0,4.76-1.8,4.76-5.32,0-3.68-2.28-5.44-4.76-5.44C247.32,843,245.48,845.41,245.48,848.41Z" transform="translate(735.93 1799.92)"/><path class="cls-22" d="M150.8,910.12V933h7.84v3.84H146.73V910.12Z" transform="translate(735.93 1799.92)"/><path class="cls-22" d="M178.88,928.39a9,9,0,1,1-9-8.87A8.75,8.75,0,0,1,178.88,928.39Zm-4,0c0-3.84-2.52-5.4-5-5.4s-5,1.56-5,5.4c0,3.24,1.92,5.36,5,5.36S174.88,931.67,174.88,928.43Z" transform="translate(735.93 1799.92)"/><path class="cls-22" d="M186.88,907.64v18l5.48-5.63h5.2l-7.24,7,7.76,9.84h-5l-5.52-7.2-.72.72v6.48H183V907.64Z" transform="translate(735.93 1799.92)"/><path class="cls-22" d="M213,920h3.92v16.83H213V935a6.47,6.47,0,0,1-5,2.28c-5.2,0-8.15-4.32-8.15-9,0-5.48,3.75-8.83,8.19-8.83a6.15,6.15,0,0,1,5,2.39Zm-9.2,8.47c0,2.92,1.84,5.36,4.68,5.36,2.48,0,4.76-1.8,4.76-5.32,0-3.68-2.28-5.44-4.76-5.44C205.6,923,203.76,925.43,203.76,928.43Z" transform="translate(735.93 1799.92)"/><path class="cls-22" d="M225.76,907.64v29.15h-3.91V907.64Z" transform="translate(735.93 1799.92)"/><path class="cls-22" d="M232.68,910.48a2.52,2.52,0,1,1-2.52,2.52A2.46,2.46,0,0,1,232.68,910.48Zm2,9.48v16.83h-3.92V920Z" transform="translate(735.93 1799.92)"/><path class="cls-22" d="M245.16,933.19h10v3.6H237.44l10.92-13.23h-8.6V920H256Z" transform="translate(735.93 1799.92)"/><path class="cls-22" d="M270.52,920h3.92v16.83h-3.92V935a6.47,6.47,0,0,1-5,2.28c-5.2,0-8.16-4.32-8.16-9,0-5.48,3.76-8.83,8.2-8.83a6.15,6.15,0,0,1,5,2.39Zm-9.2,8.47c0,2.92,1.84,5.36,4.68,5.36,2.48,0,4.76-1.8,4.76-5.32,0-3.68-2.28-5.44-4.76-5.44C263.16,923,261.32,925.43,261.32,928.43Z" transform="translate(735.93 1799.92)"/><path class="cls-22" d="M292.44,925.12a6.63,6.63,0,0,0-4.76-2.09,5,5,0,0,0-3.72,1.48,5.4,5.4,0,0,0-1.44,3.88,5.58,5.58,0,0,0,1.52,4,5.09,5.09,0,0,0,3.56,1.36,6.56,6.56,0,0,0,4.84-2.16V936a9.22,9.22,0,0,1-5.12,1.32,8.2,8.2,0,0,1-6.4-2.48,8.75,8.75,0,0,1-2.4-6.32,9,9,0,0,1,2.56-6.52,9.18,9.18,0,0,1,6.76-2.47,9,9,0,0,1,4.6,1.2Z" transform="translate(735.93 1799.92)"/><path class="cls-22" d="M298.16,910.48a2.52,2.52,0,1,1-2.52,2.52A2.46,2.46,0,0,1,298.16,910.48Zm2,9.48v26H296.2V920Z" transform="translate(735.93 1799.92)"/><path class="cls-22" d="M317.4,920h3.92v16.83H317.4V935a6.47,6.47,0,0,1-5,2.28c-5.2,0-8.16-4.32-8.16-9,0-5.48,3.76-8.83,8.2-8.83a6.15,6.15,0,0,1,5,2.39Zm-9.2,8.47c0,2.92,1.84,5.36,4.68,5.36,2.48,0,4.76-1.8,4.76-5.32,0-3.68-2.28-5.44-4.76-5.44C310,923,308.2,925.43,308.2,928.43Z" transform="translate(735.93 1799.92)"/><path class="cls-22" d="M180.37,1008.09a13.88,13.88,0,1,1-13.88-13.84A13.53,13.53,0,0,1,180.37,1008.09Zm-4.08,0c0-5.92-4.08-10.08-9.8-10.08s-9.8,4.16-9.8,10.08,4.08,10.07,9.8,10.07S176.29,1014,176.29,1008.09Z" transform="translate(735.93 1799.92)"/><path class="cls-22" d="M194.09,1004.57H198v1.56a5.19,5.19,0,0,1,4.16-2,5,5,0,0,1,4.36,2.48,6,6,0,0,1,5-2.48,5.39,5.39,0,0,1,4.8,2.64,8.3,8.3,0,0,1,.88,4.24v10.39h-3.92v-9.27a7.81,7.81,0,0,0-.36-3,2.22,2.22,0,0,0-2.24-1.48,2.9,2.9,0,0,0-2.32,1.24,6.83,6.83,0,0,0-.76,3.84v8.67h-3.92v-9.27a7.81,7.81,0,0,0-.36-3,2.22,2.22,0,0,0-2.24-1.48,2.9,2.9,0,0,0-2.32,1.24,6.83,6.83,0,0,0-.76,3.84v8.67h-3.92Z" transform="translate(735.93 1799.92)"/><path class="cls-22" d="M222.13,1004.57h3.92v1.56a5.8,5.8,0,0,1,4.56-2,5.63,5.63,0,0,1,5,2.28c.64.92,1,2.08,1,4.68v10.31h-3.92v-9.35c0-4.28-1.6-4.4-3.08-4.4-1.76,0-3.56.24-3.56,5.68v8.07h-3.92Z" transform="translate(735.93 1799.92)"/><path class="cls-22" d="M243.53,995.09a2.52,2.52,0,1,1-2.52,2.52A2.46,2.46,0,0,1,243.53,995.09Zm2,9.48v16.83h-3.92v-16.83Z" transform="translate(735.93 1799.92)"/><path class="cls-22" d="M265.53,1017.57a8.88,8.88,0,0,1-2.84,3.07,9.26,9.26,0,0,1-5,1.28,7.47,7.47,0,0,1-5.68-2.16,9,9,0,0,1-2.48-6.43,9.87,9.87,0,0,1,2.68-6.92,7.67,7.67,0,0,1,5.64-2.28,7.25,7.25,0,0,1,5.4,2.2c2.16,2.24,2.36,5.36,2.36,7.12v.48H253.57a5.59,5.59,0,0,0,1.44,3.4,4,4,0,0,0,3,1.08,4.18,4.18,0,0,0,2.68-.84,6.2,6.2,0,0,0,1.56-1.84Zm-3.88-6.84a4.07,4.07,0,0,0-1.2-2.28,4.09,4.09,0,0,0-5.4.12,4.41,4.41,0,0,0-1.2,2.16Z" transform="translate(735.93 1799.92)"/><path class="cls-22" d="M79,228.65V137.86l61.71,64.65V143.6h13v90.27L92,169.23v59.42Z" transform="translate(735.93 1799.92)"/><path class="cls-22" d="M258.25,186.19c0,25-18.75,44.11-44.25,44.11s-44.24-19.12-44.24-44.11S188.5,142.07,214,142.07,258.25,161.2,258.25,186.19Zm-13,0c0-18.87-13-32.14-31.24-32.14s-31.24,13.27-31.24,32.14,13,32.13,31.24,32.13S245.24,205.06,245.24,186.19Z" transform="translate(735.93 1799.92)"/><path class="cls-22" d="M311.54,144.75a8,8,0,1,1-8,8A7.84,7.84,0,0,1,311.54,144.75ZM317.79,175v53.68h-12.5V175Z" transform="translate(735.93 1799.92)"/><path class="cls-22" d="M412.9,184.4H448V185c0,14.53-4.34,26.39-12.63,34.43-8.8,8.54-19.25,10.83-28.94,10.83-12.37,0-21.17-3.57-28.95-11.6a45.54,45.54,0,0,1-12.62-32.13c0-13.26,5.36-24.74,12.37-31.75,7.27-7.4,18.87-12.75,32-12.75a46.11,46.11,0,0,1,22.19,5.35,38.69,38.69,0,0,1,13.77,12.76l-10.33,7.26a34.7,34.7,0,0,0-10.45-9.69,28.71,28.71,0,0,0-15.05-3.7c-11.09,0-18.23,4.6-22.44,8.8-5.61,5.61-9.05,14.67-9.05,23.85a34.23,34.23,0,0,0,8.8,23.08c5.86,6.24,13.13,8.54,21.29,8.54,7.39,0,13.51-2.17,19-7.52a22.83,22.83,0,0,0,7.14-14.41H412.9Z" transform="translate(735.93 1799.92)"/><path class="cls-22" d="M476.9,143.6v85.05h-13V143.6Z" transform="translate(735.93 1799.92)"/><path class="cls-22" d="M520.32,155.84v72.81h-13V155.84H487.81V143.6h52v12.24Z" transform="translate(735.93 1799.92)"/><path class="cls-22" d="M595.33,208.12H559l-9.3,20.53h-14l42.33-90,40.29,90h-14Zm-5.22-12.24-12.63-28.82-13.13,28.82Z" transform="translate(735.93 1799.92)"/><path class="cls-22" d="M644.24,143.6c10.33,0,17,1.27,22.44,5,9.31,6.25,10.08,16.32,10.08,20,0,12.24-7.53,21.17-18.87,23.72l26.52,36.34H668.72l-24.35-34.81h-2.3v34.81h-13V143.6Zm-2.17,39h4.08c3.57,0,18.11-.39,18.11-13.9,0-12-11.35-13.14-17.72-13.14h-4.47Z" transform="translate(735.93 1799.92)"/><path class="cls-22" d="M751.35,208.12H715l-9.31,20.53h-14l42.34-90,40.29,90h-14Zm-5.23-12.24L733.5,167.06l-13.14,28.82Z" transform="translate(735.93 1799.92)"/><path class="cls-7" d="M388.61,281.9" transform="translate(735.93 1799.92)"/><path class="cls-8" d="M313.83,259.38" transform="translate(735.93 1799.92)"/><path class="cls-23" d="M-138,522.83c-3.17-3.32-6.24-10.53-3.49-13.34s5.67-.29,6.79,3c2.83-2,6.82-2.18,7.39,1.56S-133.49,522-138,522.83Z" transform="translate(735.93 1799.92)"/><path class="cls-23" d="M332.16,43.5c20.6-.65,28.39,10.54,28.45,21.23C360.84,77,349.73,79.17,349.73,87c0,5.84,7.57,9.48,7.57,18.94,0,12-10.13,16.28-18.1,16.67l-.05,126.49c5.47.13,30.58,7.23,30.58,36.14,0,17.85-9,22.74-9,33.63,0,16.06,24.14,20.42,24.14,59.15,0,35.23-33.1,49.88-59.19,49.88-33.28,0-60.65-19.55-60.63-57.87h6.78c1.38,40.92,33.55,51.08,53.5,51.08,21.41,0,52.54-13.36,52.7-43,.18-35.14-24.26-40.77-24.22-59.24,0-13.31,9.07-18.4,9.05-33.69,0-25.8-24.33-30.12-30.57-30.19l-.17-139.07c5.58,0,18.32,1,18.5-9.86.13-7.93-7.93-12-7.86-19.32,0-9.09,10.82-11.76,10.81-22s-10.41-14.41-21.42-14.24Z" transform="translate(735.93 1799.92)"/><path class="cls-23" d="M316.9,350.42c-11.23,2.2-21.56-7.51-21.53-18a18.34,18.34,0,0,1,21.52-17.74v-57h-6.74v49.65a25.11,25.11,0,0,0-21.58,25c.22,18.12,16.53,26.95,28.32,25Z" transform="translate(735.93 1799.92)"/><text class="cls-24" transform="translate(0 2660.74)">N<tspan class="cls-25" x="74.56" y="0">O i </tspan><tspan class="cls-26" x="234.4" y="0">G</tspan><tspan class="cls-27" x="307.62" y="0">I</tspan><tspan class="cls-28" x="334.29" y="0">T</tspan><tspan class="cls-29" x="381.13" y="0">A</tspan><tspan class="cls-30" x="449.04" y="0">R</tspan><tspan class="cls-25" x="511.62" y="0">A</tspan></text><path class="cls-7" d="M-449.39,910.72" transform="translate(735.93 1799.92)"/><path class="cls-8" d="M-516.4,890.54" transform="translate(735.93 1799.92)"/><path class="cls-1" d="M-492.64,1020.35c-3.17-3.33-6.24-10.54-3.5-13.34s5.68-.3,6.79,3c2.83-2,6.82-2.18,7.4,1.55C-481.35,1015.44-488.13,1019.49-492.64,1020.35Z" transform="translate(735.93 1799.92)"/><path class="cls-1" d="M-497.32,693.67c15.83.4,25.46,11.71,26,24.22.56,14.09-10.54,17-10.22,22.9.23,4.25,7,8.66,1.14,19.18a17.23,17.23,0,0,1-13.7,8.59l0,113.58s24.88,7.35,27,31.7C-466,931-477,931.6-474.77,942.37s26,19.43,22.19,54.88c-5.67,31.47-34,44.3-53.57,44.3-28.76,0-54.66-17.67-54.64-52l6.39.15c2,36.56,30,45.06,47.92,45.38,16,.29,41.09-10.13,47.37-37.68,6.95-30.47-18.76-40.27-22-53.3-2.05-12.38,8.29-15.61,7.32-29.28-1.18-23.47-26.47-27.24-26.47-27.24L-500.38,762s9.4,2.51,13.76-4.44-.32-9.93-1.29-16.87c.89-12.72,11.75-9.94,10.06-23.67-2.08-16.78-19.47-16.91-19.47-16.91Z" transform="translate(735.93 1799.92)"/><path class="cls-1" d="M-513.12,971.73a16.27,16.27,0,0,1-3.3.34A16,16,0,0,1-532.47,956a16.06,16.06,0,0,1,16.05-16,15.59,15.59,0,0,1,3.3.35V889h-6.56v44.49A22.62,22.62,0,0,0-539,955.83a22.63,22.63,0,0,0,22.62,22.63,22.1,22.1,0,0,0,3.28-.27Z" transform="translate(735.93 1799.92)"/><path class="cls-23" d="M111.27,474.68h-29v-3.46h35.83L85,519.42h32.55v3.46H78.16Zm-9.92-15.09a3.18,3.18,0,0,1-3.2,3.14,3.15,3.15,0,1,1,0-6.29A3.19,3.19,0,0,1,101.35,459.59Z" transform="translate(735.93 1799.92)"/><path class="cls-23" d="M144.78,491.43h3.84L130.06,538h-4l6.48-16-12.16-30.51h3.92l10.16,25.79Z" transform="translate(735.93 1799.92)"/><path class="cls-23" d="M159.81,479.24a3.24,3.24,0,1,1-3.28-3.14A3.21,3.21,0,0,1,159.81,479.24Zm-1.36,58.82h-3.76V491.43h3.76Z" transform="translate(735.93 1799.92)"/><path class="cls-23" d="M186.2,491.51h3.68v5.35a15.13,15.13,0,0,1,11.84-5.9c9,.31,15.68,8.33,15.59,17.22.09,8.81-6.47,16.9-15.51,17.06-4.8-.31-9.52-2.43-11.92-6v18.87H186.2Zm27.44,16.67c.08-6.84-4.8-13.29-11.84-13.37-7.28.24-11.92,6.84-11.92,13.37.24,7.55,3.84,13.45,11.92,13.45C208.84,521.47,213.72,515.1,213.64,508.18Z" transform="translate(735.93 1799.92)"/><path class="cls-23" d="M249.54,496.54l-.16-5h3.68v31.3h-3.68l.16-5.12a14.53,14.53,0,0,1-12.07,6.53c-9-.16-15.76-8.18-15.6-17.06-.16-8.89,6.56-16.91,15.6-17.07C242,490.33,247.46,492.53,249.54,496.54Zm-12.07-2.83c-7.12.16-12,6.45-11.92,13.45-.08,7,4.8,13.29,11.92,13.44,7.28,0,12.07-6.37,11.91-13.44a14.6,14.6,0,0,0-3.44-9.83A11.43,11.43,0,0,0,237.47,493.71Z" transform="translate(735.93 1799.92)"/><path class="cls-23" d="M264.18,498.51c0,4.32,3.52,5.34,8.23,6.21,5,.87,10.72,2.83,10.72,10.06,0,4.17-3.76,9.44-12,9.44-6.15,0-10.95-3.77-11.83-8.41l2.88-1.42a9.8,9.8,0,0,0,9.67,6.53c2.08,0,5.84-1.34,7-4.09A7.57,7.57,0,0,0,279,512c-.88-2.2-3.52-3.14-7.28-4-4.87-1.1-10.87-3.14-10.87-9.51,0-4.64,3.6-8.26,9.83-8.26a11.7,11.7,0,0,1,9.92,5L278,497.41c-1.76-2.13-4-4.17-7-4.17C266.82,493.24,264.18,495.76,264.18,498.51Z" transform="translate(735.93 1799.92)"/><path class="cls-23" d="M296.32,479.24a3.24,3.24,0,1,1-3.27-3.14A3.2,3.2,0,0,1,296.32,479.24ZM295,538.06h-3.76V491.43H295Z" transform="translate(735.93 1799.92)"/><path class="cls-23" d="M329.92,496v-4.72h3.67v31.38c-2.95,2.43-4.47,4.72-4.47,6.92a3.31,3.31,0,0,0,1.44,2.75,5.64,5.64,0,0,0,3.91,1.18c.72,0,1.52-.08,2.56-.16l-.4,3a12.87,12.87,0,0,1-3.11.31c-2.72,0-4.72-.62-6.16-1.88a5.82,5.82,0,0,1-2.16-4.56,9.89,9.89,0,0,1,4.72-7.94v-4.33A15.43,15.43,0,0,1,318,524c-9-.15-15.76-8.09-15.6-17.06-.16-8.88,6.56-16.9,15.6-17C322.8,490.17,327.36,492.22,329.92,496ZM318,493.55c-7.12.08-12,6.53-11.92,13.37-.08,7,4.8,13.29,11.92,13.45,7.28.08,12.08-6.37,11.92-13.45a14.55,14.55,0,0,0-3.44-9.75A11.47,11.47,0,0,0,318,493.55Z" transform="translate(735.93 1799.92)"/><path class="cls-23" d="M346.71,520.52v.4c-.32,2.75-2,6.05-3.36,8.57L341,528.31a13.2,13.2,0,0,0,2.8-4.64h-.32a3.15,3.15,0,1,1,3.2-3.15Z" transform="translate(735.93 1799.92)"/><path class="cls-23" d="M401.65,507.16c.16,9.75-5.84,17-15.75,17s-15.68-7.39-15.6-17c.16-9,6.16-17,15.52-17C395.25,490.33,401.81,497.49,401.65,507.16Zm-27.67,0c0,7.55,4.08,13.29,11.92,13.36,7.83-.15,12.15-5.58,12.07-13.36.16-7.71-4.63-13.21-12.15-13.37C378.22,494,374,500.39,374,507.16Z" transform="translate(735.93 1799.92)"/><path class="cls-23" d="M438,507.16v15.65h-3.68v-4.33c-3.2,3.46-7.2,5.9-11.92,5.9-9-.32-15.67-8.34-15.59-17.22-.08-8.89,6.4-16.91,15.59-17.07a15.86,15.86,0,0,1,11.36,5.35,4.34,4.34,0,0,0,.56.71V466H438Zm-27.51,0c-.08,7,4.8,13.29,11.91,13.44,7-.23,12-6.52,11.92-13.44.48-7.24-4.48-13.68-11.92-13.45C415.25,493.87,410.37,500.16,410.45,507.16Z" transform="translate(735.93 1799.92)"/><path class="cls-23" d="M450,505.35l-.41-.31v17.77H446V466h3.67v37l.56-.39,15-11.17h6.08l-17.12,12.82,19.2,18.56H468Z" transform="translate(735.93 1799.92)"/><path class="cls-23" d="M481.63,496.23c2.23-5.27,12-6.53,15-1l-2,2.6c-3.84-7-12.55-2.05-13,5.66v19.27H478V491.43h3.68Z" transform="translate(735.93 1799.92)"/><path class="cls-23" d="M522.25,491.43h3.84L507.54,538h-4l6.48-16-12.16-30.51h3.92l10.16,25.79Z" transform="translate(735.93 1799.92)"/><path class="cls-23" d="M537.29,479.24A3.24,3.24,0,1,1,534,476.1,3.21,3.21,0,0,1,537.29,479.24Zm-1.36,58.82h-3.76V491.43h3.76Z" transform="translate(735.93 1799.92)"/><path class="cls-23" d="M567.36,496.38a11.89,11.89,0,0,1,10.47-6.21c4.48,0,8.16,1.89,9.84,6.21a13.33,13.33,0,0,1,11.2-6.29c6.88,0,10.64,3.23,10.64,12v20.76h-3.68V502.05c0-5.35-2-8.57-7-8.57-6,0-8.88,4.64-10.16,8.57v20.76H585V502.05c0-6.69-3.12-8.73-7.52-8.73-5.19,0-8.8,4.95-10.07,9.91v19.58h-3.68V491.43h3.68Z" transform="translate(735.93 1799.92)"/><path class="cls-23" d="M621.18,512.27c0,5.35,5.28,8.65,9.52,8.65s9.59-3.3,9.59-8.65V491.43H644v20.84c0,6.21-5.52,11.87-13.27,11.87s-13.2-5.66-13.2-11.87V491.43h3.68Z" transform="translate(735.93 1799.92)"/><path class="cls-23" d="M677.64,519.19v3.62H648.93l22.39-27.76H653.25v-3.62h25.67l-22.39,27.76Z" transform="translate(735.93 1799.92)"/><path class="cls-23" d="M705.07,491.43h3.84L690.36,538h-4l6.48-16-12.16-30.51h3.92l10.16,25.79Z" transform="translate(735.93 1799.92)"/><path class="cls-23" d="M717.71,505.35l-.4-.31v17.77h-3.68V466h3.68v37l.56-.39,15-11.17h6.08l-17.11,12.82L741,522.81H735.7Z" transform="translate(735.93 1799.92)"/><path class="cls-23" d="M761.13,520.68a13.19,13.19,0,0,0,9.84-4.32l3.28,2c-3.28,3.23-9.28,6.84-9.28,11.17a3.68,3.68,0,0,0,1.44,2.83,4.87,4.87,0,0,0,3.76,1.26c.8,0,1.52-.16,2.64-.16l-.32,2.91a15.21,15.21,0,0,1-3.2.39,9.47,9.47,0,0,1-6.24-1.81,6.56,6.56,0,0,1-2.08-4.71,10.11,10.11,0,0,1,2.88-6.45c-9.6,1.41-19.51-5-19.51-16.91-.16-8.73,6.63-16.9,15.67-17.06,8.16,0,15,7.07,15.52,15.18v.39H748.1C747,515.26,754.25,520.52,761.13,520.68ZM760,493.55c-5.2,0-9.35,3.78-11,8.18H771A11.88,11.88,0,0,0,760,493.55Z" transform="translate(735.93 1799.92)"/><text class="cls-31" transform="translate(223.15 2048.62)">i</text><text class="cls-10" transform="translate(1208.01 1600.73)">Zajęcia</text><text class="cls-10" transform="translate(1208.01 1663.33)"><tspan class="cls-11">L</tspan><tspan x="21.53" y="0">o</tspan><tspan class="cls-12" x="47.33" y="0">k</tspan><tspan x="70.22" y="0">alizacja</tspan></text><text class="cls-10" transform="translate(1208.01 1719.74)">O mnie</text><rect class="cls-32" x="-67.21" y="425.64" width="6.09" height="9.86" rx="0.76" transform="translate(485.36 2623.87) rotate(-163.12)"/><rect class="cls-33" x="330.45" y="-15.37" width="6.25" height="12.38" transform="translate(1078.69 2124.31) rotate(-90)"/></svg>