<?xml version="1.0" encoding="utf-8"?>
<!-- Generator: Adobe Illustrator 25.4.1, SVG Export Plug-In . SVG Version: 6.00 Build 0)  -->
<svg version="1.1" xmlns="http://www.w3.org/2000/svg" xmlns:xlink="http://www.w3.org/1999/xlink" x="0px" y="0px"
	 viewBox="0 0 841.9 595.3" style="enable-background:new 0 0 841.9 595.3;" xml:space="preserve">
<style type="text/css">
	.st0{fill:#E6C67E;}
	.st1{fill:#BAA66C;}
	.st2{fill:#F5D66A;}
	.st3{fill:#DEAC53;}
	.st4{fill:#B98E4C;}
	.st5{fill:#A8803E;}
	.st6{fill:#F2D549;}
	.st7{fill:none;stroke:#EF8019;stroke-width:4.5;stroke-miterlimit:10;}
	.st8{fill:#EAA039;}
	.st9{fill:#EAA039;stroke:#EAA039;stroke-width:1.5;stroke-miterlimit:10;}
	.st10{fill:#EAA039;stroke:#EAA039;stroke-width:2;stroke-miterlimit:10;}
	.st11{fill:#FF7900;}
	.st12{fill:#E4C47E;}
	.st13{fill:#58B031;}
	.st14{fill:#5CB130;}
	.st15{display:none;}
</style>
<g id="Warstwa_1">
	<rect x="-609" y="-1751.2" class="st0" width="163" height="37.7"/>
	<rect x="-608.5" y="-1650.6" class="st1" width="159.8" height="31"/>
	<rect x="-608" y="-1799.9" class="st2" width="159.8" height="35.1"/>
	<rect x="-607.8" y="-1699.3" class="st3" width="159.8" height="34.4"/>
	<rect x="-408.9" y="-1799.9" class="st4" width="139.4" height="35.1"/>
	<rect x="-408.9" y="-1753.6" class="st5" width="139.4" height="35.1"/>
	<path class="st6" d="M412.6-1088.7"/>
	<path class="st7" d="M365.1-1103"/>
	<path class="st8" d="M222.8-1113.9v-55.8l37.9,44.8v-42.5h4.5v55.1l-37.9-44.9v43.3H222.8z"/>
	<path class="st8" d="M333.4-1140.5c0,3.8-0.7,7.4-2.2,10.8c-1.4,3.4-3.5,6.4-6.2,9.1c-2.8,2.7-5.9,4.7-9.3,6.1
		c-3.5,1.4-7.1,2.1-11,2.1s-7.5-0.7-11-2.1c-3.5-1.4-6.5-3.4-9.3-6.1c-2.7-2.7-4.8-5.7-6.2-9.1s-2.1-7-2.1-10.7
		c0-3.8,0.7-7.4,2.1-10.8c1.4-3.4,3.5-6.5,6.2-9.2c2.7-2.7,5.7-4.7,9.2-6c3.4-1.4,7.1-2,11.1-2c4,0,7.7,0.7,11.1,2.1
		c3.5,1.4,6.5,3.4,9.2,6c2.7,2.7,4.8,5.8,6.2,9.2C332.6-1148,333.4-1144.4,333.4-1140.5z M304.7-1116.8c3.2,0,6.2-0.6,9-1.8
		c2.8-1.2,5.4-2.9,7.6-5.1c2.2-2.3,3.9-4.8,5.1-7.7c1.2-2.9,1.8-5.9,1.8-9.1c0-3.2-0.6-6.3-1.8-9.1c-1.2-2.9-2.9-5.4-5.1-7.7
		c-2.2-2.2-4.8-3.9-7.6-5.1c-2.8-1.2-5.9-1.8-9.1-1.8c-3.2,0-6.2,0.6-9,1.8s-5.3,2.9-7.6,5.1c-2.2,2.3-4,4.9-5.1,7.7
		c-1.2,2.8-1.8,5.9-1.8,9.1c0,3.2,0.6,6.3,1.8,9.1c1.2,2.9,2.9,5.4,5.1,7.7c2.2,2.3,4.8,4,7.5,5.1
		C298.4-1117.4,301.4-1116.8,304.7-1116.8z"/>
	<path class="st8" d="M452.3-1154c-2.2-3.4-4.8-5.9-8-7.6c-3.2-1.7-6.7-2.6-10.7-2.6c-6.6,0-12,2.2-16.2,6.7
		c-4.2,4.5-6.3,10.3-6.3,17.4c0,3.2,0.6,6.2,1.7,9c1.1,2.8,2.7,5.3,4.8,7.5c2.1,2.2,4.5,3.8,7.2,4.9c2.7,1.1,5.6,1.6,8.7,1.6
		c6,0,10.9-1.8,14.6-5.3c3.8-3.5,5.7-8.2,5.8-13.9h-18.5v-4.2h23.8v0.6c0,8.5-2.3,15.2-7,20c-4.7,4.8-11.1,7.2-19.2,7.2
		c-8.1,0-14.7-2.6-19.7-7.8c-5-5.2-7.5-11.9-7.5-20.3c0-3.9,0.6-7.5,1.9-10.9c1.3-3.4,3.1-6.4,5.5-8.9c2.6-2.8,5.5-4.8,8.8-6.2
		c3.3-1.4,6.9-2,10.9-2c5.4,0,10.1,1,14,2.9c3.9,2,6.9,4.8,9,8.6L452.3-1154z"/>
	<path class="st8" d="M469.6-1113.9v-53.5h4.9v53.5H469.6z"/>
	<path class="st8" d="M497.4-1113.9v-49h-14.7v-4.6H517v4.6h-14.8v49H497.4z"/>
	<path class="st8" d="M512.3-1113.9l23.5-55.7l22.5,55.7h-5.3l-6.8-18.1h-21.9l-7.1,18.1H512.3z M526-1136.2h18.7l-9.1-23.3
		L526-1136.2z"/>
	<path class="st8" d="M596.9-1113.9h-5.9l-18.8-25.5h-2.9v25.5h-4.9v-53.5h9.8c5.8,0,10.1,1.2,13,3.6c2.9,2.4,4.3,6.1,4.3,11
		c0,4.2-1.2,7.4-3.7,9.8c-2.5,2.4-5.9,3.6-10.2,3.6L596.9-1113.9z M569.2-1163.2v19.8h4.9c4.5,0,7.7-0.7,9.5-2.2
		c1.8-1.5,2.7-3.9,2.7-7.4c0-3.7-0.9-6.3-2.8-7.9c-1.9-1.6-5-2.3-9.4-2.3H569.2z"/>
	<path class="st8" d="M600.3-1113.9l23.5-55.7l22.5,55.7h-5.3l-6.8-18.1h-21.9l-7.1,18.1H600.3z M614-1136.2h18.7l-9.1-23.3
		L614-1136.2z"/>
	<path class="st0" d="M381.9-1011c-2.2-2.4-4.4-7.5-2.5-9.5c1.9-1.9,4-0.2,4.8,2.1c2-1.4,4.8-1.5,5.2,1.1
		C389.9-1014.5,385.1-1011.6,381.9-1011z"/>
	<circle class="st8" cx="365.1" cy="-1161.9" r="3"/>
	<rect x="362.9" y="-1152.3" class="st8" width="4.5" height="38.5"/>
	<path class="st0" d="M378.6-1242.6c11.2,0.3,18,8.3,18.4,17.2c0.4,10-7.5,12-7.2,16.2c0.2,3,5,6.1,0.8,13.6
		c-3.3,5.9-9.7,6.1-9.7,6.1l0,80.5c0,0,17.6,5.2,19.1,22.5c0.7,12.2-7,12.6-5.4,20.2c1.6,7.6,18.5,13.8,15.7,38.9
		c-4,22.3-24.1,31.4-38,31.4c-20.4,0-38.7-12.5-38.7-36.9l4.5,0.1c1.5,25.9,21.3,31.9,34,32.2c11.3,0.2,29.1-7.2,33.6-26.7
		c4.9-21.6-13.3-28.5-15.6-37.8c-1.5-8.8,5.9-11.1,5.2-20.8c-0.8-16.6-18.8-19.3-18.8-19.3l-0.1-89c0,0,6.7,1.8,9.8-3.1
		s-0.2-7-0.9-12c0.6-9,8.3-7,7.1-16.8c-1.5-11.9-13.8-12-13.8-12V-1242.6z"/>
	<path class="st0" d="M367.4-1045.5c-0.8,0.2-1.5,0.2-2.3,0.2c-6.3,0-11.4-5.1-11.4-11.4c0-6.3,5.1-11.4,11.4-11.4
		c0.8,0,1.6,0.1,2.3,0.2v-4.9v-2.5v-29.1h-4.7v31.5c-7.7,1.1-13.7,7.8-13.7,15.9c0,8.9,7.2,16,16,16c0.8,0,1.6-0.1,2.3-0.2V-1045.5z
		"/>
	<g>
		<path class="st0" d="M227.6-967.8H210v-2.1h19h0.3h2.4l-20.1,29.8h19.8v2.1h-21.2h-0.5h-2.2L227.6-967.8z M221.6-977.1
			c0,1.1-0.9,1.9-1.9,1.9c-1.1,0-1.9-0.9-1.9-1.9c0-1.1,0.8-1.9,1.9-1.9C220.7-979,221.6-978.2,221.6-977.1z"/>
		<path class="st0" d="M248-957.4h2.3l-11.3,28.8h-2.4l3.9-9.9l-7.4-18.8h2.4l6.2,15.9L248-957.4z"/>
		<path class="st0" d="M257.1-964.9c0,1.1-0.9,1.9-2,1.9c-1.1,0-1.9-0.9-1.9-1.9c0-1.1,0.9-1.9,1.9-1.9
			C256.3-966.9,257.1-966,257.1-964.9z M256.3-928.6H254v-28.8h2.3V-928.6z"/>
		<path class="st0" d="M273.2-957.4h2.2v3.3c1.7-2.2,4.4-3.6,7.2-3.6c5.5,0.2,9.5,5.1,9.5,10.6c0,5.4-3.9,10.4-9.4,10.5
			c-2.9-0.2-5.8-1.5-7.2-3.7v11.7h-2.2V-957.4z M289.8-947.1c0-4.2-2.9-8.2-7.2-8.3c-4.4,0.1-7.2,4.2-7.2,8.3
			c0.1,4.7,2.3,8.3,7.2,8.3C286.9-938.9,289.9-942.8,289.8-947.1z"/>
		<path class="st0" d="M311.6-954.3l-0.1-3.1h2.2v19.3h-2.2l0.1-3.2c-1.6,2.5-4.4,4-7.3,4c-5.5-0.1-9.6-5.1-9.5-10.5
			c-0.1-5.5,4-10.4,9.5-10.5C307.1-958.1,310.4-956.7,311.6-954.3z M304.3-956c-4.3,0.1-7.3,4-7.2,8.3c0,4.3,2.9,8.2,7.2,8.3
			c4.4,0,7.3-3.9,7.2-8.3c0-2.3-0.7-4.6-2.1-6.1C308.1-955.2,306.2-956,304.3-956z"/>
		<path class="st0" d="M320.5-953c0,2.7,2.1,3.3,5,3.8c3.1,0.5,6.5,1.7,6.5,6.2c0,2.6-2.3,5.8-7.3,5.8c-3.7,0-6.7-2.3-7.2-5.2
			l1.7-0.9c0.7,1.9,2.5,4,5.9,4c1.3,0,3.5-0.8,4.3-2.5c0.3-0.7,0.3-2.2,0-3c-0.5-1.4-2.1-1.9-4.4-2.5c-3-0.7-6.6-1.9-6.6-5.9
			c0-2.9,2.2-5.1,6-5.1c2.6,0,4.8,1.2,6,3.1l-1.6,1.3c-1.1-1.3-2.4-2.6-4.2-2.6C322.1-956.3,320.5-954.7,320.5-953z"/>
		<path class="st0" d="M340.1-964.9c0,1.1-0.9,1.9-2,1.9c-1.1,0-1.9-0.9-1.9-1.9c0-1.1,0.9-1.9,1.9-1.9
			C339.2-966.9,340.1-966,340.1-964.9z M339.2-928.6h-2.3v-28.8h2.3V-928.6z"/>
		<path class="st0" d="M360.5-954.6v-2.9h2.2v19.4c-1.8,1.5-2.7,2.9-2.7,4.3c0,0.7,0.3,1.3,0.9,1.7c0.5,0.5,1.3,0.7,2.4,0.7
			c0.4,0,0.9,0,1.6-0.1l-0.2,1.8c-0.6,0.1-1.2,0.2-1.9,0.2c-1.7,0-2.9-0.4-3.7-1.2c-0.9-0.8-1.3-1.7-1.3-2.8c0-1.8,1.2-3.9,2.9-4.9
			v-2.7c-1.7,2.2-4.4,3.7-7.2,3.7c-5.5-0.1-9.6-5-9.5-10.5c-0.1-5.5,4-10.4,9.5-10.5C356.1-958.2,358.9-956.9,360.5-954.6z
			 M353.2-956.1c-4.3,0-7.3,4-7.2,8.3c0,4.3,2.9,8.2,7.2,8.3c4.4,0,7.3-3.9,7.2-8.3c0-2.3-0.7-4.5-2.1-6
			C357.1-955.3,355.2-956.1,353.2-956.1z"/>
		<path class="st0" d="M370.7-939.4c0,0.1,0,0.2,0,0.2c-0.2,1.7-1.2,3.7-2,5.3l-1.4-0.7c0.7-0.8,1.4-1.8,1.7-2.9c0,0-0.1,0-0.2,0
			c-1.1,0-1.9-0.9-1.9-1.9c0-1.1,0.9-1.9,1.9-1.9S370.7-940.5,370.7-939.4z"/>
		<path class="st0" d="M404-947.7c0.1,6-3.5,10.5-9.6,10.5c-6,0-9.5-4.6-9.5-10.5c0.1-5.6,3.7-10.5,9.4-10.5
			C400.1-958.1,404.1-953.7,404-947.7z M387.2-947.7c0,4.7,2.5,8.2,7.2,8.3c4.8-0.1,7.4-3.4,7.3-8.3c0.1-4.8-2.8-8.2-7.4-8.3
			C389.8-955.8,387.2-951.9,387.2-947.7z"/>
		<path class="st0" d="M426.1-947.7v9.7h-2.2v-2.7c-1.9,2.1-4.4,3.6-7.2,3.6c-5.5-0.2-9.5-5.2-9.5-10.6c0-5.5,3.9-10.4,9.5-10.5
			c2.6,0,5.1,1.4,6.9,3.3c0.1,0.1,0.2,0.3,0.3,0.4v-18.7h2.2V-947.7z M409.4-947.7c0,4.3,2.9,8.2,7.2,8.3c4.3-0.1,7.3-4,7.2-8.3
			c0.3-4.5-2.7-8.5-7.2-8.3C412.3-955.9,409.3-952,409.4-947.7z"/>
		<path class="st0" d="M433.4-948.8l-0.2-0.2v11h-2.2v-35.1h2.2v22.9l0.3-0.2l9.1-6.9h3.7l-10.4,7.9l11.7,11.5h-3.2L433.4-948.8z"/>
		<path class="st0" d="M452.6-954.4c1.4-3.3,7.3-4,9.1-0.6l-1.2,1.6c-2.3-4.3-7.6-1.3-7.9,3.5v11.9h-2.2v-19.4h2.2V-954.4z"/>
		<path class="st0" d="M477.3-957.4h2.3l-11.3,28.8h-2.4l3.9-9.9l-7.4-18.8h2.4l6.2,15.9L477.3-957.4z"/>
		<path class="st0" d="M486.4-964.9c0,1.1-0.9,1.9-2,1.9c-1.1,0-1.9-0.9-1.9-1.9c0-1.1,0.9-1.9,1.9-1.9
			C485.5-966.9,486.4-966,486.4-964.9z M485.6-928.6h-2.3v-28.8h2.3V-928.6z"/>
		<path class="st0" d="M504.7-954.4c1.2-2.1,3.3-3.8,6.4-3.8c2.7,0,5,1.2,6,3.8c1.7-2.5,4-3.9,6.8-3.9c4.2,0,6.5,2,6.5,7.4v12.8
			h-2.2v-12.8c0-3.3-1.2-5.3-4.3-5.3c-3.6,0-5.4,2.9-6.2,5.3v12.8h-2.2v-12.8c0-4.1-1.9-5.4-4.6-5.4c-3.2,0-5.3,3.1-6.1,6.1v12.1
			h-2.2v-19.4h2.2V-954.4z"/>
		<path class="st0" d="M537.4-944.5c0,3.3,3.2,5.3,5.8,5.3c2.6,0,5.8-2,5.8-5.3v-12.9h2.2v12.9c0,3.8-3.4,7.3-8.1,7.3
			c-4.7,0-8-3.5-8-7.3v-12.9h2.2V-944.5z"/>
		<path class="st0" d="M571.7-940.3v2.2h-17.4l13.6-17.1h-11v-2.2h15.6l-13.6,17.1H571.7z"/>
		<path class="st0" d="M588.3-957.4h2.3l-11.3,28.8H577l3.9-9.9l-7.4-18.8h2.4l6.2,15.9L588.3-957.4z"/>
		<path class="st0" d="M596-948.8l-0.2-0.2v11h-2.2v-35.1h2.2v22.9l0.3-0.2l9.1-6.9h3.7l-10.4,7.9l11.7,11.5h-3.2L596-948.8z"/>
		<path class="st0" d="M622.4-939.3c2.5,0,4.5-1.1,6-2.7l2,1.3c-2,2-5.6,4.2-5.6,6.9c0,0.7,0.3,1.3,0.9,1.7c0.6,0.6,1.3,0.8,2.3,0.8
			c0.5,0,0.9-0.1,1.6-0.1l-0.2,1.8c-0.7,0.1-1.3,0.2-1.9,0.2c-1.6,0-2.9-0.3-3.8-1.1c-0.8-0.8-1.3-1.8-1.3-2.9c0-1.3,0.7-2.9,1.7-4
			c-5.8,0.9-11.9-3.1-11.9-10.4c-0.1-5.4,4-10.4,9.5-10.5c5,0,9.1,4.4,9.4,9.4c0,0,0,0.1,0,0.2h-16.7
			C613.8-942.7,618.2-939.4,622.4-939.3z M621.7-956.1c-3.2,0-5.7,2.3-6.7,5.1h13.3C627.3-953.9,624.8-956.1,621.7-956.1z"/>
	</g>
	<rect x="204.7" y="-870.7" style="fill:none;" width="462.3" height="56.4"/>
	<text transform="matrix(1 0 0 1 204.6778 -837.3199)" class="st8" style="font-family:'PaneuropaNeueRegular'; font-size:47px;">Zajęcia</text>
	<rect x="204.7" y="-808.1" style="fill:none;" width="462.3" height="56.4"/>
	<text transform="matrix(1 0 0 1 204.6778 -774.7211)" class="st8" style="font-family:'PaneuropaNeueRegular'; font-size:47px;">Lokalizacja</text>
	<rect x="204.7" y="-751.7" style="fill:none;" width="462.3" height="56.4"/>
	<text transform="matrix(1 0 0 1 204.6778 -718.3135)" class="st8" style="font-family:'PaneuropaNeueRegular'; font-size:47px;">O mnie</text>
	<rect x="488.9" y="-870.7" style="fill:none;" width="462.3" height="56.4"/>
	<text transform="matrix(1 0 0 1 488.8997 -840.1597)" class="st8" style="font-family:'FuturaPT-Book'; font-size:43px;">Zajęcia</text>
	<rect x="488.9" y="-808.1" style="fill:none;" width="462.3" height="56.4"/>
	<text transform="matrix(1 0 0 1 488.8997 -777.561)" class="st8" style="font-family:'FuturaPT-Book'; font-size:43px;">Lokalizacja</text>
	<polygon style="fill:none;" points="951.2,-695.3 488.9,-695.3 496.2,-779.9 958.5,-779.9 	"/>
	<text transform="matrix(1 0 0 1 495.9725 -749.3575)" class="st8" style="font-family:'FuturaPT-Book'; font-size:43px;">O mnie</text>
	<path class="st9" d="M-647.2,246.8V191l37.9,44.8v-42.5h4.5v55.1l-37.9-44.9v43.3H-647.2z"/>
	<path class="st9" d="M-536.6,220.1c0,3.8-0.7,7.4-2.2,10.8c-1.4,3.4-3.5,6.4-6.2,9.1c-2.8,2.7-5.9,4.7-9.3,6.1
		c-3.5,1.4-7.1,2.1-11,2.1s-7.5-0.7-11-2.1c-3.5-1.4-6.5-3.4-9.3-6.1c-2.7-2.7-4.8-5.7-6.2-9.1c-1.4-3.4-2.1-7-2.1-10.7
		c0-3.8,0.7-7.4,2.1-10.8c1.4-3.4,3.5-6.5,6.2-9.2c2.7-2.7,5.7-4.7,9.2-6c3.4-1.4,7.1-2,11.1-2c4,0,7.7,0.7,11.1,2.1
		c3.5,1.4,6.5,3.4,9.2,6c2.7,2.7,4.8,5.8,6.2,9.2C-537.3,212.7-536.6,216.3-536.6,220.1z M-565.3,243.9c3.2,0,6.2-0.6,9-1.8
		c2.8-1.2,5.4-2.9,7.6-5.1c2.2-2.3,3.9-4.8,5.1-7.7c1.2-2.9,1.8-5.9,1.8-9.1c0-3.2-0.6-6.3-1.8-9.1c-1.2-2.9-2.9-5.4-5.1-7.7
		c-2.2-2.2-4.8-3.9-7.6-5.1c-2.8-1.2-5.9-1.8-9.1-1.8c-3.2,0-6.2,0.6-9,1.8c-2.8,1.2-5.3,2.9-7.6,5.1c-2.2,2.3-4,4.9-5.1,7.7
		c-1.2,2.8-1.8,5.9-1.8,9.1c0,3.2,0.6,6.3,1.8,9.1c1.2,2.9,2.9,5.4,5.1,7.7c2.2,2.3,4.8,4,7.5,5.1
		C-571.6,243.3-568.5,243.9-565.3,243.9z"/>
	<path class="st9" d="M-419.6,206.7c-2.2-3.4-4.8-5.9-8-7.6c-3.2-1.7-6.7-2.6-10.7-2.6c-6.6,0-12,2.2-16.2,6.7
		c-4.2,4.5-6.3,10.3-6.3,17.4c0,3.2,0.6,6.2,1.7,9c1.1,2.8,2.7,5.3,4.8,7.5c2.1,2.2,4.5,3.8,7.2,4.9c2.7,1.1,5.6,1.6,8.7,1.6
		c6,0,10.9-1.8,14.6-5.3c3.8-3.5,5.7-8.2,5.8-13.9h-18.5v-4.2h23.8v0.6c0,8.5-2.3,15.2-7,20c-4.7,4.8-11.1,7.2-19.2,7.2
		c-8.1,0-14.7-2.6-19.7-7.8c-5-5.2-7.5-11.9-7.5-20.3c0-3.9,0.6-7.5,1.9-10.9c1.3-3.4,3.1-6.4,5.5-8.9c2.6-2.8,5.5-4.8,8.8-6.2
		c3.3-1.4,6.9-2,10.9-2c5.4,0,10.1,1,14,2.9c3.9,2,6.9,4.8,9,8.6L-419.6,206.7z"/>
	<path class="st9" d="M-402.3,246.8v-53.5h4.9v53.5H-402.3z"/>
	<path class="st9" d="M-374.6,246.8v-49h-14.7v-4.6h34.4v4.6h-14.8v49H-374.6z"/>
	<path class="st9" d="M-359.7,246.8l23.5-55.7l22.5,55.7h-5.3l-6.8-18.1h-21.9l-7.1,18.1H-359.7z M-346,224.5h18.7l-9.1-23.3
		L-346,224.5z"/>
	<path class="st9" d="M-275.1,246.8h-5.9l-18.8-25.5h-2.9v25.5h-4.9v-53.5h9.8c5.8,0,10.1,1.2,13,3.6c2.9,2.4,4.3,6.1,4.3,11
		c0,4.2-1.2,7.4-3.7,9.8c-2.5,2.4-5.9,3.6-10.2,3.6L-275.1,246.8z M-302.7,197.5v19.8h4.9c4.5,0,7.7-0.7,9.5-2.2
		c1.8-1.5,2.7-3.9,2.7-7.4c0-3.7-0.9-6.3-2.8-7.9c-1.9-1.6-5-2.3-9.4-2.3H-302.7z"/>
	<path class="st9" d="M-271.7,246.8l23.5-55.7l22.5,55.7h-5.3l-6.8-18.1h-21.9l-7.1,18.1H-271.7z M-258,224.5h18.7l-9.1-23.3
		L-258,224.5z"/>
	<path class="st0" d="M-485.7,356.6c-2.2-2.4-4.4-7.5-2.5-9.5c1.9-1.9,4-0.2,4.8,2.1c2-1.4,4.8-1.5,5.2,1.1
		C-477.7,353.2-482.5,356-485.7,356.6z"/>
	<path class="st0" d="M-489,125c11.2,0.3,18,8.3,18.4,17.2c0.4,10-7.5,12-7.2,16.2c0.2,3,5,6.1,0.8,13.6c-3.3,5.9-9.7,6.1-9.7,6.1
		l0,80.5c0,0,17.6,5.2,19.1,22.5c0.7,12.2-7,12.6-5.4,20.2c1.6,7.6,18.5,13.8,15.7,38.9c-4,22.3-24.1,31.4-38,31.4
		c-20.4,0-38.7-12.5-38.7-36.9l4.5,0.1c1.5,25.9,21.3,31.9,34,32.2c11.3,0.2,29.1-7.2,33.6-26.7c4.9-21.6-13.3-28.5-15.6-37.8
		c-1.5-8.8,5.9-11.1,5.2-20.8c-0.8-16.6-18.8-19.3-18.8-19.3l-0.1-89c0,0,6.7,1.8,9.8-3.1s-0.2-7-0.9-12c0.6-9,8.3-7,7.1-16.8
		c-1.5-11.9-13.8-12-13.8-12V125z"/>
	<path class="st0" d="M-500.2,322.2c-0.8,0.2-1.5,0.2-2.3,0.2c-6.3,0-11.4-5.1-11.4-11.4c0-6.3,5.1-11.4,11.4-11.4
		c0.8,0,1.6,0.1,2.3,0.2V295v-2.5v-29.1h-4.7V295c-7.7,1.1-13.7,7.8-13.7,15.9c0,8.9,7.2,16,16,16c0.8,0,1.6-0.1,2.3-0.2V322.2z"/>
	<g>
		<path class="st0" d="M-640.4,397.9H-658v-2.1h19h0.3h2.4l-20.1,29.8h19.8v2.1h-21.2h-0.5h-2.2L-640.4,397.9z M-646.4,388.6
			c0,1.1-0.9,1.9-1.9,1.9c-1.1,0-1.9-0.9-1.9-1.9c0-1.1,0.8-1.9,1.9-1.9C-647.3,386.7-646.4,387.5-646.4,388.6z"/>
		<path class="st0" d="M-620,408.3h2.3l-11.3,28.8h-2.4l3.9-9.9l-7.4-18.8h2.4l6.2,15.9L-620,408.3z"/>
		<path class="st0" d="M-610.9,400.8c0,1.1-0.9,1.9-2,1.9c-1.1,0-1.9-0.9-1.9-1.9c0-1.1,0.9-1.9,1.9-1.9
			C-611.7,398.8-610.9,399.7-610.9,400.8z M-611.7,437.1h-2.3v-28.8h2.3V437.1z"/>
		<path class="st0" d="M-594.8,408.3h2.2v3.3c1.7-2.2,4.4-3.6,7.2-3.6c5.5,0.2,9.5,5.1,9.5,10.6c0,5.4-3.9,10.4-9.4,10.5
			c-2.9-0.2-5.8-1.5-7.2-3.7v11.7h-2.2V408.3z M-578.2,418.6c0-4.2-2.9-8.2-7.2-8.3c-4.4,0.1-7.2,4.2-7.2,8.3
			c0.1,4.7,2.3,8.3,7.2,8.3C-581.1,426.8-578.1,422.9-578.2,418.6z"/>
		<path class="st0" d="M-556.4,411.4l-0.1-3.1h2.2v19.3h-2.2l0.1-3.2c-1.6,2.5-4.4,4-7.3,4c-5.5-0.1-9.6-5.1-9.5-10.5
			c-0.1-5.5,4-10.4,9.5-10.5C-560.9,407.6-557.6,409-556.4,411.4z M-563.7,409.7c-4.3,0.1-7.3,4-7.2,8.3c0,4.3,2.9,8.2,7.2,8.3
			c4.4,0,7.3-3.9,7.2-8.3c0-2.3-0.7-4.6-2.1-6.1C-559.9,410.5-561.8,409.7-563.7,409.7z"/>
		<path class="st0" d="M-547.5,412.7c0,2.7,2.1,3.3,5,3.8c3.1,0.5,6.5,1.7,6.5,6.2c0,2.6-2.3,5.8-7.3,5.8c-3.7,0-6.7-2.3-7.2-5.2
			l1.7-0.9c0.7,1.9,2.5,4,5.9,4c1.3,0,3.5-0.8,4.3-2.5c0.3-0.7,0.3-2.2,0-3c-0.5-1.4-2.1-1.9-4.4-2.5c-3-0.7-6.6-1.9-6.6-5.9
			c0-2.9,2.2-5.1,6-5.1c2.6,0,4.8,1.2,6,3.1l-1.6,1.3c-1.1-1.3-2.4-2.6-4.2-2.6C-545.9,409.4-547.5,411-547.5,412.7z"/>
		<path class="st0" d="M-527.9,400.8c0,1.1-0.9,1.9-2,1.9c-1.1,0-1.9-0.9-1.9-1.9c0-1.1,0.9-1.9,1.9-1.9
			C-528.8,398.8-527.9,399.7-527.9,400.8z M-528.8,437.1h-2.3v-28.8h2.3V437.1z"/>
		<path class="st0" d="M-507.5,411.1v-2.9h2.2v19.4c-1.8,1.5-2.7,2.9-2.7,4.3c0,0.7,0.3,1.3,0.9,1.7c0.5,0.5,1.3,0.7,2.4,0.7
			c0.4,0,0.9,0,1.6-0.1l-0.2,1.8c-0.6,0.1-1.2,0.2-1.9,0.2c-1.7,0-2.9-0.4-3.7-1.2c-0.9-0.8-1.3-1.7-1.3-2.8c0-1.8,1.2-3.9,2.9-4.9
			v-2.7c-1.7,2.2-4.4,3.7-7.2,3.7c-5.5-0.1-9.6-5-9.5-10.5c-0.1-5.5,4-10.4,9.5-10.5C-511.9,407.5-509.1,408.8-507.5,411.1z
			 M-514.8,409.6c-4.3,0-7.3,4-7.2,8.3c0,4.3,2.9,8.2,7.2,8.3c4.4,0,7.3-3.9,7.2-8.3c0-2.3-0.7-4.5-2.1-6
			C-510.9,410.4-512.8,409.6-514.8,409.6z"/>
		<path class="st0" d="M-497.3,426.3c0,0.1,0,0.2,0,0.2c-0.2,1.7-1.2,3.7-2,5.3l-1.4-0.7c0.7-0.8,1.4-1.8,1.7-2.9c0,0-0.1,0-0.2,0
			c-1.1,0-1.9-0.9-1.9-1.9c0-1.1,0.9-1.9,1.9-1.9C-498.2,424.3-497.3,425.2-497.3,426.3z"/>
		<path class="st0" d="M-464,418c0.1,6-3.5,10.5-9.6,10.5c-6,0-9.5-4.6-9.5-10.5c0.1-5.6,3.7-10.5,9.4-10.5
			C-467.9,407.6-463.9,412-464,418z M-480.8,418c0,4.7,2.5,8.2,7.2,8.3c4.8-0.1,7.4-3.4,7.3-8.3c0.1-4.8-2.8-8.2-7.4-8.3
			C-478.2,409.9-480.8,413.8-480.8,418z"/>
		<path class="st0" d="M-441.9,418v9.7h-2.2V425c-1.9,2.1-4.4,3.6-7.2,3.6c-5.5-0.2-9.5-5.2-9.5-10.6c0-5.5,3.9-10.4,9.5-10.5
			c2.6,0,5.1,1.4,6.9,3.3c0.1,0.1,0.2,0.3,0.3,0.4v-18.7h2.2V418z M-458.6,418c0,4.3,2.9,8.2,7.2,8.3c4.3-0.1,7.3-4,7.2-8.3
			c0.3-4.5-2.7-8.5-7.2-8.3C-455.7,409.8-458.7,413.7-458.6,418z"/>
		<path class="st0" d="M-434.6,416.9l-0.2-0.2v11h-2.2v-35.1h2.2v22.9l0.3-0.2l9.1-6.9h3.7l-10.4,7.9l11.7,11.5h-3.2L-434.6,416.9z"
			/>
		<path class="st0" d="M-415.4,411.2c1.4-3.3,7.3-4,9.1-0.6l-1.2,1.6c-2.3-4.3-7.6-1.3-7.9,3.5v11.9h-2.2v-19.4h2.2V411.2z"/>
		<path class="st0" d="M-390.7,408.3h2.3l-11.3,28.8h-2.4l3.9-9.9l-7.4-18.8h2.4l6.2,15.9L-390.7,408.3z"/>
		<path class="st0" d="M-381.6,400.8c0,1.1-0.9,1.9-2,1.9c-1.1,0-1.9-0.9-1.9-1.9c0-1.1,0.9-1.9,1.9-1.9
			C-382.5,398.8-381.6,399.7-381.6,400.8z M-382.4,437.1h-2.3v-28.8h2.3V437.1z"/>
		<path class="st0" d="M-363.3,411.3c1.2-2.1,3.3-3.8,6.4-3.8c2.7,0,5,1.2,6,3.8c1.7-2.5,4-3.9,6.8-3.9c4.2,0,6.5,2,6.5,7.4v12.8
			h-2.2v-12.8c0-3.3-1.2-5.3-4.3-5.3c-3.6,0-5.4,2.9-6.2,5.3v12.8h-2.2v-12.8c0-4.1-1.9-5.4-4.6-5.4c-3.2,0-5.3,3.1-6.1,6.1v12.1
			h-2.2v-19.4h2.2V411.3z"/>
		<path class="st0" d="M-330.6,421.2c0,3.3,3.2,5.3,5.8,5.3c2.6,0,5.8-2,5.8-5.3v-12.9h2.2v12.9c0,3.8-3.4,7.3-8.1,7.3
			c-4.7,0-8-3.5-8-7.3v-12.9h2.2V421.2z"/>
		<path class="st0" d="M-296.3,425.4v2.2h-17.4l13.6-17.1h-11v-2.2h15.6l-13.6,17.1H-296.3z"/>
		<path class="st0" d="M-279.7,408.3h2.3l-11.3,28.8h-2.4l3.9-9.9l-7.4-18.8h2.4l6.2,15.9L-279.7,408.3z"/>
		<path class="st0" d="M-272,416.9l-0.2-0.2v11h-2.2v-35.1h2.2v22.9l0.3-0.2l9.1-6.9h3.7l-10.4,7.9l11.7,11.5h-3.2L-272,416.9z"/>
		<path class="st0" d="M-245.6,426.4c2.5,0,4.5-1.1,6-2.7l2,1.3c-2,2-5.6,4.2-5.6,6.9c0,0.7,0.3,1.3,0.9,1.7
			c0.6,0.6,1.3,0.8,2.3,0.8c0.5,0,0.9-0.1,1.6-0.1l-0.2,1.8c-0.7,0.1-1.3,0.2-1.9,0.2c-1.6,0-2.9-0.3-3.8-1.1
			c-0.8-0.8-1.3-1.8-1.3-2.9c0-1.3,0.7-2.9,1.7-4c-5.8,0.9-11.9-3.1-11.9-10.4c-0.1-5.4,4-10.4,9.5-10.5c5,0,9.1,4.4,9.4,9.4
			c0,0,0,0.1,0,0.2h-16.7C-254.2,423-249.8,426.3-245.6,426.4z M-246.3,409.6c-3.2,0-5.7,2.3-6.7,5.1h13.3
			C-240.6,411.8-243.2,409.6-246.3,409.6z"/>
	</g>
	<rect x="-666" y="488.6" style="fill:none;" width="462.3" height="56.4"/>
	<text transform="matrix(1 0 0 1 -665.9924 517.0196)" class="st8" style="font-family:'FuturaPT-Medium'; font-size:40px;">Zajęcia</text>
	<rect x="-666" y="551.2" style="fill:none;" width="462.3" height="56.4"/>
	<text transform="matrix(1 0 0 1 -665.9924 579.6182)" class="st8" style="font-family:'FuturaPT-Medium'; font-size:40px;">Lokalizacja</text>
	<rect x="-666" y="607.6" style="fill:none;" width="462.3" height="56.4"/>
	<text transform="matrix(1 0 0 1 -665.9924 636.0258)" class="st8" style="font-family:'FuturaPT-Medium'; font-size:40px;">O mnie</text>
	<path class="st9" d="M227.2-477.5v-55.8l37.9,44.8V-531h4.5v55.1l-37.9-44.9v43.3H227.2z"/>
	<path class="st9" d="M337.8-504.1c0,3.8-0.7,7.4-2.2,10.8c-1.4,3.4-3.5,6.4-6.2,9.1c-2.8,2.7-5.9,4.7-9.3,6.1
		c-3.5,1.4-7.1,2.1-11,2.1c-3.9,0-7.5-0.7-11-2.1c-3.5-1.4-6.5-3.4-9.3-6.1c-2.7-2.7-4.8-5.7-6.2-9.1c-1.4-3.4-2.1-7-2.1-10.7
		c0-3.8,0.7-7.4,2.1-10.8c1.4-3.4,3.5-6.5,6.2-9.2c2.7-2.7,5.7-4.7,9.2-6c3.4-1.4,7.1-2,11.1-2c4,0,7.7,0.7,11.1,2.1
		c3.5,1.4,6.5,3.4,9.2,6c2.7,2.7,4.8,5.8,6.2,9.2C337.1-511.6,337.8-508,337.8-504.1z M309.1-480.4c3.2,0,6.2-0.6,9-1.8
		c2.8-1.2,5.4-2.9,7.6-5.1c2.2-2.3,3.9-4.8,5.1-7.7c1.2-2.9,1.8-5.9,1.8-9.1c0-3.2-0.6-6.3-1.8-9.1c-1.2-2.9-2.9-5.4-5.1-7.7
		c-2.2-2.2-4.8-3.9-7.6-5.1c-2.8-1.2-5.9-1.8-9.1-1.8c-3.2,0-6.2,0.6-9,1.8s-5.3,2.9-7.6,5.1c-2.2,2.3-4,4.9-5.1,7.7
		c-1.2,2.8-1.8,5.9-1.8,9.1c0,3.2,0.6,6.3,1.8,9.1c1.2,2.9,2.9,5.4,5.1,7.7c2.2,2.3,4.8,4,7.5,5.1
		C302.8-481,305.9-480.4,309.1-480.4z"/>
	<path class="st9" d="M454.8-517.6c-2.2-3.4-4.8-5.9-8-7.6c-3.2-1.7-6.7-2.6-10.7-2.6c-6.6,0-12,2.2-16.2,6.7
		c-4.2,4.5-6.3,10.3-6.3,17.4c0,3.2,0.6,6.2,1.7,9c1.1,2.8,2.7,5.3,4.8,7.5c2.1,2.2,4.5,3.8,7.2,4.9c2.7,1.1,5.6,1.6,8.7,1.6
		c6,0,10.9-1.8,14.6-5.3c3.8-3.5,5.7-8.2,5.8-13.9H438v-4.2h23.8v0.6c0,8.5-2.3,15.2-7,20c-4.7,4.8-11.1,7.2-19.2,7.2
		c-8.1,0-14.7-2.6-19.7-7.8c-5-5.2-7.5-11.9-7.5-20.3c0-3.9,0.6-7.5,1.9-10.9c1.3-3.4,3.1-6.4,5.5-8.9c2.6-2.8,5.5-4.8,8.8-6.2
		c3.3-1.4,6.9-2,10.9-2c5.4,0,10.1,1,14,2.9c3.9,2,6.9,4.8,9,8.6L454.8-517.6z"/>
	<path class="st9" d="M472.1-477.5V-531h4.9v53.5H472.1z"/>
	<path class="st9" d="M499.8-477.5v-49h-14.7v-4.6h34.4v4.6h-14.8v49H499.8z"/>
	<path class="st9" d="M514.8-477.5l23.5-55.7l22.5,55.7h-5.3l-6.8-18.1h-21.9l-7.1,18.1H514.8z M528.4-499.8h18.7l-9.1-23.3
		L528.4-499.8z"/>
	<path class="st9" d="M599.3-477.5h-5.9L574.6-503h-2.9v25.5h-4.9V-531h9.8c5.8,0,10.1,1.2,13,3.6c2.9,2.4,4.3,6.1,4.3,11
		c0,4.2-1.2,7.4-3.7,9.8c-2.5,2.4-5.9,3.6-10.2,3.6L599.3-477.5z M571.7-526.8v19.8h4.9c4.5,0,7.7-0.7,9.5-2.2
		c1.8-1.5,2.7-3.9,2.7-7.4c0-3.7-0.9-6.3-2.8-7.9c-1.9-1.6-5-2.3-9.4-2.3H571.7z"/>
	<path class="st9" d="M602.8-477.5l23.5-55.7l22.5,55.7h-5.3l-6.8-18.1h-21.9l-7.1,18.1H602.8z M616.4-499.8h18.7l-9.1-23.3
		L616.4-499.8z"/>
	<circle class="st10" cx="370.5" cy="-524.5" r="3"/>
	<rect x="368.3" y="-514.8" class="st10" width="4.5" height="39.4"/>
	<path class="st0" d="M386.7-367.6c-2.2-2.4-4.4-7.5-2.5-9.5c1.9-1.9,4-0.2,4.8,2.1c2-1.4,4.8-1.5,5.2,1.1
		C394.7-371.1,389.9-368.2,386.7-367.6z"/>
	<path class="st0" d="M383.4-599.2c11.2,0.3,18,8.3,18.4,17.2c0.4,10-7.5,12-7.2,16.2c0.2,3,5,6.1,0.8,13.6
		c-3.3,5.9-9.7,6.1-9.7,6.1l0,80.5c0,0,17.6,5.2,19.1,22.5c0.7,12.2-7,12.6-5.4,20.2s18.5,13.8,15.7,38.9c-4,22.3-24.1,31.4-38,31.4
		c-20.4,0-38.7-12.5-38.7-36.9l4.5,0.1c1.5,25.9,21.3,31.9,34,32.2c11.3,0.2,29.1-7.2,33.6-26.7c4.9-21.6-13.3-28.5-15.6-37.8
		c-1.5-8.8,5.9-11.1,5.2-20.8c-0.8-16.6-18.8-19.3-18.8-19.3l-0.1-89c0,0,6.7,1.8,9.8-3.1c3.1-4.9-0.2-7-0.9-12
		c0.6-9,8.3-7,7.1-16.8c-1.5-11.9-13.8-12-13.8-12V-599.2z"/>
	<path class="st0" d="M372.2-402.1c-0.8,0.2-1.5,0.2-2.3,0.2c-6.3,0-11.4-5.1-11.4-11.4c0-6.3,5.1-11.4,11.4-11.4
		c0.8,0,1.6,0.1,2.3,0.2v-4.9v-2.5v-29.1h-4.7v31.5c-7.7,1.1-13.7,7.8-13.7,15.9c0,8.9,7.2,16,16,16c0.8,0,1.6-0.1,2.3-0.2V-402.1z"
		/>
	<g>
		<path class="st0" d="M234.1-326.3h-17.6v-2.1h19h0.3h2.4l-20.1,29.8h19.8v2.1h-21.2h-0.5h-2.2L234.1-326.3z M228-335.7
			c0,1.1-0.9,1.9-1.9,1.9c-1.1,0-1.9-0.9-1.9-1.9c0-1.1,0.8-1.9,1.9-1.9C227.2-337.6,228-336.7,228-335.7z"/>
		<path class="st0" d="M254.4-316h2.3l-11.3,28.8H243l3.9-9.9l-7.4-18.8h2.4l6.2,15.9L254.4-316z"/>
		<path class="st0" d="M263.5-323.5c0,1.1-0.9,1.9-2,1.9c-1.1,0-1.9-0.9-1.9-1.9c0-1.1,0.9-1.9,1.9-1.9
			C262.7-325.5,263.5-324.6,263.5-323.5z M262.7-287.2h-2.3V-316h2.3V-287.2z"/>
		<path class="st0" d="M279.6-315.9h2.2v3.3c1.7-2.2,4.4-3.6,7.2-3.6c5.5,0.2,9.5,5.1,9.5,10.6c0,5.4-3.9,10.4-9.4,10.5
			c-2.9-0.2-5.8-1.5-7.2-3.7v11.7h-2.2V-315.9z M296.2-305.6c0-4.2-2.9-8.2-7.2-8.3c-4.4,0.1-7.2,4.2-7.2,8.3
			c0.1,4.7,2.3,8.3,7.2,8.3C293.3-297.4,296.3-301.4,296.2-305.6z"/>
		<path class="st0" d="M318-312.8l-0.1-3.1h2.2v19.3H318l0.1-3.2c-1.6,2.5-4.4,4-7.3,4c-5.5-0.1-9.6-5.1-9.5-10.5
			c-0.1-5.5,4-10.4,9.5-10.5C313.5-316.7,316.8-315.3,318-312.8z M310.7-314.6c-4.3,0.1-7.3,4-7.2,8.3c0,4.3,2.9,8.2,7.2,8.3
			c4.4,0,7.3-3.9,7.2-8.3c0-2.3-0.7-4.6-2.1-6.1C314.6-313.8,312.7-314.6,310.7-314.6z"/>
		<path class="st0" d="M326.9-311.6c0,2.7,2.1,3.3,5,3.8c3.1,0.5,6.5,1.7,6.5,6.2c0,2.6-2.3,5.8-7.3,5.8c-3.7,0-6.7-2.3-7.2-5.2
			l1.7-0.9c0.7,1.9,2.5,4,5.9,4c1.3,0,3.5-0.8,4.3-2.5c0.3-0.7,0.3-2.2,0-3c-0.5-1.4-2.1-1.9-4.4-2.5c-3-0.7-6.6-1.9-6.6-5.9
			c0-2.9,2.2-5.1,6-5.1c2.6,0,4.8,1.2,6,3.1l-1.6,1.3c-1.1-1.3-2.4-2.6-4.2-2.6C328.5-314.9,326.9-313.3,326.9-311.6z"/>
		<path class="st0" d="M346.5-323.5c0,1.1-0.9,1.9-2,1.9c-1.1,0-1.9-0.9-1.9-1.9c0-1.1,0.9-1.9,1.9-1.9
			C345.6-325.5,346.5-324.6,346.5-323.5z M345.6-287.2h-2.3V-316h2.3V-287.2z"/>
		<path class="st0" d="M366.9-313.2v-2.9h2.2v19.4c-1.8,1.5-2.7,2.9-2.7,4.3c0,0.7,0.3,1.3,0.9,1.7c0.5,0.5,1.3,0.7,2.4,0.7
			c0.4,0,0.9,0,1.6-0.1l-0.2,1.8c-0.6,0.1-1.2,0.2-1.9,0.2c-1.7,0-2.9-0.4-3.7-1.2c-0.9-0.8-1.3-1.7-1.3-2.8c0-1.8,1.2-3.9,2.9-4.9
			v-2.7c-1.7,2.2-4.4,3.7-7.2,3.7c-5.5-0.1-9.6-5-9.5-10.5c-0.1-5.5,4-10.4,9.5-10.5C362.5-316.8,365.3-315.5,366.9-313.2z
			 M359.6-314.7c-4.3,0-7.3,4-7.2,8.3c0,4.3,2.9,8.2,7.2,8.3c4.4,0,7.3-3.9,7.2-8.3c0-2.3-0.7-4.5-2.1-6
			C363.5-313.9,361.6-314.7,359.6-314.7z"/>
		<path class="st0" d="M377.1-298c0,0.1,0,0.2,0,0.2c-0.2,1.7-1.2,3.7-2,5.3l-1.4-0.7c0.7-0.8,1.4-1.8,1.7-2.9c0,0-0.1,0-0.2,0
			c-1.1,0-1.9-0.9-1.9-1.9c0-1.1,0.9-1.9,1.9-1.9S377.1-299.1,377.1-298z"/>
		<path class="st0" d="M410.4-306.3c0.1,6-3.5,10.5-9.6,10.5c-6,0-9.5-4.6-9.5-10.5c0.1-5.6,3.7-10.5,9.4-10.5
			C406.6-316.7,410.5-312.2,410.4-306.3z M393.6-306.3c0,4.7,2.5,8.2,7.2,8.3c4.8-0.1,7.4-3.4,7.3-8.3c0.1-4.8-2.8-8.2-7.4-8.3
			C396.2-314.4,393.6-310.4,393.6-306.3z"/>
		<path class="st0" d="M432.5-306.3v9.7h-2.2v-2.7c-1.9,2.1-4.4,3.6-7.2,3.6c-5.5-0.2-9.5-5.2-9.5-10.6c0-5.5,3.9-10.4,9.5-10.5
			c2.6,0,5.1,1.4,6.9,3.3c0.1,0.1,0.2,0.3,0.3,0.4v-18.7h2.2V-306.3z M415.8-306.3c0,4.3,2.9,8.2,7.2,8.3c4.3-0.1,7.3-4,7.2-8.3
			c0.3-4.5-2.7-8.5-7.2-8.3C418.7-314.5,415.7-310.6,415.8-306.3z"/>
		<path class="st0" d="M439.8-307.4l-0.2-0.2v11h-2.2v-35.1h2.2v22.9l0.3-0.2l9.1-6.9h3.7l-10.4,7.9l11.7,11.5h-3.2L439.8-307.4z"/>
		<path class="st0" d="M459-313c1.4-3.3,7.3-4,9.1-0.6l-1.2,1.6c-2.3-4.3-7.6-1.3-7.9,3.5v11.9h-2.2V-316h2.2V-313z"/>
		<path class="st0" d="M483.7-316h2.3l-11.3,28.8h-2.4l3.9-9.9l-7.4-18.8h2.4l6.2,15.9L483.7-316z"/>
		<path class="st0" d="M492.8-323.5c0,1.1-0.9,1.9-2,1.9c-1.1,0-1.9-0.9-1.9-1.9c0-1.1,0.9-1.9,1.9-1.9
			C492-325.5,492.8-324.6,492.8-323.5z M492-287.2h-2.3V-316h2.3V-287.2z"/>
		<path class="st0" d="M511.1-312.9c1.2-2.1,3.3-3.8,6.4-3.8c2.7,0,5,1.2,6,3.8c1.7-2.5,4-3.9,6.8-3.9c4.2,0,6.5,2,6.5,7.4v12.8
			h-2.2v-12.8c0-3.3-1.2-5.3-4.3-5.3c-3.6,0-5.4,2.9-6.2,5.3v12.8h-2.2v-12.8c0-4.1-1.9-5.4-4.6-5.4c-3.2,0-5.3,3.1-6.1,6.1v12.1
			h-2.2V-316h2.2V-312.9z"/>
		<path class="st0" d="M543.8-303.1c0,3.3,3.2,5.3,5.8,5.3c2.6,0,5.8-2,5.8-5.3V-316h2.2v12.9c0,3.8-3.4,7.3-8.1,7.3
			c-4.7,0-8-3.5-8-7.3V-316h2.2V-303.1z"/>
		<path class="st0" d="M578.1-298.8v2.2h-17.4l13.6-17.1h-11v-2.2h15.6l-13.6,17.1H578.1z"/>
		<path class="st0" d="M594.8-316h2.3l-11.3,28.8h-2.4l3.9-9.9l-7.4-18.8h2.4l6.2,15.9L594.8-316z"/>
		<path class="st0" d="M602.4-307.4l-0.2-0.2v11H600v-35.1h2.2v22.9l0.3-0.2l9.1-6.9h3.7l-10.4,7.9l11.7,11.5h-3.2L602.4-307.4z"/>
		<path class="st0" d="M628.8-297.9c2.5,0,4.5-1.1,6-2.7l2,1.3c-2,2-5.6,4.2-5.6,6.9c0,0.7,0.3,1.3,0.9,1.7c0.6,0.6,1.3,0.8,2.3,0.8
			c0.5,0,0.9-0.1,1.6-0.1l-0.2,1.8c-0.7,0.1-1.3,0.2-1.9,0.2c-1.6,0-2.9-0.3-3.8-1.1c-0.8-0.8-1.3-1.8-1.3-2.9c0-1.3,0.7-2.9,1.7-4
			c-5.8,0.9-11.9-3.1-11.9-10.4c-0.1-5.4,4-10.4,9.5-10.5c5,0,9.1,4.4,9.4,9.4c0,0,0,0.1,0,0.2h-16.7
			C620.2-301.3,624.6-298,628.8-297.9z M628.1-314.7c-3.2,0-5.7,2.3-6.7,5.1h13.3C633.8-312.5,631.2-314.7,628.1-314.7z"/>
	</g>
	<rect x="182.4" y="-235.6" style="fill:none;" width="462.3" height="56.4"/>
	<text transform="matrix(1 0 0 1 182.4196 -207.2474)" class="st8" style="font-family:'FuturaPT-Medium'; font-size:40px;">Zajęcia</text>
	<rect x="182.4" y="-173" style="fill:none;" width="462.3" height="56.4"/>
	<text transform="matrix(1 0 0 1 182.4196 -144.6487)" class="st8" style="font-family:'FuturaPT-Medium'; font-size:40px;">Lokalizacja</text>
	<rect x="182.4" y="-116.6" style="fill:none;" width="462.3" height="56.4"/>
	<text transform="matrix(1 0 0 1 182.4196 -88.2411)" class="st8" style="font-family:'FuturaPT-Medium'; font-size:40px;">O mnie</text>
	<g>
		<path class="st11" d="M151.4,852.9h12.8v3.8h-19.4l13.1-22.8h-11v-3.8h17.6L151.4,852.9z"/>
		<path class="st11" d="M179.6,839.9h3.9v16.8h-3.9V855c-1.7,2-3.8,2.3-5,2.3c-5.2,0-8.2-4.3-8.2-9c0-5.5,3.8-8.8,8.2-8.8
			c1.2,0,3.4,0.3,5,2.4V839.9z M170.4,848.4c0,2.9,1.8,5.4,4.7,5.4c2.5,0,4.8-1.8,4.8-5.3c0-3.7-2.3-5.4-4.8-5.4
			C172.3,843,170.4,845.4,170.4,848.4z"/>
		<path class="st11" d="M190.5,830.5c1.4,0,2.5,1.1,2.5,2.5s-1.1,2.5-2.5,2.5c-1.4,0-2.5-1.1-2.5-2.5S189,830.5,190.5,830.5z
			 M192.4,839.9v26h-3.9v-26H192.4z"/>
		<path class="st11" d="M212.5,852.9c-0.6,1.1-1.3,1.9-2.2,2.6c-2.4,1.8-3.2,1.7-4.3,2.9c-0.4,0.5-0.8,1.1-0.8,1.7
			c0,0.4,0.1,0.7,0.4,1c0.4,0.3,0.8,0.4,1.2,0.4c0.6,0,1.3-0.1,2-0.4l-0.4,2.5c-1,0.6-1.7,0.8-2.4,0.8c-1.5,0-2.5-0.5-3.1-1.2
			c-0.7-0.8-0.9-1.6-0.9-2.2c0-0.9,0.4-1.6,0.8-2.2c0.4-0.5,0.9-1,1.5-1.4c-2.5-0.1-4.3-1.2-5.3-2.2c-1.6-1.6-2.5-4-2.5-6.4
			c0-2.6,0.9-5.2,2.7-6.9c1.4-1.4,3.2-2.3,5.6-2.3c2.7,0,4.4,1.2,5.4,2.2c2.2,2.2,2.4,5.4,2.4,7.1v0.5h-12.1
			c0.1,1.2,0.6,2.6,1.4,3.4c0.9,0.9,2,1.1,3,1.1c1.1,0,1.9-0.2,2.7-0.8c0.7-0.5,1.2-1.2,1.6-1.8L212.5,852.9z M208.6,846.1
			c-0.2-0.9-0.6-1.7-1.2-2.3c-0.5-0.5-1.4-1-2.6-1c-1.4,0-2.2,0.6-2.8,1.1c-0.6,0.5-1,1.3-1.2,2.2H208.6z"/>
		<path class="st11" d="M229.7,845.1c-1.8-1.8-3.6-2.1-4.8-2.1c-1.8,0-3,0.8-3.7,1.5c-0.7,0.7-1.4,2-1.4,3.9c0,2,0.8,3.3,1.5,4
			c0.9,0.8,2.1,1.4,3.6,1.4c1.6,0,3.5-0.6,4.8-2.2v4.4c-1,0.6-2.5,1.3-5.1,1.3c-2.8,0-4.8-0.8-6.4-2.5c-1.2-1.2-2.4-3.2-2.4-6.3
			c0-3.2,1.3-5.3,2.6-6.5c1.3-1.3,3.4-2.5,6.8-2.5c1.3,0,2.8,0.2,4.6,1.2V845.1z"/>
		<path class="st11" d="M235.4,830.5c1.4,0,2.5,1.1,2.5,2.5s-1.1,2.5-2.5,2.5c-1.4,0-2.5-1.1-2.5-2.5S234,830.5,235.4,830.5z
			 M237.4,839.9v16.8h-3.9v-16.8H237.4z"/>
		<path class="st11" d="M254.7,839.9h3.9v16.8h-3.9V855c-1.7,2-3.8,2.3-5,2.3c-5.2,0-8.2-4.3-8.2-9c0-5.5,3.8-8.8,8.2-8.8
			c1.2,0,3.4,0.3,5,2.4V839.9z M245.5,848.4c0,2.9,1.8,5.4,4.7,5.4c2.5,0,4.8-1.8,4.8-5.3c0-3.7-2.3-5.4-4.8-5.4
			C247.3,843,245.5,845.4,245.5,848.4z"/>
	</g>
	<g>
		<path class="st11" d="M150.8,910.1V933h7.8v3.8h-11.9v-26.7H150.8z"/>
		<path class="st11" d="M178.9,928.4c0,5.2-3.9,8.9-9,8.9s-9-3.8-9-8.9c0-5.2,3.9-8.9,9-8.9S178.9,923.2,178.9,928.4z M174.9,928.4
			c0-3.8-2.5-5.4-5-5.4s-5,1.6-5,5.4c0,3.2,1.9,5.4,5,5.4S174.9,931.7,174.9,928.4z"/>
		<path class="st11" d="M186.9,907.6v18l5.5-5.6h5.2l-7.2,7l7.8,9.8h-5l-5.5-7.2l-0.7,0.7v6.5H183v-29.2H186.9z"/>
		<path class="st11" d="M213,920h3.9v16.8H213V935c-1.7,2-3.8,2.3-5,2.3c-5.2,0-8.2-4.3-8.2-9c0-5.5,3.8-8.8,8.2-8.8
			c1.2,0,3.4,0.3,5,2.4V920z M203.8,928.4c0,2.9,1.8,5.4,4.7,5.4c2.5,0,4.8-1.8,4.8-5.3c0-3.7-2.3-5.4-4.8-5.4
			C205.6,923,203.8,925.4,203.8,928.4z"/>
		<path class="st11" d="M225.8,907.6v29.2h-3.9v-29.2H225.8z"/>
		<path class="st11" d="M232.7,910.5c1.4,0,2.5,1.1,2.5,2.5s-1.1,2.5-2.5,2.5c-1.4,0-2.5-1.1-2.5-2.5S231.2,910.5,232.7,910.5z
			 M234.6,920v16.8h-3.9V920H234.6z"/>
		<path class="st11" d="M245.2,933.2h10v3.6h-17.7l10.9-13.2h-8.6V920H256L245.2,933.2z"/>
		<path class="st11" d="M270.5,920h3.9v16.8h-3.9V935c-1.7,2-3.8,2.3-5,2.3c-5.2,0-8.2-4.3-8.2-9c0-5.5,3.8-8.8,8.2-8.8
			c1.2,0,3.4,0.3,5,2.4V920z M261.3,928.4c0,2.9,1.8,5.4,4.7,5.4c2.5,0,4.8-1.8,4.8-5.3c0-3.7-2.3-5.4-4.8-5.4
			C263.2,923,261.3,925.4,261.3,928.4z"/>
		<path class="st11" d="M292.4,925.1c-1.8-1.8-3.6-2.1-4.8-2.1c-1.8,0-3,0.8-3.7,1.5c-0.7,0.7-1.4,2-1.4,3.9c0,2,0.8,3.3,1.5,4
			c0.9,0.8,2.1,1.4,3.6,1.4c1.6,0,3.5-0.6,4.8-2.2v4.4c-1,0.6-2.5,1.3-5.1,1.3c-2.8,0-4.8-0.8-6.4-2.5c-1.2-1.2-2.4-3.2-2.4-6.3
			c0-3.2,1.3-5.3,2.6-6.5c1.3-1.3,3.4-2.5,6.8-2.5c1.3,0,2.8,0.2,4.6,1.2V925.1z"/>
		<path class="st11" d="M298.2,910.5c1.4,0,2.5,1.1,2.5,2.5s-1.1,2.5-2.5,2.5c-1.4,0-2.5-1.1-2.5-2.5S296.7,910.5,298.2,910.5z
			 M300.1,920v26h-3.9v-26H300.1z"/>
		<path class="st11" d="M317.4,920h3.9v16.8h-3.9V935c-1.7,2-3.8,2.3-5,2.3c-5.2,0-8.2-4.3-8.2-9c0-5.5,3.8-8.8,8.2-8.8
			c1.2,0,3.4,0.3,5,2.4V920z M308.2,928.4c0,2.9,1.8,5.4,4.7,5.4c2.5,0,4.8-1.8,4.8-5.3c0-3.7-2.3-5.4-4.8-5.4
			C310,923,308.2,925.4,308.2,928.4z"/>
	</g>
	<g>
		<path class="st11" d="M180.4,1008.1c0,7.8-5.9,13.8-13.9,13.8s-13.9-6-13.9-13.8c0-7.8,5.9-13.8,13.9-13.8
			S180.4,1000.2,180.4,1008.1z M176.3,1008.1c0-5.9-4.1-10.1-9.8-10.1s-9.8,4.2-9.8,10.1s4.1,10.1,9.8,10.1S176.3,1014,176.3,1008.1
			z"/>
		<path class="st11" d="M194.1,1004.6h3.9v1.6c1.3-1.6,2.9-2,4.2-2c1.8,0,3.4,0.8,4.4,2.5c1.4-2,3.5-2.5,5-2.5c2,0,3.8,1,4.8,2.6
			c0.3,0.6,0.9,1.8,0.9,4.2v10.4h-3.9v-9.3c0-1.9-0.2-2.6-0.4-3c-0.2-0.6-0.8-1.5-2.2-1.5c-1,0-1.8,0.5-2.3,1.2
			c-0.7,1-0.8,2.4-0.8,3.8v8.7h-3.9v-9.3c0-1.9-0.2-2.6-0.4-3c-0.2-0.6-0.8-1.5-2.2-1.5c-1,0-1.8,0.5-2.3,1.2
			c-0.7,1-0.8,2.4-0.8,3.8v8.7h-3.9V1004.6z"/>
		<path class="st11" d="M222.1,1004.6h3.9v1.6c1.7-1.9,3.6-2,4.6-2c3.1,0,4.4,1.6,5,2.3c0.6,0.9,1,2.1,1,4.7v10.3h-3.9v-9.4
			c0-4.3-1.6-4.4-3.1-4.4c-1.8,0-3.6,0.2-3.6,5.7v8.1h-3.9V1004.6z"/>
		<path class="st11" d="M243.5,995.1c1.4,0,2.5,1.1,2.5,2.5s-1.1,2.5-2.5,2.5c-1.4,0-2.5-1.1-2.5-2.5S242.1,995.1,243.5,995.1z
			 M245.5,1004.6v16.8h-3.9v-16.8H245.5z"/>
		<path class="st11" d="M265.5,1017.6c-0.7,1.3-1.8,2.4-2.8,3.1c-1.4,0.9-3.2,1.3-5,1.3c-2.2,0-4.1-0.6-5.7-2.2
			c-1.6-1.6-2.5-3.9-2.5-6.4c0-2.6,0.9-5.1,2.7-6.9c1.4-1.4,3.2-2.3,5.6-2.3c2.7,0,4.4,1.2,5.4,2.2c2.2,2.2,2.4,5.4,2.4,7.1v0.5
			h-12.1c0.1,1.2,0.6,2.6,1.4,3.4c0.9,0.9,2,1.1,3,1.1c1.1,0,1.9-0.2,2.7-0.8c0.7-0.5,1.2-1.2,1.6-1.8L265.5,1017.6z M261.7,1010.7
			c-0.2-0.9-0.6-1.7-1.2-2.3c-0.5-0.5-1.4-1-2.6-1c-1.4,0-2.2,0.6-2.8,1.1c-0.6,0.5-1,1.3-1.2,2.2H261.7z"/>
	</g>
	<g>
		<path class="st11" d="M79,228.6v-90.8l61.7,64.6v-58.9h13v90.3L92,169.2v59.4H79z"/>
		<path class="st11" d="M258.2,186.2c0,25-18.7,44.1-44.2,44.1s-44.2-19.1-44.2-44.1s18.7-44.1,44.2-44.1S258.2,161.2,258.2,186.2z
			 M245.2,186.2c0-18.9-13-32.1-31.2-32.1s-31.2,13.3-31.2,32.1s13,32.1,31.2,32.1S245.2,205.1,245.2,186.2z"/>
		<path class="st11" d="M311.5,144.7c4.6,0,8,3.4,8,8c0,4.6-3.4,8-8,8c-4.6,0-8-3.4-8-8C303.5,148.2,306.9,144.7,311.5,144.7z
			 M317.8,175v53.7h-12.5V175H317.8z"/>
		<path class="st11" d="M412.9,184.4H448v0.6c0,14.5-4.3,26.4-12.6,34.4c-8.8,8.5-19.3,10.8-28.9,10.8c-12.4,0-21.2-3.6-28.9-11.6
			c-8.3-8.5-12.6-19.9-12.6-32.1c0-13.3,5.4-24.7,12.4-31.7c7.3-7.4,18.9-12.8,32-12.8c7.7,0,15.6,1.7,22.2,5.4
			c7,4,11.3,8.9,13.8,12.8l-10.3,7.3c-2.6-3.6-6.4-7.4-10.5-9.7c-4.7-2.8-9.8-3.7-15-3.7c-11.1,0-18.2,4.6-22.4,8.8
			c-5.6,5.6-9.1,14.7-9.1,23.8c0,8.5,3.2,17.1,8.8,23.1c5.9,6.2,13.1,8.5,21.3,8.5c7.4,0,13.5-2.2,19-7.5c4.7-4.6,6.6-9.6,7.1-14.4
			h-21.2V184.4z"/>
		<path class="st11" d="M476.9,143.6v85h-13v-85H476.9z"/>
		<path class="st11" d="M520.3,155.8v72.8h-13v-72.8h-19.5v-12.2h52v12.2H520.3z"/>
		<path class="st11" d="M595.3,208.1H559l-9.3,20.5h-14l42.3-90l40.3,90h-14L595.3,208.1z M590.1,195.9l-12.6-28.8l-13.1,28.8H590.1
			z"/>
		<path class="st11" d="M644.2,143.6c10.3,0,17,1.3,22.4,5c9.3,6.2,10.1,16.3,10.1,20c0,12.2-7.5,21.2-18.9,23.7l26.5,36.3h-15.7
			l-24.4-34.8h-2.3v34.8h-13v-85H644.2z M642.1,182.6h4.1c3.6,0,18.1-0.4,18.1-13.9c0-12-11.3-13.1-17.7-13.1h-4.5V182.6z"/>
		<path class="st11" d="M751.3,208.1H715l-9.3,20.5h-14l42.3-90l40.3,90h-14L751.3,208.1z M746.1,195.9l-12.6-28.8l-13.1,28.8H746.1
			z"/>
	</g>
	<path class="st6" d="M388.6,281.9"/>
	<path class="st7" d="M313.8,259.4"/>
	<path class="st12" d="M-138,522.8c-3.2-3.3-6.2-10.5-3.5-13.3c2.6-2.7,5.7-0.3,6.8,3c2.8-2,6.8-2.2,7.4,1.6
		C-126.7,517.9-133.5,522-138,522.8z"/>
	<path class="st12" d="M332.2,43.5c20.6-0.6,28.4,10.5,28.4,21.2c0.2,12.3-10.9,14.4-10.9,22.3c0,5.8,7.6,9.5,7.6,18.9
		c0,12-10.1,16.3-18.1,16.7l0,126.5c5.5,0.1,30.6,7.2,30.6,36.1c0,17.8-9,22.7-9,33.6c0,16.1,24.1,20.4,24.1,59.2
		c0,35.2-33.1,49.9-59.2,49.9c-33.3,0-60.6-19.6-60.6-57.9h6.8c1.4,40.9,33.5,51.1,53.5,51.1c21.4,0,52.5-13.4,52.7-43
		c0.2-35.1-24.3-40.8-24.2-59.2c0-13.3,9.1-18.4,9-33.7c0-25.8-24.3-30.1-30.6-30.2l-0.2-139.1c5.6,0,18.3,1,18.5-9.9
		c0.1-7.9-7.9-12-7.9-19.3c0-9.1,10.8-11.8,10.8-22c0-10.3-10.4-14.4-21.4-14.2V43.5z"/>
	<path class="st12" d="M316.9,350.4c-11.2,2.2-21.6-7.5-21.5-18c0-10.5,9.9-19.9,21.5-17.7l0-57l-6.7,0v49.6
		c-12.2,1.8-21.7,12.3-21.6,25c0.2,18.1,16.5,26.9,28.3,25V350.4z"/>
	<rect x="-735.9" y="779.7" style="fill:none;" width="708.7" height="240.6"/>
	
		<text transform="matrix(1 0 0 1 -735.9342 860.8252)" style="fill:#EF771B; font-family:'FuturaPT-Medium'; font-size:114.257px; letter-spacing:1;">NO i GITARA</text>
	<path class="st6" d="M-449.4,910.7"/>
	<path class="st7" d="M-516.4,890.5"/>
	<path class="st0" d="M-492.6,1020.3c-3.2-3.3-6.2-10.5-3.5-13.3c2.6-2.7,5.7-0.3,6.8,3c2.8-2,6.8-2.2,7.4,1.6
		C-481.4,1015.4-488.1,1019.5-492.6,1020.3z"/>
	<path class="st0" d="M-497.3,693.7c15.8,0.4,25.5,11.7,26,24.2c0.6,14.1-10.5,17-10.2,22.9c0.2,4.3,7,8.7,1.1,19.2
		c-4.7,8.4-13.7,8.6-13.7,8.6l0,113.6c0,0,24.9,7.3,27,31.7c1.1,17.2-9.9,17.8-7.7,28.5c2.3,10.8,26,19.4,22.2,54.9
		c-5.7,31.5-34,44.3-53.6,44.3c-28.8,0-54.7-17.7-54.6-52l6.4,0.1c2.1,36.6,30,45.1,47.9,45.4c16,0.3,41.1-10.1,47.4-37.7
		c6.9-30.5-18.8-40.3-22-53.3c-2-12.4,8.3-15.6,7.3-29.3c-1.2-23.5-26.5-27.2-26.5-27.2l-0.2-125.6c0,0,9.4,2.5,13.8-4.4
		c4.4-6.9-0.3-9.9-1.3-16.9c0.9-12.7,11.7-9.9,10.1-23.7c-2.1-16.8-19.5-16.9-19.5-16.9V693.7z"/>
	<path class="st0" d="M-513.1,971.7c-1.1,0.2-2.2,0.3-3.3,0.3c-8.9,0-16-7.2-16-16c0-8.9,7.2-16,16-16c1.1,0,2.2,0.1,3.3,0.3v-6.9
		V930v-41h-6.6v44.5c-10.9,1.6-19.3,11-19.3,22.4c0,12.5,10.1,22.6,22.6,22.6c1.1,0,2.2-0.1,3.3-0.3V971.7z"/>
	
		<text transform="matrix(1 0 0 1 -512.7795 248.7021)" class="st8" style="font-family:'FuturaPT-Medium'; font-size:81px; letter-spacing:1;">i</text>
	<rect x="472.1" y="-232.6" style="fill:none;" width="462.3" height="56.4"/>
	<text transform="matrix(1 0 0 1 472.0788 -199.1822)" class="st8" style="font-family:'PaneuropaNeueRegular'; font-size:47px;">Zajęcia</text>
	<rect x="472.1" y="-170" style="fill:none;" width="462.3" height="56.4"/>
	<text transform="matrix(1 0 0 1 472.0788 -136.5835)" class="st8" style="font-family:'PaneuropaNeueRegular'; font-size:47px;">Lokalizacja</text>
	<rect x="472.1" y="-113.5" style="fill:none;" width="462.3" height="56.4"/>
	<text transform="matrix(1 0 0 1 472.0788 -80.1759)" class="st8" style="font-family:'PaneuropaNeueRegular'; font-size:47px;">O mnie</text>
	<path class="st13" d="M-64.9,425.2l4.4,1.3c0.4,0.1,0.6,0.5,0.5,1l-2.4,8c-0.1,0.4-0.5,0.6-1,0.5l-4.4-1.3c-0.4-0.1-0.6-0.5-0.5-1
		l2.4-8C-65.7,425.3-65.3,425.1-64.9,425.2z"/>
	
		<rect x="330.5" y="-15.4" transform="matrix(6.123234e-17 -1 1 6.123234e-17 342.7538 324.3925)" class="st14" width="6.2" height="12.4"/>
</g>
<g id="Warstwa_2" class="st15">
</g>
</svg>
